{
.appVersion = "3260";
DisplayStrings = (
"/AEmacron",
"/U.ss01 U/W.ss01",
"/quotereversed a/quotereversed u/quoteleft/quotereversed/space/quotedblrightreversed \012/quotedblrightreversed/quotedblright/quoteleft/quotedblrightreversed"
);
classes = (
{
automatic = 1;

glyphs = (
{
glyphname = A;
layers = (
{
anchors = (
{
name = bottom;
position = "{292, 0}";
},
{
name = ogonek;
position = "{627, 0}";
},
{
name = top;
position = "{432, 700}";
},
{
name = topleft;
position = "{194, 700}";
}
);
layerId = UUID0;
paths = (
{
closed = 1;
nodes = (
"-19 0 LINE",
"435 684 LINE",
"426 684 LINE",
"606 0 LINE",
"627 0 LINE",
"442 700 LINE",
"422 700 LINE",
"-43 0 LINE"
);
},
{
closed = 1;
nodes = (
"561 211 LINE",
"555 230 LINE",
"120 230 LINE",
"106 211 LINE"
);
}
);
width = 688;
},
{
anchors = (
{
name = bottom;
position = "{348, 0}";
},
{
name = ogonek;
position = "{770, 0}";
},
{
name = top;
position = "{488, 700}";
},
{
name = topleft;
position = "{206, 701}";
}
);
guideLines = (
{
angle = 245.556;
position = "{-113, 56}";
}
);
layerId = "5DA6E103-6A94-47F2-987D-4952DB8EA68E";
paths = (
{
closed = 1;
nodes = (
"175 0 LINE",
"514 591 LINE",
"422 591 LINE",
"535 0 LINE",
"770 0 LINE",
"604 700 LINE",
"372 700 LINE",
"-74 0 LINE"
);
},
{
closed = 1;
nodes = (
"574 122 LINE",
"548 292 LINE",
"226 292 LINE",
"132 122 LINE"
);
}
);
width = 806;
},
{
anchors = (
{
name = bottom;
position = "{317, 0}";
},
{
name = ogonek;
position = "{690, 0}";
},
{
name = top;
position = "{457, 700}";
},
{
name = topleft;
position = "{200, 700}";
}
);
layerId = "C4221BDF-4AE8-4E40-821A-B2476087DE1A";
paths = (
{
closed = 1;
nodes = (
"67 0 LINE",
"471 639 LINE",
"425 639 LINE",
"576 0 LINE",
"690 0 LINE",
"514 700 LINE",
"401 700 LINE",
"-56 0 LINE"
);
},
{
closed = 1;
nodes = (
"568 168 LINE",
"553 260 LINE",
"167 260 LINE",
"118 168 LINE"
);
}
);
width = 740;
}
);
leftKerningGroup = A;
rightKerningGroup = A;
rightMetricsKey = "=|";
unicode = 0041;
},
{
glyphname = "Alpha-latin";
layers = (
{
anchors = (
{
name = bottom;
position = "{383, 0}";
},
{
name = ogonek;
position = "{725, 0}";
},
{
name = top;
position = "{524, 700}";
}
);
layerId = UUID0;
paths = (
{
closed = 1;
nodes = (
"592 -3 OFFCURVE",
"750 132 OFFCURVE",
"793 352 CURVE",
"834 555 OFFCURVE",
"707 703 OFFCURVE",
"490 703 CURVE SMOOTH",
"254 703 OFFCURVE",
"72 524 OFFCURVE",
"72 290 CURVE SMOOTH",
"72 107 OFFCURVE",
"187 -3 OFFCURVE",
"379 -3 CURVE SMOOTH"
);
},
{
closed = 1;
nodes = (
"199 16 OFFCURVE",
"92 118 OFFCURVE",
"92 291 CURVE SMOOTH",
"92 514 OFFCURVE",
"265 684 OFFCURVE",
"490 684 CURVE SMOOTH",
"695 684 OFFCURVE",
"812 545 OFFCURVE",
"775 348 CURVE SMOOTH",
"737 150 OFFCURVE",
"577 16 OFFCURVE",
"379 16 CURVE SMOOTH"
);
},
{
closed = 1;
nodes = (
"725 0 LINE",
"865 700 LINE",
"845 700 LINE",
"794 443 LINE",
"791 353 LINE",
"758 263 LINE",
"705 0 LINE"
);
}
);
userData = {
RMXScaler = {
height = 136;
width = 144;
};
};
width = 910;
},
{
anchors = (
{
name = bottom;
position = "{394, 0}";
},
{
name = ogonek;
position = "{739, 0}";
},
{
name = top;
position = "{534, 700}";
}
);
layerId = "C4221BDF-4AE8-4E40-821A-B2476087DE1A";
paths = (
{
closed = 1;
nodes = (
"564 -9 OFFCURVE",
"717 128 OFFCURVE",
"760 343 CURVE SMOOTH",
"804 567 OFFCURVE",
"696 709 OFFCURVE",
"483 709 CURVE SMOOTH",
"244 709 OFFCURVE",
"59 531 OFFCURVE",
"59 301 CURVE SMOOTH",
"59 114 OFFCURVE",
"182 -9 OFFCURVE",
"368 -9 CURVE SMOOTH"
);
},
{
closed = 1;
nodes = (
"254 93 OFFCURVE",
"174 174 OFFCURVE",
"174 305 CURVE SMOOTH",
"174 475 OFFCURVE",
"306 607 OFFCURVE",
"478 607 CURVE SMOOTH",
"630 607 OFFCURVE",
"721 505 OFFCURVE",
"698 361 CURVE SMOOTH",
"674 210 OFFCURVE",
"537 93 OFFCURVE",
"382 93 CURVE SMOOTH"
);
},
{
closed = 1;
nodes = (
"739 0 LINE",
"879 700 LINE",
"764 700 LINE",
"726 508 LINE",
"709 353 LINE",
"668 198 LINE",
"629 0 LINE"
);
}
);
userData = {
RMXScaler = {
height = 133;
weight = 5;
width = 138;
};
};
width = 892;
},
{
anchors = (
{
name = bottom;
position = "{394, 0}";
},
{
name = ogonek;
position = "{763, 0}";
},
{
name = top;
position = "{534, 700}";
}
);
layerId = "5DA6E103-6A94-47F2-987D-4952DB8EA68E";
paths = (
{
closed = 1;
nodes = (
"528 -15 OFFCURVE",
"646 104 OFFCURVE",
"687 320 CURVE SMOOTH",
"734 567 OFFCURVE",
"638 716 OFFCURVE",
"442 716 CURVE SMOOTH",
"224 716 OFFCURVE",
"42 531 OFFCURVE",
"42 309 CURVE SMOOTH",
"42 120 OFFCURVE",
"174 -15 OFFCURVE",
"357 -15 CURVE SMOOTH"
);
},
{
closed = 1;
nodes = (
"336 175 OFFCURVE",
"280 230 OFFCURVE",
"280 322 CURVE SMOOTH",
"280 434 OFFCURVE",
"363 525 OFFCURVE",
"470 525 CURVE SMOOTH",
"572 525 OFFCURVE",
"626 441 OFFCURVE",
"604 330 CURVE SMOOTH",
"585 233 OFFCURVE",
"519 175 OFFCURVE",
"426 175 CURVE SMOOTH"
);
},
{
closed = 1;
nodes = (
"763 0 LINE",
"903 700 LINE",
"668 700 LINE",
"644 577 LINE",
"611 350 LINE",
"564 125 LINE",
"539 0 LINE"
);
}
);
userData = {
RMXScaler = {
height = 129;
weight = 9;
width = 131;
};
};
width = 875;
}
);
leftKerningGroup = O;
leftMetricsKey = O;
rightKerningGroup = H;
rightMetricsKey = H;
unicode = 2C6D;
userData = {
RMXScaler = {
source = a.ss01;
};
};
},
{
glyphname = Astroke;
layers = (
{
layerId = UUID0;
paths = (
{
closed = 1;
nodes = (
"146 -70 LINE",
"704 770 LINE",
"681 770 LINE",
"123 -70 LINE"
);
},
{
closed = 1;
nodes = (
"562 211 LINE",
"555 230 LINE",
"120 230 LINE",
"107 211 LINE"
);
},
{
closed = 1;
nodes = (
"-18 0 LINE",
"436 684 LINE",
"426 684 LINE",
"606 0 LINE",
"627 0 LINE",
"442 700 LINE",
"422 700 LINE",
"-43 0 LINE"
);
}
);
width = 688;
},
{
layerId = "C4221BDF-4AE8-4E40-821A-B2476087DE1A";
paths = (
{
closed = 1;
nodes = (
"210 -70 LINE",
"739 770 LINE",
"646 770 LINE",
"116 -70 LINE"
);
},
{
closed = 1;
nodes = (
"567 172 LINE",
"552 257 LINE",
"166 257 LINE",
"118 172 LINE"
);
},
{
closed = 1;
nodes = (
"65 0 LINE",
"470 642 LINE",
"424 642 LINE",
"573 0 LINE",
"690 0 LINE",
"513 700 LINE",
"400 700 LINE",
"-56 0 LINE"
);
}
);
width = 740;
},
{
layerId = "5DA6E103-6A94-47F2-987D-4952DB8EA68E";
paths = (
{
closed = 1;
nodes = (
"347 -71 LINE",
"851 769 LINE",
"741 769 LINE",
"237 -71 LINE"
);
},
{
closed = 1;
nodes = (
"570 137 LINE",
"547 281 LINE",
"206 281 LINE",
"126 137 LINE"
);
},
{
closed = 1;
nodes = (
"132 0 LINE",
"495 604 LINE",
"416 604 LINE",
"537 0 LINE",
"740 0 LINE",
"571 700 LINE",
"375 700 LINE",
"-74 0 LINE"
);
}
);
width = 776;
},
{
associatedMasterId = UUID0;
background = {
paths = (
{
closed = 1;
nodes = (
"-19 0 LINE",
"435 684 LINE",
"426 684 LINE",
"606 0 LINE",
"627 0 LINE",
"442 700 LINE",
"422 700 LINE",
"-43 0 LINE"
);
},
{
closed = 1;
nodes = (
"561 211 LINE",
"555 230 LINE",
"120 230 LINE",
"106 211 LINE"
);
}
);
};
layerId = "15231F3C-40AF-4E34-88B9-405A495C1E65";
name = "[100]";
paths = (
{
closed = 1;
nodes = (
"146 -70 LINE",
"704 770 LINE",
"681 770 LINE",
"123 -70 LINE"
);
},
{
closed = 1;
nodes = (
"562 211 LINE",
"555 230 LINE",
"120 230 LINE",
"107 211 LINE"
);
},
{
closed = 1;
nodes = (
"-18 0 LINE",
"436 684 LINE",
"426 684 LINE",
"606 0 LINE",
"627 0 LINE",
"442 700 LINE",
"422 700 LINE",
"-43 0 LINE"
);
}
);
width = 688;
},
{
associatedMasterId = "C4221BDF-4AE8-4E40-821A-B2476087DE1A";
background = {
paths = (
{
closed = 1;
nodes = (
"67 0 LINE",
"471 639 LINE",
"425 639 LINE",
"576 0 LINE",
"690 0 LINE",
"514 700 LINE",
"401 700 LINE",
"-56 0 LINE"
);
},
{
closed = 1;
nodes = (
"568 168 LINE",
"553 260 LINE",
"167 260 LINE",
"118 168 LINE"
);
}
);
};
layerId = "60498850-8910-4F02-A99E-9F8831170BA1";
name = "[100]";
paths = (
{
closed = 1;
nodes = (
"353 -70 LINE",
"882 770 LINE",
"789 770 LINE",
"259 -70 LINE"
);
},
{
closed = 1;
nodes = (
"567 172 LINE",
"552 257 LINE",
"166 257 LINE",
"118 172 LINE"
);
},
{
closed = 1;
nodes = (
"65 0 LINE",
"470 642 LINE",
"424 642 LINE",
"573 0 LINE",
"690 0 LINE",
"513 700 LINE",
"400 700 LINE",
"-56 0 LINE"
);
}
);
width = 740;
},
{
associatedMasterId = "5DA6E103-6A94-47F2-987D-4952DB8EA68E";
layerId = "9BE802E5-D9F9-454E-AFE0-AA32968E4612";
name = "[100]";
paths = (
{
closed = 1;
nodes = (
"347 -71 LINE",
"851 769 LINE",
"741 769 LINE",
"237 -71 LINE"
);
},
{
closed = 1;
nodes = (
"570 137 LINE",
"547 281 LINE",
"206 281 LINE",
"126 137 LINE"
);
},
{
closed = 1;
nodes = (
"132 0 LINE",
"495 604 LINE",
"416 604 LINE",
"537 0 LINE",
"740 0 LINE",
"571 700 LINE",
"375 700 LINE",
"-74 0 LINE"
);
}
);
width = 776;
}
);
leftKerningGroup = A;
leftMetricsKey = A;
rightKerningGroup = A;
unicode = 023A;
},
{
glyphname = Aturned;
layers = (
{
anchors = (
{
name = bottom;
position = "{292, 0}";
},
{
name = top;
position = "{432, 700}";
}
);
layerId = UUID0;
paths = (
{
closed = 1;
nodes = (
"744 700 LINE",
"290 16 LINE",
"299 16 LINE",
"119 700 LINE",
"98 700 LINE",
"283 0 LINE",
"303 0 LINE",
"768 700 LINE"
);
},
{
closed = 1;
nodes = (
"164 489 LINE",
"170 470 LINE",
"605 470 LINE",
"619 489 LINE"
);
}
);
width = 688;
},
{
anchors = (
{
name = bottom;
position = "{317, 0}";
},
{
name = top;
position = "{457, 700}";
}
);
layerId = "C4221BDF-4AE8-4E40-821A-B2476087DE1A";
paths = (
{
closed = 1;
nodes = (
"707 700 LINE",
"303 61 LINE",
"349 61 LINE",
"198 700 LINE",
"84 700 LINE",
"260 0 LINE",
"373 0 LINE",
"830 700 LINE"
);
},
{
closed = 1;
nodes = (
"206 532 LINE",
"221 440 LINE",
"607 440 LINE",
"656 532 LINE"
);
}
);
width = 740;
},
{
anchors = (
{
name = bottom;
position = "{348, 0}";
},
{
name = top;
position = "{488, 700}";
}
);
layerId = "5DA6E103-6A94-47F2-987D-4952DB8EA68E";
paths = (
{
closed = 1;
nodes = (
"662 700 LINE",
"323 109 LINE",
"415 109 LINE",
"302 700 LINE",
"67 700 LINE",
"233 0 LINE",
"465 0 LINE",
"911 700 LINE"
);
},
{
closed = 1;
nodes = (
"263 578 LINE",
"289 408 LINE",
"611 408 LINE",
"705 578 LINE"
);
}
);
width = 806;
}
);
leftKerningGroup = V;
rightKerningGroup = V;
unicode = 2C6F;
},
{
glyphname = AE;
layers = (
{
anchors = (
{
name = bottom;
position = "{428, 0}";
},
{
name = ogonek;
position = "{884, 0}";
},
{
name = top;
position = "{679, 700}";
}
);
layerId = UUID0;
paths = (
{
closed = 1;
nodes = (
"-18 0 LINE",
"553 685 LINE",
"537 681 LINE",
"559 681 LINE",
"563 700 LINE",
"540 700 LINE",
"-43 0 LINE"
);
},
{
closed = 1;
nodes = (
"465 211 LINE",
"469 230 LINE",
"157 230 LINE",
"143 211 LINE"
);
},
{
closed = 1;
nodes = (
"884 0 LINE",
"888 19 LINE",
"442 19 LINE",
"574 681 LINE",
"1005 681 LINE",
"1009 700 LINE",
"558 700 LINE",
"418 0 LINE"
);
},
{
closed = 1;
nodes = (
"893 346 LINE",
"897 365 LINE",
"506 365 LINE",
"502 346 LINE"
);
}
);
width = 1005;
},
{
anchors = (
{
name = bottom;
position = "{569, 0}";
},
{
name = ogonek;
position = "{1035, 0}";
},
{
name = top;
position = "{768, 700}";
}
);
layerId = "5DA6E103-6A94-47F2-987D-4952DB8EA68E";
paths = (
{
closed = 1;
nodes = (
"180 0 LINE",
"604 616 LINE",
"439 522 LINE",
"638 522 LINE",
"674 700 LINE",
"430 700 LINE",
"-74 0 LINE"
);
},
{
closed = 1;
nodes = (
"558 122 LINE",
"592 292 LINE",
"227 292 LINE",
"193 122 LINE"
);
},
{
closed = 1;
nodes = (
"1035 0 LINE",
"1071 178 LINE",
"720 178 LINE",
"789 522 LINE",
"1126 522 LINE",
"1162 700 LINE",
"593 700 LINE",
"453 0 LINE"
);
},
{
closed = 1;
nodes = (
"1035 270 LINE",
"1069 440 LINE",
"757 440 LINE",
"723 270 LINE"
);
}
);
width = 1124;
},
{
anchors = (
{
name = bottom;
position = "{490, 0}";
},
{
name = ogonek;
position = "{948, 0}";
},
{
name = top;
position = "{697, 700}";
}
);
layerId = "C4221BDF-4AE8-4E40-821A-B2476087DE1A";
paths = (
{
closed = 1;
nodes = (
"71 0 LINE",
"575 652 LINE",
"494 604 LINE",
"594 604 LINE",
"611 700 LINE",
"490 700 LINE",
"-57 0 LINE"
);
},
{
closed = 1;
nodes = (
"506 168 LINE",
"523 260 LINE",
"188 260 LINE",
"165 168 LINE"
);
},
{
closed = 1;
nodes = (
"948 0 LINE",
"968 99 LINE",
"566 99 LINE",
"666 601 LINE",
"1054 601 LINE",
"1074 700 LINE",
"573 700 LINE",
"433 0 LINE"
);
},
{
closed = 1;
nodes = (
"952 307 LINE",
"972 404 LINE",
"618 404 LINE",
"597 307 LINE"
);
}
);
width = 1055;
}
);
leftKerningGroup = A;
rightKerningGroup = E;
rightMetricsKey = E;
unicode = 00C6;
},
{
glyphname = B;
layers = (
{
anchors = (
{
name = bottom;
position = "{325, 0}";
},
{
name = hook.af;
position = "{221, 700}";
},
{
name = top;
position = "{465, 700}";
}
);
layerId = UUID0;
paths = (
{
closed = 1;
nodes = (
"382 0 LINE SMOOTH",
"567 0 OFFCURVE",
"672 77 OFFCURVE",
"672 214 CURVE SMOOTH",
"672 314 OFFCURVE",
"596 362 OFFCURVE",
"471 362 CURVE",
"452 351 LINE",
"589 351 OFFCURVE",
"701 421 OFFCURVE",
"701 559 CURVE SMOOTH",
"701 652 OFFCURVE",
"623 700 OFFCURVE",
"498 700 CURVE SMOOTH",
"221 700 LINE",
"81 0 LINE"
);
},
{
closed = 1;
nodes = (
"237 681 LINE",
"498 681 LINE SMOOTH",
"614 681 OFFCURVE",
"681 639 OFFCURVE",
"681 556 CURVE SMOOTH",
"681 430 OFFCURVE",
"577 365 OFFCURVE",
"435 365 CURVE SMOOTH",
"169 365 LINE",
"165 346 LINE",
"455 346 LINE SMOOTH",
"585 346 OFFCURVE",
"652 308 OFFCURVE",
"652 212 CURVE SMOOTH",
"652 88 OFFCURVE",
"557 19 OFFCURVE",
"386 19 CURVE SMOOTH",
"105 19 LINE"
);
}
);
width = 748;
},
{
anchors = (
{
name = bottom;
position = "{327, 0}";
},
{
name = hook.af;
position = "{142, 700}";
},
{
name = top;
position = "{467, 700}";
}
);
layerId = "5DA6E103-6A94-47F2-987D-4952DB8EA68E";
paths = (
{
closed = 1;
nodes = (
"406 0 LINE SMOOTH",
"585 0 OFFCURVE",
"733 68 OFFCURVE",
"733 223 CURVE SMOOTH",
"733 325 OFFCURVE",
"646 385 OFFCURVE",
"503 385 CURVE",
"473 331 LINE",
"643 331 OFFCURVE",
"764 403 OFFCURVE",
"764 533 CURVE SMOOTH",
"764 639 OFFCURVE",
"679 700 OFFCURVE",
"513 700 CURVE SMOOTH",
"142 700 LINE",
"2 0 LINE"
);
},
{
closed = 1;
nodes = (
"341 535 LINE",
"456 535 LINE SMOOTH",
"495 535 OFFCURVE",
"518 521 OFFCURVE",
"518 492 CURVE SMOOTH",
"518 454 OFFCURVE",
"494 431 OFFCURVE",
"440 431 CURVE SMOOTH",
"304 431 LINE",
"273 275 LINE",
"441 275 LINE SMOOTH",
"472 275 OFFCURVE",
"499 260 OFFCURVE",
"499 229 CURVE SMOOTH",
"499 186 OFFCURVE",
"465 165 OFFCURVE",
"419 165 CURVE SMOOTH",
"267 165 LINE"
);
}
);
width = 773;
},
{
anchors = (
{
name = bottom;
position = "{324, 0}";
},
{
name = hook.af;
position = "{187, 700}";
},
{
name = top;
position = "{464, 700}";
}
);
layerId = "C4221BDF-4AE8-4E40-821A-B2476087DE1A";
paths = (
{
closed = 1;
nodes = (
"390 0 LINE SMOOTH",
"573 0 OFFCURVE",
"697 73 OFFCURVE",
"697 220 CURVE SMOOTH",
"697 320 OFFCURVE",
"628 374 OFFCURVE",
"528 374 CURVE",
"504 342 LINE",
"616 342 OFFCURVE",
"727 412 OFFCURVE",
"727 544 CURVE SMOOTH",
"727 646 OFFCURVE",
"645 700 OFFCURVE",
"503 700 CURVE SMOOTH",
"187 700 LINE",
"47 0 LINE"
);
},
{
closed = 1;
nodes = (
"282 607 LINE",
"478 607 LINE SMOOTH",
"560 607 OFFCURVE",
"608 582 OFFCURVE",
"608 525 CURVE SMOOTH",
"608 442 OFFCURVE",
"539 401 OFFCURVE",
"435 401 CURVE SMOOTH",
"222 401 LINE",
"204 308 LINE",
"447 308 LINE SMOOTH",
"534 308 OFFCURVE",
"583 285 OFFCURVE",
"583 219 CURVE SMOOTH",
"583 136 OFFCURVE",
"515 93 OFFCURVE",
"398 93 CURVE SMOOTH",
"180 93 LINE"
);
}
);
width = 759;
}
);
leftKerningGroup = H;
leftMetricsKey = H;
rightKerningGroup = B;
unicode = 0042;
},
{
glyphname = "Beta-latin";
layers = (
{
anchors = (
{
name = bottom;
position = "{328, 0}";
},
{
name = hook.af;
position = "{224, 700}";
},
{
name = top;
position = "{468, 700}";
}
);
layerId = UUID0;
paths = (
{
closed = 1;
nodes = (
"94 0 LINE",
"383 0 LINE SMOOTH",
"568 0 OFFCURVE",
"673 77 OFFCURVE",
"673 214 CURVE SMOOTH",
"673 314 OFFCURVE",
"597 362 OFFCURVE",
"472 362 CURVE",
"453 351 LINE",
"590 351 OFFCURVE",
"702 421 OFFCURVE",
"702 559 CURVE SMOOTH",
"702 652 OFFCURVE",
"624 700 OFFCURVE",
"499 700 CURVE SMOOTH",
"222 700 LINE",
"43 -194 LINE",
"65 -194 LINE",
"238 681 LINE",
"499 681 LINE SMOOTH",
"615 681 OFFCURVE",
"682 639 OFFCURVE",
"682 556 CURVE SMOOTH",
"682 430 OFFCURVE",
"578 365 OFFCURVE",
"436 365 CURVE SMOOTH",
"170 365 LINE",
"166 346 LINE",
"456 346 LINE SMOOTH",
"586 346 OFFCURVE",
"653 308 OFFCURVE",
"653 212 CURVE SMOOTH",
"653 88 OFFCURVE",
"558 19 OFFCURVE",
"387 19 CURVE SMOOTH",
"94 19 LINE"
);
}
);
width = 749;
},
{
anchors = (
{
name = bottom;
position = "{328, 0}";
},
{
name = hook.af;
position = "{189, 700}";
},
{
name = top;
position = "{468, 700}";
}
);
layerId = "C4221BDF-4AE8-4E40-821A-B2476087DE1A";
paths = (
{
closed = 1;
nodes = (
"116 0 LINE",
"390 0 LINE SMOOTH",
"573 0 OFFCURVE",
"697 73 OFFCURVE",
"697 220 CURVE SMOOTH",
"697 320 OFFCURVE",
"628 374 OFFCURVE",
"528 374 CURVE",
"504 342 LINE",
"616 342 OFFCURVE",
"727 412 OFFCURVE",
"727 544 CURVE SMOOTH",
"727 646 OFFCURVE",
"645 700 OFFCURVE",
"503 700 CURVE SMOOTH",
"187 700 LINE",
"8 -194 LINE",
"122 -194 LINE",
"282 607 LINE",
"478 607 LINE SMOOTH",
"560 607 OFFCURVE",
"608 582 OFFCURVE",
"608 525 CURVE SMOOTH",
"608 442 OFFCURVE",
"539 401 OFFCURVE",
"435 401 CURVE SMOOTH",
"222 401 LINE",
"204 308 LINE",
"447 308 LINE SMOOTH",
"534 308 OFFCURVE",
"583 285 OFFCURVE",
"583 219 CURVE SMOOTH",
"583 136 OFFCURVE",
"515 93 OFFCURVE",
"398 93 CURVE SMOOTH",
"116 93 LINE"
);
}
);
width = 759;
},
{
anchors = (
{
name = bottom;
position = "{337, 0}";
},
{
name = hook.af;
position = "{152, 700}";
},
{
name = top;
position = "{477, 700}";
}
);
layerId = "5DA6E103-6A94-47F2-987D-4952DB8EA68E";
paths = (
{
closed = 1;
nodes = (
"113 0 LINE",
"407 0 LINE SMOOTH",
"586 0 OFFCURVE",
"734 68 OFFCURVE",
"734 223 CURVE SMOOTH",
"734 325 OFFCURVE",
"647 385 OFFCURVE",
"504 385 CURVE",
"474 331 LINE",
"644 331 OFFCURVE",
"765 403 OFFCURVE",
"765 533 CURVE SMOOTH",
"765 639 OFFCURVE",
"680 700 OFFCURVE",
"514 700 CURVE SMOOTH",
"143 700 LINE",
"-36 -194 LINE",
"197 -194 LINE",
"342 535 LINE",
"457 535 LINE SMOOTH",
"496 535 OFFCURVE",
"519 521 OFFCURVE",
"519 492 CURVE SMOOTH",
"519 454 OFFCURVE",
"495 431 OFFCURVE",
"441 431 CURVE SMOOTH",
"305 431 LINE",
"274 275 LINE",
"442 275 LINE SMOOTH",
"473 275 OFFCURVE",
"500 260 OFFCURVE",
"500 229 CURVE SMOOTH",
"500 186 OFFCURVE",
"466 165 OFFCURVE",
"420 165 CURVE SMOOTH",
"113 165 LINE"
);
}
);
width = 774;
}
);
leftKerningGroup = H;
leftMetricsKey = H;
rightKerningGroup = B;
rightMetricsKey = B;
unicode = A7B4;
},
{
glyphname = Bstroke;
layers = (
{
anchors = (
{
name = bottom;
position = "{325, 0}";
},
{
name = hook.af;
position = "{221, 700}";
},
{
name = top;
position = "{465, 700}";
}
);
layerId = UUID0;
paths = (
{
closed = 1;
nodes = (
"378 0 LINE SMOOTH",
"548 0 OFFCURVE",
"644 65 OFFCURVE",
"668 183 CURVE SMOOTH",
"691 301 OFFCURVE",
"623 363 OFFCURVE",
"462 363 CURVE",
"442 350 LINE",
"572 350 OFFCURVE",
"674 406 OFFCURVE",
"698 523 CURVE SMOOTH",
"721 640 OFFCURVE",
"642 700 OFFCURVE",
"498 700 CURVE SMOOTH",
"221 700 LINE",
"81 0 LINE"
);
},
{
closed = 1;
nodes = (
"124 176 LINE",
"133 176 LINE",
"306 176 LINE",
"310 195 LINE",
"137 195 LINE",
"128 195 LINE",
"1 195 LINE",
"-3 176 LINE"
);
},
{
closed = 1;
nodes = (
"237 681 LINE",
"498 681 LINE SMOOTH",
"631 681 OFFCURVE",
"699 627 OFFCURVE",
"678 523 CURVE SMOOTH",
"657 419 OFFCURVE",
"568 365 OFFCURVE",
"435 365 CURVE SMOOTH",
"169 365 LINE",
"165 346 LINE",
"451 346 LINE SMOOTH",
"600 346 OFFCURVE",
"670 296 OFFCURVE",
"648 183 CURVE SMOOTH",
"625 70 OFFCURVE",
"535 19 OFFCURVE",
"386 19 CURVE SMOOTH",
"105 19 LINE"
);
}
);
width = 745;
},
{
anchors = (
{
name = bottom;
position = "{347, 0}";
},
{
name = hook.af;
position = "{208, 700}";
},
{
name = top;
position = "{487, 700}";
}
);
layerId = "C4221BDF-4AE8-4E40-821A-B2476087DE1A";
paths = (
{
closed = 1;
nodes = (
"409 0 LINE SMOOTH",
"587 0 OFFCURVE",
"693 63 OFFCURVE",
"717 183 CURVE SMOOTH",
"738 290 OFFCURVE",
"665 376 OFFCURVE",
"555 376 CURVE",
"531 343 LINE",
"625 343 OFFCURVE",
"724 396 OFFCURVE",
"746 508 CURVE SMOOTH",
"769 620 OFFCURVE",
"693 700 OFFCURVE",
"529 700 CURVE SMOOTH",
"208 700 LINE",
"68 0 LINE"
);
},
{
closed = 1;
nodes = (
"138 158 LINE",
"162 158 LINE",
"363 158 LINE",
"380 246 LINE",
"179 246 LINE",
"155 246 LINE",
"16 246 LINE",
"-1 158 LINE"
);
},
{
closed = 1;
nodes = (
"303 607 LINE",
"498 607 LINE SMOOTH",
"594 607 OFFCURVE",
"642 573 OFFCURVE",
"629 504 CURVE SMOOTH",
"615 435 OFFCURVE",
"554 404 OFFCURVE",
"458 404 CURVE SMOOTH",
"254 404 LINE",
"235 311 LINE",
"465 311 LINE SMOOTH",
"569 311 OFFCURVE",
"619 275 OFFCURVE",
"604 200 CURVE SMOOTH",
"589 125 OFFCURVE",
"525 93 OFFCURVE",
"421 93 CURVE SMOOTH",
"200 93 LINE"
);
}
);
width = 782;
},
{
anchors = (
{
name = bottom;
position = "{347, 0}";
},
{
name = hook.af;
position = "{162, 700}";
},
{
name = top;
position = "{487, 700}";
}
);
layerId = "5DA6E103-6A94-47F2-987D-4952DB8EA68E";
paths = (
{
closed = 1;
nodes = (
"416 0 LINE SMOOTH",
"609 0 OFFCURVE",
"727 71 OFFCURVE",
"751 193 CURVE SMOOTH",
"775 315 OFFCURVE",
"687 387 OFFCURVE",
"524 390 CURVE",
"494 340 LINE",
"656 333 OFFCURVE",
"761 401 OFFCURVE",
"783 507 CURVE SMOOTH",
"804 613 OFFCURVE",
"729 700 OFFCURVE",
"536 700 CURVE SMOOTH",
"162 700 LINE",
"22 0 LINE"
);
},
{
closed = 1;
nodes = (
"148 167 LINE",
"194 182 LINE",
"387 182 LINE",
"404 272 LINE",
"211 272 LINE",
"172 287 LINE",
"8 287 LINE",
"-16 167 LINE"
);
},
{
closed = 1;
nodes = (
"361 535 LINE",
"471 535 LINE SMOOTH",
"524 535 OFFCURVE",
"545 517 OFFCURVE",
"538 483 CURVE SMOOTH",
"531 449 OFFCURVE",
"503 431 OFFCURVE",
"450 431 CURVE SMOOTH",
"324 431 LINE",
"297 294 LINE",
"455 294 LINE SMOOTH",
"507 294 OFFCURVE",
"528 269 OFFCURVE",
"520 226 CURVE SMOOTH",
"512 187 OFFCURVE",
"480 160 OFFCURVE",
"428 160 CURVE SMOOTH",
"286 160 LINE"
);
}
);
width = 792;
}
);
leftKerningGroup = Bstroke;
rightKerningGroup = B;
rightMetricsKey = B;
unicode = 0243;
},
{
glyphname = Btopbar;
layers = (
{
anchors = (
{
name = bottom;
position = "{325, 0}";
},
{
name = hook.af;
position = "{221, 700}";
},
{
name = top;
position = "{465, 700}";
}
);
layerId = UUID0;
paths = (
{
closed = 1;
nodes = (
"378 0 LINE SMOOTH",
"553 0 OFFCURVE",
"675 84 OFFCURVE",
"675 230 CURVE SMOOTH",
"675 333 OFFCURVE",
"611 386 OFFCURVE",
"466 386 CURVE SMOOTH",
"173 386 LINE",
"169 367 LINE",
"455 367 LINE SMOOTH",
"591 367 OFFCURVE",
"655 329 OFFCURVE",
"655 229 CURVE SMOOTH",
"655 96 OFFCURVE",
"543 19 OFFCURVE",
"386 19 CURVE SMOOTH",
"105 19 LINE",
"237 681 LINE",
"712 681 LINE",
"716 700 LINE",
"221 700 LINE",
"81 0 LINE"
);
}
);
width = 748;
},
{
anchors = (
{
name = bottom;
position = "{327, 0}";
},
{
name = hook.af;
position = "{142, 700}";
},
{
name = top;
position = "{467, 700}";
}
);
layerId = "5DA6E103-6A94-47F2-987D-4952DB8EA68E";
paths = (
{
closed = 1;
nodes = (
"406 0 LINE SMOOTH",
"586 0 OFFCURVE",
"733 80 OFFCURVE",
"733 242 CURVE SMOOTH",
"733 367 OFFCURVE",
"646 429 OFFCURVE",
"503 430 CURVE SMOOTH",
"304 431 LINE",
"273 275 LINE",
"441 275 LINE SMOOTH",
"472 275 OFFCURVE",
"499 261 OFFCURVE",
"499 226 CURVE SMOOTH",
"499 187 OFFCURVE",
"465 165 OFFCURVE",
"419 165 CURVE SMOOTH",
"267 165 LINE",
"341 535 LINE",
"734 535 LINE",
"767 700 LINE",
"142 700 LINE",
"2 0 LINE"
);
}
);
width = 773;
},
{
anchors = (
{
name = bottom;
position = "{324, 0}";
},
{
name = hook.af;
position = "{187, 700}";
},
{
name = top;
position = "{464, 700}";
}
);
layerId = "C4221BDF-4AE8-4E40-821A-B2476087DE1A";
paths = (
{
closed = 1;
nodes = (
"388 0 LINE SMOOTH",
"570 0 OFFCURVE",
"699 84 OFFCURVE",
"699 230 CURVE SMOOTH",
"699 353 OFFCURVE",
"607 406 OFFCURVE",
"463 406 CURVE SMOOTH",
"233 406 LINE",
"215 313 LINE",
"445 313 LINE SMOOTH",
"540 313 OFFCURVE",
"584 287 OFFCURVE",
"584 222 CURVE SMOOTH",
"584 141 OFFCURVE",
"514 93 OFFCURVE",
"401 93 CURVE SMOOTH",
"180 93 LINE",
"282 607 LINE",
"716 607 LINE",
"735 700 LINE",
"187 700 LINE",
"47 0 LINE"
);
}
);
width = 759;
}
);
leftKerningGroup = H;
leftMetricsKey = H;
rightKerningGroup = B;
unicode = 0182;
},
{
glyphname = C;
layers = (
{
anchors = (
{
name = bottom;
position = "{366, 0}";
},
{
name = top;
position = "{495, 700}";
}
);
layerId = UUID0;
paths = (
{
closed = 1;
nodes = (
"491 -3 OFFCURVE",
"586 32 OFFCURVE",
"644 86 CURVE",
"632 102 LINE",
"573 47 OFFCURVE",
"491 16 OFFCURVE",
"388 16 CURVE SMOOTH",
"192 16 OFFCURVE",
"91 123 OFFCURVE",
"91 280 CURVE SMOOTH",
"91 499 OFFCURVE",
"246 684 OFFCURVE",
"490 684 CURVE SMOOTH",
"591 684 OFFCURVE",
"665 656 OFFCURVE",
"713 602 CURVE",
"727 615 LINE",
"680 671 OFFCURVE",
"597 703 OFFCURVE",
"492 703 CURVE SMOOTH",
"229 703 OFFCURVE",
"71 504 OFFCURVE",
"71 280 CURVE SMOOTH",
"71 111 OFFCURVE",
"182 -3 OFFCURVE",
"386 -3 CURVE SMOOTH"
);
}
);
width = 711;
},
{
anchors = (
{
name = bottom;
position = "{347, 0}";
},
{
name = top;
position = "{502, 700}";
}
);
layerId = "5DA6E103-6A94-47F2-987D-4952DB8EA68E";
paths = (
{
closed = 1;
nodes = (
"529 -16 OFFCURVE",
"633 19 OFFCURVE",
"718 123 CURVE",
"579 256 LINE",
"531 198 OFFCURVE",
"478 175 OFFCURVE",
"423 175 CURVE SMOOTH",
"336 175 OFFCURVE",
"279 230 OFFCURVE",
"279 312 CURVE SMOOTH",
"279 437 OFFCURVE",
"357 525 OFFCURVE",
"468 525 CURVE SMOOTH",
"532 525 OFFCURVE",
"578 495 OFFCURVE",
"608 443 CURVE",
"778 576 LINE",
"727 666 OFFCURVE",
"617 716 OFFCURVE",
"483 716 CURVE SMOOTH",
"224 716 OFFCURVE",
"41 543 OFFCURVE",
"41 297 CURVE SMOOTH",
"41 111 OFFCURVE",
"183 -16 OFFCURVE",
"400 -16 CURVE SMOOTH"
);
}
);
width = 744;
},
{
anchors = (
{
name = bottom;
position = "{358, 0}";
},
{
name = top;
position = "{498, 700}";
}
);
layerId = "C4221BDF-4AE8-4E40-821A-B2476087DE1A";
paths = (
{
closed = 1;
nodes = (
"509 -9 OFFCURVE",
"610 26 OFFCURVE",
"676 100 CURVE",
"609 175 LINE",
"555 120 OFFCURVE",
"485 93 OFFCURVE",
"403 93 CURVE SMOOTH",
"252 93 OFFCURVE",
"173 174 OFFCURVE",
"173 295 CURVE SMOOTH",
"173 464 OFFCURVE",
"290 607 OFFCURVE",
"480 607 CURVE SMOOTH",
"565 607 OFFCURVE",
"627 578 OFFCURVE",
"667 525 CURVE",
"749 596 LINE",
"701 669 OFFCURVE",
"606 709 OFFCURVE",
"488 709 CURVE SMOOTH",
"227 709 OFFCURVE",
"58 523 OFFCURVE",
"58 288 CURVE SMOOTH",
"58 112 OFFCURVE",
"183 -9 OFFCURVE",
"395 -9 CURVE SMOOTH"
);
}
);
width = 725;
}
);
leftKerningGroup = O;
leftMetricsKey = O;
rightKerningGroup = C;
unicode = 0043;
},
{
glyphname = Cbar;
layers = (
{
anchors = (
{
name = bottom;
position = "{441, 0}";
},
{
name = top;
position = "{570, 700}";
}
);
layerId = UUID0;
paths = (
{
closed = 1;
nodes = (
"566 -3 OFFCURVE",
"661 32 OFFCURVE",
"719 86 CURVE",
"707 102 LINE",
"648 47 OFFCURVE",
"566 16 OFFCURVE",
"463 16 CURVE SMOOTH",
"267 16 OFFCURVE",
"166 123 OFFCURVE",
"166 280 CURVE SMOOTH",
"166 499 OFFCURVE",
"321 684 OFFCURVE",
"565 684 CURVE SMOOTH",
"666 684 OFFCURVE",
"740 656 OFFCURVE",
"788 602 CURVE",
"802 615 LINE",
"755 671 OFFCURVE",
"672 703 OFFCURVE",
"567 703 CURVE SMOOTH",
"304 703 OFFCURVE",
"146 504 OFFCURVE",
"146 280 CURVE SMOOTH",
"146 111 OFFCURVE",
"257 -3 OFFCURVE",
"461 -3 CURVE SMOOTH"
);
},
{
closed = 1;
nodes = (
"362 345 LINE",
"366 364 LINE",
"36 364 LINE",
"32 345 LINE"
);
}
);
width = 786;
},
{
anchors = (
{
name = bottom;
position = "{427, 0}";
},
{
name = top;
position = "{567, 700}";
}
);
layerId = "C4221BDF-4AE8-4E40-821A-B2476087DE1A";
paths = (
{
closed = 1;
nodes = (
"578 -9 OFFCURVE",
"679 26 OFFCURVE",
"745 100 CURVE",
"678 175 LINE",
"624 120 OFFCURVE",
"554 93 OFFCURVE",
"472 93 CURVE SMOOTH",
"321 93 OFFCURVE",
"242 174 OFFCURVE",
"242 295 CURVE SMOOTH",
"242 464 OFFCURVE",
"359 607 OFFCURVE",
"549 607 CURVE SMOOTH",
"634 607 OFFCURVE",
"696 578 OFFCURVE",
"736 525 CURVE",
"818 596 LINE",
"770 669 OFFCURVE",
"675 709 OFFCURVE",
"557 709 CURVE SMOOTH",
"296 709 OFFCURVE",
"127 523 OFFCURVE",
"127 288 CURVE SMOOTH",
"127 112 OFFCURVE",
"252 -9 OFFCURVE",
"464 -9 CURVE SMOOTH"
);
},
{
closed = 1;
nodes = (
"410 314 LINE",
"427 404 LINE",
"40 404 LINE",
"23 314 LINE"
);
}
);
width = 794;
},
{
anchors = (
{
name = bottom;
position = "{399, 0}";
},
{
name = top;
position = "{554, 700}";
}
);
layerId = "5DA6E103-6A94-47F2-987D-4952DB8EA68E";
paths = (
{
closed = 1;
nodes = (
"581 -16 OFFCURVE",
"685 19 OFFCURVE",
"770 123 CURVE",
"631 256 LINE",
"583 198 OFFCURVE",
"530 175 OFFCURVE",
"475 175 CURVE SMOOTH",
"388 175 OFFCURVE",
"331 230 OFFCURVE",
"331 312 CURVE SMOOTH",
"331 437 OFFCURVE",
"409 525 OFFCURVE",
"520 525 CURVE SMOOTH",
"584 525 OFFCURVE",
"630 495 OFFCURVE",
"660 443 CURVE",
"830 576 LINE",
"779 666 OFFCURVE",
"669 716 OFFCURVE",
"535 716 CURVE SMOOTH",
"276 716 OFFCURVE",
"93 543 OFFCURVE",
"93 297 CURVE SMOOTH",
"93 111 OFFCURVE",
"235 -16 OFFCURVE",
"452 -16 CURVE SMOOTH"
);
},
{
closed = 1;
nodes = (
"446 287 LINE",
"473 423 LINE",
"40 423 LINE",
"13 287 LINE"
);
}
);
width = 796;
}
);
leftKerningGroup = Cbar;
rightKerningGroup = C;
rightMetricsKey = C;
unicode = A792;
},
{
glyphname = "Chi-latin";
layers = (
{
layerId = UUID0;
paths = (
{
closed = 1;
nodes = (
"558 -140 LINE",
"515 -183 OFFCURVE",
"448 -207 OFFCURVE",
"418 -119 CURVE SMOOTH",
"281 278 LINE",
"279 283 LINE",
"156 639 LINE SMOOTH",
"127 724 OFFCURVE",
"50 716 OFFCURVE",
"-10 659 CURVE",
"1 646 LINE",
"45 689 OFFCURVE",
"110 713 OFFCURVE",
"140 625 CURVE SMOOTH",
"264 266 LINE",
"267 259 LINE",
"402 -133 LINE SMOOTH",
"431 -218 OFFCURVE",
"509 -210 OFFCURVE",
"570 -153 CURVE"
);
},
{
closed = 1;
nodes = (
"-77 -194 LINE",
"275 258 LINE",
"281 266 LINE",
"624 702 LINE",
"598 702 LINE",
"272 282 LINE",
"267 278 LINE",
"-103 -194 LINE"
);
}
);
userData = {
RMXScaler = {
height = 128;
verticalShift = -194;
width = 93;
};
};
width = 562;
},
{
layerId = "C4221BDF-4AE8-4E40-821A-B2476087DE1A";
paths = (
{
closed = 1;
nodes = (
"559 -67 LINE",
"515 -110 OFFCURVE",
"465 -120 OFFCURVE",
"441 -53 CURVE SMOOTH",
"322 287 LINE",
"300 335 LINE",
"208 615 LINE SMOOTH",
"171 735 OFFCURVE",
"48 733 OFFCURVE",
"-54 644 CURVE",
"-12 574 LINE",
"34 616 OFFCURVE",
"85 627 OFFCURVE",
"108 559 CURVE SMOOTH",
"220 241 LINE",
"246 191 LINE",
"342 -109 LINE SMOOTH",
"376 -229 OFFCURVE",
"500 -227 OFFCURVE",
"602 -138 CURVE"
);
},
{
closed = 1;
nodes = (
"-15 -194 LINE",
"289 231 LINE",
"304 231 LINE",
"671 702 LINE",
"539 702 LINE",
"251 303 LINE",
"234 308 LINE",
"-150 -194 LINE"
);
}
);
userData = {
RMXScaler = {
height = 128;
verticalShift = -194;
width = 92;
};
};
width = 553;
},
{
layerId = "5DA6E103-6A94-47F2-987D-4952DB8EA68E";
paths = (
{
closed = 1;
nodes = (
"642 26 LINE",
"595 -16 OFFCURVE",
"567 -9 OFFCURVE",
"552 33 CURVE SMOOTH",
"456 298 LINE",
"407 403 LINE",
"355 585 LINE SMOOTH",
"308 750 OFFCURVE",
"126 756 OFFCURVE",
"-30 625 CURVE",
"53 481 LINE",
"100 523 OFFCURVE",
"133 516 OFFCURVE",
"148 474 CURVE SMOOTH",
"244 209 LINE",
"299 104 LINE",
"345 -78 LINE SMOOTH",
"387 -244 OFFCURVE",
"569 -249 OFFCURVE",
"725 -118 CURVE"
);
},
{
closed = 1;
nodes = (
"145 -194 LINE",
"387 197 LINE",
"414 186 LINE",
"812 702 LINE",
"543 702 LINE",
"304 329 LINE",
"272 346 LINE",
"-129 -194 LINE"
);
}
);
userData = {
RMXScaler = {
height = 128;
verticalShift = -194;
width = 97;
};
};
width = 703;
}
);
leftKerningGroup = "Chi-latin";
rightKerningGroup = "Chi-latin";
rightMetricsKey = "=|";
unicode = A7B3;
userData = {
RMXScaler = {
source = X;
};
};
},
{
glyphname = Chook;
layers = (
{
anchors = (
{
name = bottom;
position = "{372, 0}";
},
{
name = top;
position = "{523, 703}";
}
);
layerId = UUID0;
paths = (
{
closed = 1;
nodes = (
"507 -3 OFFCURVE",
"602 32 OFFCURVE",
"660 86 CURVE",
"648 102 LINE",
"589 47 OFFCURVE",
"507 16 OFFCURVE",
"404 16 CURVE SMOOTH",
"208 16 OFFCURVE",
"107 123 OFFCURVE",
"107 280 CURVE SMOOTH",
"107 499 OFFCURVE",
"262 684 OFFCURVE",
"506 684 CURVE SMOOTH",
"607 684 OFFCURVE",
"681 656 OFFCURVE",
"729 602 CURVE",
"743 615 LINE",
"696 671 OFFCURVE",
"613 703 OFFCURVE",
"508 703 CURVE SMOOTH",
"245 703 OFFCURVE",
"87 504 OFFCURVE",
"87 280 CURVE SMOOTH",
"87 111 OFFCURVE",
"198 -3 OFFCURVE",
"402 -3 CURVE SMOOTH"
);
},
{
closed = 1;
nodes = (
"743 615 LINE",
"757 685 LINE SMOOTH",
"774 772 OFFCURVE",
"840 810 OFFCURVE",
"906 770 CURVE",
"915 787 LINE",
"843 830 OFFCURVE",
"758 795 OFFCURVE",
"737 687 CURVE SMOOTH",
"723 615 LINE"
);
}
);
width = 729;
},
{
anchors = (
{
name = bottom;
position = "{319, 0}";
},
{
name = top;
position = "{459, 700}";
}
);
layerId = "C4221BDF-4AE8-4E40-821A-B2476087DE1A";
paths = (
{
closed = 1;
nodes = (
"515 -9 OFFCURVE",
"616 26 OFFCURVE",
"682 100 CURVE",
"615 175 LINE",
"561 120 OFFCURVE",
"491 93 OFFCURVE",
"409 93 CURVE SMOOTH",
"258 93 OFFCURVE",
"179 174 OFFCURVE",
"179 295 CURVE SMOOTH",
"179 464 OFFCURVE",
"296 607 OFFCURVE",
"486 607 CURVE SMOOTH",
"571 607 OFFCURVE",
"633 578 OFFCURVE",
"673 525 CURVE",
"755 596 LINE",
"707 668 OFFCURVE",
"612 709 OFFCURVE",
"494 709 CURVE SMOOTH",
"233 709 OFFCURVE",
"64 523 OFFCURVE",
"64 288 CURVE SMOOTH",
"64 112 OFFCURVE",
"189 -9 OFFCURVE",
"401 -9 CURVE SMOOTH"
);
},
{
closed = 1;
nodes = (
"755 596 LINE",
"765 650 LINE SMOOTH",
"778 718 OFFCURVE",
"829 749 OFFCURVE",
"887 733 CURVE",
"913 820 LINE",
"816 855 OFFCURVE",
"687 798 OFFCURVE",
"664 672 CURVE SMOOTH",
"650 596 LINE"
);
}
);
width = 722;
},
{
anchors = (
{
name = bottom;
position = "{332, 0}";
},
{
name = top;
position = "{498, 701}";
}
);
layerId = "5DA6E103-6A94-47F2-987D-4952DB8EA68E";
paths = (
{
closed = 1;
nodes = (
"526 -16 OFFCURVE",
"630 19 OFFCURVE",
"715 123 CURVE",
"576 256 LINE",
"528 198 OFFCURVE",
"475 175 OFFCURVE",
"420 175 CURVE SMOOTH",
"333 175 OFFCURVE",
"276 230 OFFCURVE",
"276 312 CURVE SMOOTH",
"276 437 OFFCURVE",
"354 525 OFFCURVE",
"465 525 CURVE SMOOTH",
"529 525 OFFCURVE",
"575 495 OFFCURVE",
"605 443 CURVE",
"775 576 LINE",
"724 666 OFFCURVE",
"614 716 OFFCURVE",
"480 716 CURVE SMOOTH",
"221 716 OFFCURVE",
"38 543 OFFCURVE",
"38 297 CURVE SMOOTH",
"38 111 OFFCURVE",
"180 -16 OFFCURVE",
"397 -16 CURVE SMOOTH"
);
},
{
closed = 1;
nodes = (
"775 576 LINE",
"787 636 LINE SMOOTH",
"796 681 OFFCURVE",
"828 700 OFFCURVE",
"872 686 CURVE",
"930 837 LINE",
"760 894 OFFCURVE",
"642 820 OFFCURVE",
"616 683 CURVE SMOOTH",
"596 576 LINE"
);
}
);
width = 757;
}
);
leftKerningGroup = O;
rightKerningGroup = C;
unicode = 0187;
},
{
glyphname = Cstroke;
layers = (
{
anchors = (
{
name = bottom;
position = "{357, 0}";
},
{
name = top;
position = "{508, 700}";
}
);
layerId = UUID0;
paths = (
{
closed = 1;
nodes = (
"137 -70 LINE",
"715 770 LINE",
"692 770 LINE",
"114 -70 LINE"
);
},
{
closed = 1;
nodes = (
"491 -3 OFFCURVE",
"586 32 OFFCURVE",
"644 86 CURVE",
"632 102 LINE",
"573 47 OFFCURVE",
"491 16 OFFCURVE",
"388 16 CURVE SMOOTH",
"192 16 OFFCURVE",
"91 123 OFFCURVE",
"91 280 CURVE SMOOTH",
"91 499 OFFCURVE",
"246 684 OFFCURVE",
"490 684 CURVE SMOOTH",
"591 684 OFFCURVE",
"665 656 OFFCURVE",
"713 602 CURVE",
"727 615 LINE",
"680 671 OFFCURVE",
"597 703 OFFCURVE",
"492 703 CURVE SMOOTH",
"229 703 OFFCURVE",
"71 504 OFFCURVE",
"71 280 CURVE SMOOTH",
"71 111 OFFCURVE",
"182 -3 OFFCURVE",
"386 -3 CURVE SMOOTH"
);
}
);
width = 711;
},
{
anchors = (
{
name = bottom;
position = "{348, 0}";
},
{
name = top;
position = "{499, 700}";
}
);
layerId = "C4221BDF-4AE8-4E40-821A-B2476087DE1A";
paths = (
{
closed = 1;
nodes = (
"200 -70 LINE",
"745 770 LINE",
"653 770 LINE",
"107 -70 LINE"
);
},
{
closed = 1;
nodes = (
"509 -9 OFFCURVE",
"610 26 OFFCURVE",
"676 100 CURVE",
"609 175 LINE",
"555 120 OFFCURVE",
"485 93 OFFCURVE",
"403 93 CURVE SMOOTH",
"252 93 OFFCURVE",
"173 174 OFFCURVE",
"173 295 CURVE SMOOTH",
"173 464 OFFCURVE",
"290 607 OFFCURVE",
"480 607 CURVE SMOOTH",
"565 607 OFFCURVE",
"627 578 OFFCURVE",
"667 525 CURVE",
"749 596 LINE",
"701 669 OFFCURVE",
"606 709 OFFCURVE",
"488 709 CURVE SMOOTH",
"227 709 OFFCURVE",
"58 523 OFFCURVE",
"58 288 CURVE SMOOTH",
"58 112 OFFCURVE",
"183 -9 OFFCURVE",
"395 -9 CURVE SMOOTH"
);
}
);
width = 725;
},
{
anchors = (
{
name = bottom;
position = "{326, 0}";
},
{
name = top;
position = "{492, 700}";
}
);
guideLines = (
{
position = "{319, 769}";
}
);
layerId = "5DA6E103-6A94-47F2-987D-4952DB8EA68E";
paths = (
{
closed = 1;
nodes = (
"205 -70 LINE",
"769 770 LINE",
"655 770 LINE",
"91 -70 LINE"
);
},
{
closed = 1;
nodes = (
"529 -16 OFFCURVE",
"633 19 OFFCURVE",
"718 123 CURVE",
"579 256 LINE",
"531 198 OFFCURVE",
"478 175 OFFCURVE",
"423 175 CURVE SMOOTH",
"336 175 OFFCURVE",
"279 230 OFFCURVE",
"279 312 CURVE SMOOTH",
"279 437 OFFCURVE",
"357 525 OFFCURVE",
"468 525 CURVE SMOOTH",
"532 525 OFFCURVE",
"578 495 OFFCURVE",
"608 443 CURVE",
"778 576 LINE",
"727 666 OFFCURVE",
"617 716 OFFCURVE",
"483 716 CURVE SMOOTH",
"224 716 OFFCURVE",
"41 543 OFFCURVE",
"41 297 CURVE SMOOTH",
"41 111 OFFCURVE",
"183 -16 OFFCURVE",
"400 -16 CURVE SMOOTH"
);
}
);
width = 744;
}
);
leftKerningGroup = O;
leftMetricsKey = C;
rightKerningGroup = C;
rightMetricsKey = C;
unicode = 023B;
},
{
glyphname = D;
layers = (
{
anchors = (
{
name = bottom;
position = "{344, 0}";
},
{
name = center;
position = "{219, 356}";
},
{
name = hook.af;
position = "{221, 700}";
},
{
name = top;
position = "{479, 699}";
}
);
layerId = UUID0;
paths = (
{
closed = 1;
nodes = (
"357 0 LINE SMOOTH",
"624 0 OFFCURVE",
"793 177 OFFCURVE",
"793 420 CURVE SMOOTH",
"793 587 OFFCURVE",
"681 700 OFFCURVE",
"472 700 CURVE SMOOTH",
"221 700 LINE",
"81 0 LINE"
);
},
{
closed = 1;
nodes = (
"237 681 LINE",
"470 681 LINE SMOOTH",
"673 681 OFFCURVE",
"773 576 OFFCURVE",
"773 420 CURVE SMOOTH",
"773 186 OFFCURVE",
"612 19 OFFCURVE",
"359 19 CURVE SMOOTH",
"105 19 LINE"
);
}
);
width = 826;
},
{
anchors = (
{
name = bottom;
position = "{304, 0}";
},
{
name = center;
position = "{222, 355}";
},
{
name = hook.af;
position = "{142, 700}";
},
{
name = top;
position = "{442, 700}";
}
);
layerId = "5DA6E103-6A94-47F2-987D-4952DB8EA68E";
paths = (
{
closed = 1;
nodes = (
"377 0 LINE SMOOTH",
"632 0 OFFCURVE",
"815 156 OFFCURVE",
"815 403 CURVE SMOOTH",
"815 587 OFFCURVE",
"679 700 OFFCURVE",
"458 700 CURVE SMOOTH",
"142 700 LINE",
"2 0 LINE"
);
},
{
closed = 1;
nodes = (
"341 516 LINE",
"431 516 LINE SMOOTH",
"526 516 OFFCURVE",
"577 470 OFFCURVE",
"577 389 CURVE SMOOTH",
"577 274 OFFCURVE",
"510 184 OFFCURVE",
"385 184 CURVE SMOOTH",
"275 184 LINE"
);
}
);
width = 826;
},
{
anchors = (
{
name = bottom;
position = "{326, 0}";
},
{
name = center;
position = "{220, 356}";
},
{
name = hook.af;
position = "{187, 700}";
},
{
name = top;
position = "{462, 699}";
}
);
layerId = "C4221BDF-4AE8-4E40-821A-B2476087DE1A";
paths = (
{
closed = 1;
nodes = (
"367 0 LINE SMOOTH",
"628 0 OFFCURVE",
"802 164 OFFCURVE",
"802 412 CURVE SMOOTH",
"802 587 OFFCURVE",
"677 700 OFFCURVE",
"465 700 CURVE SMOOTH",
"187 700 LINE",
"47 0 LINE"
);
},
{
closed = 1;
nodes = (
"281 601 LINE",
"453 601 LINE SMOOTH",
"609 601 OFFCURVE",
"687 525 OFFCURVE",
"687 405 CURVE SMOOTH",
"687 229 OFFCURVE",
"567 99 OFFCURVE",
"370 99 CURVE SMOOTH",
"181 99 LINE"
);
}
);
width = 826;
}
);
leftKerningGroup = H;
leftMetricsKey = H;
rightKerningGroup = O;
unicode = 0044;
},
{
glyphname = Dtopbar;
layers = (
{
layerId = UUID0;
paths = (
{
closed = 1;
nodes = (
"553 0 LINE",
"693 700 LINE",
"213 700 LINE",
"209 681 LINE",
"669 681 LINE",
"610 386 LINE",
"304 386 LINE SMOOTH",
"144 386 OFFCURVE",
"67 328 OFFCURVE",
"47 212 CURVE SMOOTH",
"25 79 OFFCURVE",
"110 0 OFFCURVE",
"288 0 CURVE SMOOTH"
);
},
{
closed = 1;
nodes = (
"124 19 OFFCURVE",
"49 87 OFFCURVE",
"67 210 CURVE SMOOTH",
"83 317 OFFCURVE",
"155 367 OFFCURVE",
"308 367 CURVE SMOOTH",
"607 367 LINE",
"537 19 LINE",
"288 19 LINE SMOOTH"
);
}
);
width = 738;
},
{
layerId = "C4221BDF-4AE8-4E40-821A-B2476087DE1A";
paths = (
{
closed = 1;
nodes = (
"600 0 LINE",
"740 700 LINE",
"207 700 LINE",
"187 601 LINE",
"607 601 LINE",
"571 421 LINE",
"317 421 LINE SMOOTH",
"151 421 OFFCURVE",
"56 360 OFFCURVE",
"33 239 CURVE SMOOTH",
"6 97 OFFCURVE",
"102 0 OFFCURVE",
"266 0 CURVE SMOOTH"
);
},
{
closed = 1;
nodes = (
"186 93 OFFCURVE",
"131 147 OFFCURVE",
"148 227 CURVE SMOOTH",
"162 296 OFFCURVE",
"219 328 OFFCURVE",
"329 328 CURVE SMOOTH",
"552 328 LINE",
"505 93 LINE",
"285 93 LINE SMOOTH"
);
}
);
width = 753;
},
{
layerId = "5DA6E103-6A94-47F2-987D-4952DB8EA68E";
paths = (
{
closed = 1;
nodes = (
"654 0 LINE",
"794 700 LINE",
"186 700 LINE",
"153 535 LINE",
"529 535 LINE",
"509 435 LINE",
"314 435 LINE SMOOTH",
"143 435 OFFCURVE",
"36 369 OFFCURVE",
"10 236 CURVE SMOOTH",
"-18 94 OFFCURVE",
"72 0 OFFCURVE",
"257 0 CURVE SMOOTH"
);
},
{
closed = 1;
nodes = (
"261 165 OFFCURVE",
"243 196 OFFCURVE",
"250 230 CURVE SMOOTH",
"257 263 OFFCURVE",
"284 280 OFFCURVE",
"333 280 CURVE SMOOTH",
"478 280 LINE",
"455 165 LINE",
"310 165 LINE SMOOTH"
);
}
);
width = 766;
}
);
leftKerningGroup = Dtopbar;
rightKerningGroup = H;
rightMetricsKey = H;
unicode = 018B;
},
{
glyphname = E;
layers = (
{
anchors = (
{
name = bottom;
position = "{324, 0}";
},
{
name = ogonek;
position = "{547, 0}";
},
{
name = top;
position = "{447, 700}";
},
{
name = topleft;
position = "{129, 700}";
}
);
layerId = UUID0;
paths = (
{
closed = 1;
nodes = (
"165 346 LINE",
"556 346 LINE",
"560 365 LINE",
"169 365 LINE"
);
},
{
closed = 1;
nodes = (
"237 681 LINE",
"668 681 LINE",
"672 700 LINE",
"221 700 LINE",
"81 0 LINE",
"547 0 LINE",
"551 19 LINE",
"105 19 LINE"
);
}
);
width = 668;
},
{
anchors = (
{
name = bottom;
position = "{287, 0}";
},
{
name = ogonek;
position = "{584, 0}";
},
{
name = top;
position = "{427, 700}";
},
{
name = topleft;
position = "{76, 700}";
}
);
layerId = "5DA6E103-6A94-47F2-987D-4952DB8EA68E";
paths = (
{
closed = 1;
nodes = (
"272 270 LINE",
"584 270 LINE",
"618 440 LINE",
"306 440 LINE"
);
},
{
closed = 1;
nodes = (
"338 522 LINE",
"675 522 LINE",
"711 700 LINE",
"142 700 LINE",
"2 0 LINE",
"584 0 LINE",
"620 178 LINE",
"269 178 LINE"
);
}
);
width = 673;
},
{
anchors = (
{
name = bottom;
position = "{308, 0}";
},
{
name = ogonek;
position = "{563, 0}";
},
{
name = top;
position = "{438, 700}";
},
{
name = topleft;
position = "{106, 700}";
}
);
layerId = "C4221BDF-4AE8-4E40-821A-B2476087DE1A";
paths = (
{
closed = 1;
nodes = (
"214 307 LINE",
"568 307 LINE",
"587 404 LINE",
"233 404 LINE"
);
},
{
closed = 1;
nodes = (
"281 601 LINE",
"669 601 LINE",
"689 700 LINE",
"187 700 LINE",
"47 0 LINE",
"563 0 LINE",
"583 99 LINE",
"181 99 LINE"
);
}
);
width = 670;
}
);
leftKerningGroup = H;
leftMetricsKey = H;
rightKerningGroup = E;
unicode = 0045;
},
{
glyphname = Eopen;
layers = (
{
anchors = (
{
name = bottom;
position = "{284, 0}";
},
{
name = ogonek;
position = "{318, 0}";
},
{
name = top;
position = "{424, 700}";
}
);
layerId = UUID0;
paths = (
{
closed = 1;
nodes = (
"397 -3 OFFCURVE",
"502 33 OFFCURVE",
"557 91 CURVE",
"543 106 LINE",
"490 50 OFFCURVE",
"393 16 OFFCURVE",
"283 16 CURVE SMOOTH",
"144 16 OFFCURVE",
"68 71 OFFCURVE",
"68 172 CURVE SMOOTH",
"68 286 OFFCURVE",
"166 356 OFFCURVE",
"323 356 CURVE SMOOTH",
"475 356 LINE",
"479 375 LINE",
"326 375 LINE SMOOTH",
"226 375 OFFCURVE",
"166 421 OFFCURVE",
"166 502 CURVE SMOOTH",
"166 607 OFFCURVE",
"269 684 OFFCURVE",
"418 684 CURVE SMOOTH",
"495 684 OFFCURVE",
"561 664 OFFCURVE",
"619 620 CURVE",
"631 637 LINE",
"575 681 OFFCURVE",
"500 703 OFFCURVE",
"417 703 CURVE SMOOTH",
"255 703 OFFCURVE",
"146 618 OFFCURVE",
"146 501 CURVE SMOOTH",
"146 410 OFFCURVE",
"213 359 OFFCURVE",
"316 359 CURVE",
"314 372 LINE",
"153 372 OFFCURVE",
"48 295 OFFCURVE",
"48 171 CURVE SMOOTH",
"48 59 OFFCURVE",
"134 -3 OFFCURVE",
"283 -3 CURVE SMOOTH"
);
}
);
width = 586;
},
{
anchors = (
{
name = bottom;
position = "{315, 0}";
},
{
name = ogonek;
position = "{401, 0}";
},
{
name = top;
position = "{447, 700}";
}
);
layerId = "C4221BDF-4AE8-4E40-821A-B2476087DE1A";
paths = (
{
closed = 1;
nodes = (
"420 -10 OFFCURVE",
"533 19 OFFCURVE",
"612 71 CURVE",
"576 161 LINE",
"518 118 OFFCURVE",
"412 89 OFFCURVE",
"320 89 CURVE SMOOTH",
"229 89 OFFCURVE",
"152 118 OFFCURVE",
"152 191 CURVE SMOOTH",
"152 271 OFFCURVE",
"220 315 OFFCURVE",
"326 315 CURVE SMOOTH",
"503 315 LINE",
"523 407 LINE",
"360 407 LINE SMOOTH",
"286 407 OFFCURVE",
"246 437 OFFCURVE",
"246 490 CURVE SMOOTH",
"246 573 OFFCURVE",
"335 609 OFFCURVE",
"434 609 CURVE SMOOTH",
"507 609 OFFCURVE",
"585 590 OFFCURVE",
"637 554 CURVE",
"676 645 LINE",
"624 686 OFFCURVE",
"538 708 OFFCURVE",
"449 708 CURVE SMOOTH",
"294 708 OFFCURVE",
"131 640 OFFCURVE",
"131 489 CURVE SMOOTH",
"131 406 OFFCURVE",
"189 348 OFFCURVE",
"274 348 CURVE",
"275 382 LINE",
"138 382 OFFCURVE",
"37 298 OFFCURVE",
"37 178 CURVE SMOOTH",
"37 48 OFFCURVE",
"168 -10 OFFCURVE",
"316 -10 CURVE SMOOTH"
);
}
);
width = 640;
},
{
anchors = (
{
name = bottom;
position = "{324, 0}";
},
{
name = ogonek;
position = "{459, 0}";
},
{
name = top;
position = "{469, 700}";
}
);
layerId = "5DA6E103-6A94-47F2-987D-4952DB8EA68E";
paths = (
{
closed = 1;
nodes = (
"454 -16 OFFCURVE",
"569 9 OFFCURVE",
"645 48 CURVE",
"595 216 LINE",
"534 184 OFFCURVE",
"459 164 OFFCURVE",
"370 164 CURVE SMOOTH",
"283 164 OFFCURVE",
"246 183 OFFCURVE",
"246 217 CURVE SMOOTH",
"246 250 OFFCURVE",
"279 271 OFFCURVE",
"324 271 CURVE SMOOTH",
"534 271 LINE",
"569 441 LINE",
"398 441 LINE SMOOTH",
"347 441 OFFCURVE",
"328 454 OFFCURVE",
"328 478 CURVE SMOOTH",
"328 511 OFFCURVE",
"366 536 OFFCURVE",
"457 536 CURVE SMOOTH",
"512 536 OFFCURVE",
"588 527 OFFCURVE",
"654 498 CURVE",
"729 667 LINE",
"670 697 OFFCURVE",
"576 716 OFFCURVE",
"471 716 CURVE SMOOTH",
"240 716 OFFCURVE",
"92 623 OFFCURVE",
"92 486 CURVE SMOOTH",
"92 402 OFFCURVE",
"148 335 OFFCURVE",
"271 335 CURVE",
"276 387 LINE",
"120 387 OFFCURVE",
"4 309 OFFCURVE",
"4 185 CURVE SMOOTH",
"4 56 OFFCURVE",
"129 -16 OFFCURVE",
"333 -16 CURVE SMOOTH"
);
}
);
width = 673;
}
);
leftKerningGroup = E.ss01;
rightKerningGroup = E;
unicode = 0190;
},
{
glyphname = Ereversed;
layers = (
{
anchors = (
{
name = bottom;
position = "{258, 0}";
},
{
name = top;
position = "{381, 700}";
}
);
layerId = UUID0;
paths = (
{
closed = 1;
nodes = (
"542 365 LINE",
"151 365 LINE",
"147 346 LINE",
"538 346 LINE"
);
},
{
closed = 1;
nodes = (
"468 19 LINE",
"37 19 LINE",
"33 0 LINE",
"484 0 LINE",
"624 700 LINE",
"158 700 LINE",
"154 681 LINE",
"600 681 LINE"
);
}
);
width = 668;
},
{
anchors = (
{
name = bottom;
position = "{266, 0}";
},
{
name = top;
position = "{396, 700}";
}
);
layerId = "C4221BDF-4AE8-4E40-821A-B2476087DE1A";
paths = (
{
closed = 1;
nodes = (
"492 404 LINE",
"138 404 LINE",
"119 307 LINE",
"473 307 LINE"
);
},
{
closed = 1;
nodes = (
"423 99 LINE",
"21 99 LINE",
"1 0 LINE",
"517 0 LINE",
"657 700 LINE",
"155 700 LINE",
"135 601 LINE",
"523 601 LINE"
);
}
);
width = 670;
},
{
anchors = (
{
name = bottom;
position = "{277, 0}";
},
{
name = top;
position = "{417, 700}";
}
);
layerId = "5DA6E103-6A94-47F2-987D-4952DB8EA68E";
paths = (
{
closed = 1;
nodes = (
"432 440 LINE",
"120 440 LINE",
"86 270 LINE",
"398 270 LINE"
);
},
{
closed = 1;
nodes = (
"366 178 LINE",
"29 178 LINE",
"-7 0 LINE",
"562 0 LINE",
"702 700 LINE",
"120 700 LINE",
"84 522 LINE",
"435 522 LINE"
);
}
);
width = 673;
}
);
leftKerningGroup = "Ereversed-cy";
rightKerningGroup = H;
unicode = 018E;
},
{
glyphname = Esh;
layers = (
{
layerId = UUID0;
paths = (
{
closed = 1;
nodes = (
"116 -8 OFFCURVE",
"182 22 OFFCURVE",
"201 113 CURVE SMOOTH",
"299 586 LINE SMOOTH",
"315 664 OFFCURVE",
"369 689 OFFCURVE",
"421 684 CURVE SMOOTH",
"448 681 OFFCURVE",
"474 670 OFFCURVE",
"493 654 CURVE",
"506 672 LINE",
"484 689 OFFCURVE",
"456 700 OFFCURVE",
"426 703 CURVE SMOOTH",
"364 709 OFFCURVE",
"298 679 OFFCURVE",
"279 588 CURVE SMOOTH",
"181 115 LINE SMOOTH",
"165 37 OFFCURVE",
"111 12 OFFCURVE",
"59 17 CURVE SMOOTH",
"32 19 OFFCURVE",
"6 30 OFFCURVE",
"-13 46 CURVE",
"-25 28 LINE",
"-4 12 OFFCURVE",
"24 1 OFFCURVE",
"54 -2 CURVE SMOOTH"
);
}
);
width = 443;
},
{
layerId = "C4221BDF-4AE8-4E40-821A-B2476087DE1A";
paths = (
{
closed = 1;
nodes = (
"164 -15 OFFCURVE",
"271 22 OFFCURVE",
"296 152 CURVE SMOOTH",
"370 537 LINE SMOOTH",
"381 593 OFFCURVE",
"422 613 OFFCURVE",
"463 609 CURVE SMOOTH",
"486 607 OFFCURVE",
"510 597 OFFCURVE",
"527 581 CURVE",
"581 668 LINE",
"559 689 OFFCURVE",
"521 704 OFFCURVE",
"479 709 CURVE SMOOTH",
"390 718 OFFCURVE",
"280 678 OFFCURVE",
"256 549 CURVE SMOOTH",
"183 164 LINE SMOOTH",
"172 108 OFFCURVE",
"130 88 OFFCURVE",
"89 92 CURVE SMOOTH",
"66 94 OFFCURVE",
"42 104 OFFCURVE",
"25 120 CURVE",
"-29 35 LINE",
"-6 13 OFFCURVE",
"33 -2 OFFCURVE",
"76 -7 CURVE SMOOTH"
);
}
);
width = 518;
},
{
layerId = "5DA6E103-6A94-47F2-987D-4952DB8EA68E";
paths = (
{
closed = 1;
nodes = (
"224 -24 OFFCURVE",
"358 25 OFFCURVE",
"399 211 CURVE SMOOTH",
"456 470 LINE SMOOTH",
"463 504 OFFCURVE",
"481 525 OFFCURVE",
"513 521 CURVE SMOOTH",
"528 520 OFFCURVE",
"547 513 OFFCURVE",
"567 499 CURVE",
"651 659 LINE",
"621 686 OFFCURVE",
"568 707 OFFCURVE",
"509 713 CURVE SMOOTH",
"393 724 OFFCURVE",
"259 675 OFFCURVE",
"218 489 CURVE SMOOTH",
"161 230 LINE SMOOTH",
"154 196 OFFCURVE",
"136 176 OFFCURVE",
"104 179 CURVE SMOOTH",
"89 180 OFFCURVE",
"70 187 OFFCURVE",
"50 201 CURVE",
"-34 41 LINE",
"-4 14 OFFCURVE",
"49 -7 OFFCURVE",
"108 -12 CURVE SMOOTH"
);
}
);
width = 587;
}
);
leftKerningGroup = Esh;
rightKerningGroup = Esh;
unicode = 01A9;
},
{
glyphname = Estroke;
layers = (
{
anchors = (
{
name = bottom;
position = "{324, 0}";
},
{
name = ogonek;
position = "{547, 0}";
},
{
name = top;
position = "{447, 700}";
},
{
name = topleft;
position = "{129, 700}";
}
);
layerId = UUID0;
paths = (
{
closed = 1;
nodes = (
"104 -70 LINE",
"662 770 LINE",
"639 770 LINE",
"81 -70 LINE"
);
},
{
closed = 1;
nodes = (
"547 0 LINE",
"551 19 LINE",
"105 19 LINE",
"237 681 LINE",
"668 681 LINE",
"672 700 LINE",
"221 700 LINE",
"81 0 LINE"
);
},
{
closed = 1;
nodes = (
"556 346 LINE",
"560 365 LINE",
"169 365 LINE",
"165 346 LINE"
);
}
);
width = 668;
},
{
anchors = (
{
name = bottom;
position = "{308, 0}";
},
{
name = ogonek;
position = "{563, 0}";
},
{
name = top;
position = "{439, 700}";
},
{
name = topleft;
position = "{106, 700}";
}
);
layerId = "C4221BDF-4AE8-4E40-821A-B2476087DE1A";
paths = (
{
closed = 1;
nodes = (
"163 -70 LINE",
"708 770 LINE",
"616 770 LINE",
"70 -70 LINE"
);
},
{
closed = 1;
nodes = (
"563 0 LINE",
"583 99 LINE",
"181 99 LINE",
"281 601 LINE",
"669 601 LINE",
"689 700 LINE",
"187 700 LINE",
"47 0 LINE"
);
},
{
closed = 1;
nodes = (
"567 307 LINE",
"587 404 LINE",
"233 404 LINE",
"213 307 LINE"
);
}
);
width = 670;
},
{
anchors = (
{
name = bottom;
position = "{287, 0}";
},
{
name = ogonek;
position = "{584, 0}";
},
{
name = top;
position = "{427, 700}";
},
{
name = topleft;
position = "{76, 700}";
}
);
layerId = "5DA6E103-6A94-47F2-987D-4952DB8EA68E";
paths = (
{
closed = 1;
nodes = (
"209 -70 LINE",
"773 770 LINE",
"659 770 LINE",
"95 -70 LINE"
);
},
{
closed = 1;
nodes = (
"584 0 LINE",
"620 178 LINE",
"270 178 LINE",
"339 522 LINE",
"676 522 LINE",
"711 700 LINE",
"142 700 LINE",
"2 0 LINE"
);
},
{
closed = 1;
nodes = (
"584 270 LINE",
"618 440 LINE",
"306 440 LINE",
"272 270 LINE"
);
}
);
width = 679;
}
);
leftKerningGroup = H;
leftMetricsKey = E;
rightKerningGroup = E;
unicode = 0246;
},
{
glyphname = Schwa;
layers = (
{
anchors = (
{
name = bottom;
position = "{357, 0}";
},
{
name = ogonek;
position = "{395, 0}";
},
{
name = top;
position = "{497, 700}";
}
);
layerId = UUID0;
paths = (
{
closed = 1;
nodes = (
"624 -3 OFFCURVE",
"782 196 OFFCURVE",
"782 420 CURVE SMOOTH",
"782 589 OFFCURVE",
"671 703 OFFCURVE",
"477 703 CURVE SMOOTH",
"372 703 OFFCURVE",
"277 668 OFFCURVE",
"222 616 CURVE",
"234 602 LINE",
"290 653 OFFCURVE",
"372 684 OFFCURVE",
"475 684 CURVE SMOOTH",
"661 684 OFFCURVE",
"762 577 OFFCURVE",
"762 420 CURVE SMOOTH",
"762 201 OFFCURVE",
"607 16 OFFCURVE",
"378 16 CURVE SMOOTH",
"200 16 OFFCURVE",
"89 120 OFFCURVE",
"89 275 CURVE SMOOTH",
"89 300 OFFCURVE",
"92 324 OFFCURVE",
"98 350 CURVE",
"87 341 LINE",
"758 341 LINE",
"762 360 LINE",
"79 360 LINE",
"73 327 OFFCURVE",
"69 301 OFFCURVE",
"69 274 CURVE SMOOTH",
"69 112 OFFCURVE",
"183 -3 OFFCURVE",
"376 -3 CURVE SMOOTH"
);
}
);
width = 816;
},
{
anchors = (
{
name = bottom;
position = "{354, 0}";
},
{
name = ogonek;
position = "{494, 0}";
},
{
name = top;
position = "{494, 700}";
}
);
layerId = "5DA6E103-6A94-47F2-987D-4952DB8EA68E";
paths = (
{
closed = 1;
nodes = (
"623 -16 OFFCURVE",
"804 138 OFFCURVE",
"804 393 CURVE SMOOTH",
"804 587 OFFCURVE",
"657 716 OFFCURVE",
"440 716 CURVE SMOOTH",
"322 716 OFFCURVE",
"207 678 OFFCURVE",
"119 604 CURVE",
"228 451 LINE",
"286 500 OFFCURVE",
"352 525 OFFCURVE",
"422 525 CURVE SMOOTH",
"511 525 OFFCURVE",
"567 474 OFFCURVE",
"567 391 CURVE SMOOTH",
"567 318 OFFCURVE",
"542 157 OFFCURVE",
"400 157 CURVE SMOOTH",
"307 157 OFFCURVE",
"270 212 OFFCURVE",
"270 268 CURVE SMOOTH",
"270 284 OFFCURVE",
"272 298 OFFCURVE",
"276 312 CURVE",
"190 268 LINE",
"575 268 LINE",
"601 398 LINE",
"54 398 LINE",
"43 355 OFFCURVE",
"38 314 OFFCURVE",
"38 284 CURVE SMOOTH",
"38 109 OFFCURVE",
"180 -16 OFFCURVE",
"393 -16 CURVE SMOOTH"
);
}
);
width = 818;
},
{
anchors = (
{
name = bottom;
position = "{357, 0}";
},
{
name = ogonek;
position = "{412, 0}";
},
{
name = top;
position = "{497, 700}";
}
);
layerId = "C4221BDF-4AE8-4E40-821A-B2476087DE1A";
paths = (
{
closed = 1;
nodes = (
"629 -9 OFFCURVE",
"793 177 OFFCURVE",
"793 412 CURVE SMOOTH",
"793 588 OFFCURVE",
"675 709 OFFCURVE",
"464 709 CURVE SMOOTH",
"351 709 OFFCURVE",
"247 675 OFFCURVE",
"176 612 CURVE",
"232 528 LINE",
"289 579 OFFCURVE",
"371 607 OFFCURVE",
"455 607 CURVE SMOOTH",
"604 607 OFFCURVE",
"678 525 OFFCURVE",
"678 405 CURVE SMOOTH",
"678 236 OFFCURVE",
"565 90 OFFCURVE",
"389 90 CURVE SMOOTH",
"246 90 OFFCURVE",
"167 165 OFFCURVE",
"167 295 CURVE SMOOTH",
"167 315 OFFCURVE",
"169 321 OFFCURVE",
"171 342 CURVE",
"129 289 LINE",
"676 289 LINE",
"695 386 LINE",
"68 386 LINE",
"58 341 OFFCURVE",
"55 316 OFFCURVE",
"55 288 CURVE SMOOTH",
"55 112 OFFCURVE",
"177 -9 OFFCURVE",
"378 -9 CURVE SMOOTH"
);
}
);
width = 817;
}
);
leftKerningGroup = O;
rightKerningGroup = O;
rightMetricsKey = O;
unicode = 018F;
},
{
glyphname = Ezhreversed;
layers = (
{
anchors = (
{
name = bottom;
position = "{259, 0}";
},
{
name = top;
position = "{399, 700}";
}
);
layerId = UUID0;
paths = (
{
closed = 1;
nodes = (
"402 -3 OFFCURVE",
"488 38 OFFCURVE",
"544 96 CURVE",
"533 109 LINE",
"481 57 OFFCURVE",
"404 16 OFFCURVE",
"292 16 CURVE SMOOTH",
"147 16 OFFCURVE",
"62 105 OFFCURVE",
"84 212 CURVE SMOOTH",
"105 319 OFFCURVE",
"195 368 OFFCURVE",
"358 368 CURVE SMOOTH",
"398 368 LINE",
"401 383 LINE",
"213 688 LINE",
"209 681 LINE",
"637 681 LINE",
"641 700 LINE",
"193 700 LINE",
"190 685 LINE",
"378 380 LINE",
"379 387 LINE",
"363 387 LINE SMOOTH",
"188 387 OFFCURVE",
"87 332 OFFCURVE",
"64 216 CURVE SMOOTH",
"41 100 OFFCURVE",
"131 -3 OFFCURVE",
"289 -3 CURVE SMOOTH"
);
}
);
width = 610;
},
{
anchors = (
{
name = bottom;
position = "{270, 0}";
},
{
name = top;
position = "{410, 700}";
}
);
layerId = "C4221BDF-4AE8-4E40-821A-B2476087DE1A";
paths = (
{
closed = 1;
nodes = (
"400 -9 OFFCURVE",
"499 22 OFFCURVE",
"567 72 CURVE",
"545 164 LINE",
"485 120 OFFCURVE",
"396 91 OFFCURVE",
"306 91 CURVE SMOOTH",
"196 91 OFFCURVE",
"142 145 OFFCURVE",
"156 218 CURVE SMOOTH",
"170 287 OFFCURVE",
"225 321 OFFCURVE",
"347 321 CURVE SMOOTH",
"424 321 LINE",
"442 409 LINE",
"264 655 LINE",
"243 603 LINE",
"646 603 LINE",
"666 700 LINE",
"176 700 LINE",
"160 622 LINE",
"337 376 LINE",
"390 410 LINE",
"354 410 LINE SMOOTH",
"175 410 OFFCURVE",
"68 347 OFFCURVE",
"44 228 CURVE SMOOTH",
"21 109 OFFCURVE",
"102 -9 OFFCURVE",
"293 -9 CURVE SMOOTH"
);
}
);
width = 637;
},
{
anchors = (
{
name = bottom;
position = "{279, 0}";
},
{
name = top;
position = "{419, 700}";
}
);
layerId = "5DA6E103-6A94-47F2-987D-4952DB8EA68E";
paths = (
{
closed = 1;
nodes = (
"411 -16 OFFCURVE",
"515 5 OFFCURVE",
"600 47 CURVE",
"559 221 LINE",
"489 186 OFFCURVE",
"410 170 OFFCURVE",
"348 170 CURVE SMOOTH",
"288 170 OFFCURVE",
"250 192 OFFCURVE",
"257 228 CURVE SMOOTH",
"263 258 OFFCURVE",
"295 272 OFFCURVE",
"360 272 CURVE SMOOTH",
"458 272 LINE",
"487 417 LINE",
"328 601 LINE",
"292 522 LINE",
"662 522 LINE",
"697 700 LINE",
"154 700 LINE",
"125 555 LINE",
"283 371 LINE",
"405 435 LINE",
"343 435 LINE SMOOTH",
"159 435 OFFCURVE",
"44 371 OFFCURVE",
"19 249 CURVE SMOOTH",
"-5 127 OFFCURVE",
"80 -16 OFFCURVE",
"313 -16 CURVE SMOOTH"
);
}
);
width = 655;
}
);
leftKerningGroup = E.ss01;
rightKerningGroup = E;
unicode = 01B8;
},
{
glyphname = F;
layers = (
{
anchors = (
{
name = bottom;
position = "{263, 0}";
},
{
name = top;
position = "{403, 700}";
}
);
layerId = UUID0;
paths = (
{
closed = 1;
nodes = (
"161 326 LINE",
"552 326 LINE",
"556 345 LINE",
"165 345 LINE"
);
},
{
closed = 1;
nodes = (
"237 681 LINE",
"668 681 LINE",
"672 700 LINE",
"221 700 LINE",
"81 0 LINE",
"101 0 LINE"
);
}
);
width = 629;
},
{
anchors = (
{
name = bottom;
position = "{267, 0}";
},
{
name = top;
position = "{407, 700}";
}
);
layerId = "5DA6E103-6A94-47F2-987D-4952DB8EA68E";
paths = (
{
closed = 1;
nodes = (
"267 224 LINE",
"574 224 LINE",
"610 402 LINE",
"302 402 LINE"
);
},
{
closed = 1;
nodes = (
"342 522 LINE",
"675 522 LINE",
"711 700 LINE",
"142 700 LINE",
"2 0 LINE",
"238 0 LINE"
);
}
);
width = 644;
},
{
anchors = (
{
name = bottom;
position = "{265, 0}";
},
{
name = top;
position = "{405, 700}";
}
);
layerId = "C4221BDF-4AE8-4E40-821A-B2476087DE1A";
paths = (
{
closed = 1;
nodes = (
"206 275 LINE",
"561 275 LINE",
"581 374 LINE",
"226 374 LINE"
);
},
{
closed = 1;
nodes = (
"281 601 LINE",
"669 601 LINE",
"689 700 LINE",
"187 700 LINE",
"47 0 LINE",
"161 0 LINE"
);
}
);
width = 636;
}
);
leftKerningGroup = H;
leftMetricsKey = H;
rightKerningGroup = F;
unicode = 0046;
},
{
glyphname = Fhook;
layers = (
{
layerId = UUID0;
paths = (
{
closed = 1;
nodes = (
"-42 -226 OFFCURVE",
"72 -178 OFFCURVE",
"92 -78 CURVE SMOOTH",
"243 681 LINE",
"674 681 LINE",
"678 700 LINE",
"227 700 LINE",
"72 -74 LINE SMOOTH",
"55 -161 OFFCURVE",
"-41 -202 OFFCURVE",
"-113 -160 CURVE",
"-122 -178 LINE"
);
},
{
closed = 1;
nodes = (
"558 326 LINE",
"562 345 LINE",
"171 345 LINE",
"167 326 LINE"
);
}
);
width = 617;
},
{
layerId = "C4221BDF-4AE8-4E40-821A-B2476087DE1A";
paths = (
{
closed = 1;
nodes = (
"0 -236 OFFCURVE",
"131 -178 OFFCURVE",
"156 -51 CURVE SMOOTH",
"286 601 LINE",
"674 601 LINE",
"694 700 LINE",
"192 700 LINE",
"45 -32 LINE SMOOTH",
"32 -98 OFFCURVE",
"-11 -119 OFFCURVE",
"-81 -94 CURVE",
"-118 -181 LINE"
);
},
{
closed = 1;
nodes = (
"566 275 LINE",
"586 374 LINE",
"231 374 LINE",
"211 275 LINE"
);
}
);
width = 639;
},
{
layerId = "5DA6E103-6A94-47F2-987D-4952DB8EA68E";
paths = (
{
closed = 1;
nodes = (
"54 -257 OFFCURVE",
"204 -193 OFFCURVE",
"243 0 CURVE SMOOTH",
"347 522 LINE",
"680 522 LINE",
"715 700 LINE",
"146 700 LINE",
"11 23 LINE SMOOTH",
"1 -28 OFFCURVE",
"-29 -39 OFFCURVE",
"-101 -16 CURVE",
"-158 -172 LINE"
);
},
{
closed = 1;
nodes = (
"579 224 LINE",
"615 402 LINE",
"307 402 LINE",
"271 224 LINE"
);
}
);
width = 653;
}
);
leftKerningGroup = j;
leftMetricsKey = Nhookleft;
rightKerningGroup = F;
unicode = 0191;
},
{
glyphname = G;
layers = (
{
anchors = (
{
name = bottom;
position = "{350, 0}";
},
{
name = top;
position = "{490, 699}";
}
);
layerId = UUID0;
paths = (
{
closed = 1;
nodes = (
"483 -3 OFFCURVE",
"569 33 OFFCURVE",
"628 87 CURVE",
"618 102 LINE",
"556 48 OFFCURVE",
"483 16 OFFCURVE",
"388 16 CURVE SMOOTH",
"192 16 OFFCURVE",
"91 123 OFFCURVE",
"91 280 CURVE SMOOTH",
"91 499 OFFCURVE",
"246 684 OFFCURVE",
"490 684 CURVE SMOOTH",
"593 684 OFFCURVE",
"670 656 OFFCURVE",
"718 601 CURVE",
"732 614 LINE",
"685 670 OFFCURVE",
"599 703 OFFCURVE",
"492 703 CURVE SMOOTH",
"229 703 OFFCURVE",
"71 504 OFFCURVE",
"71 280 CURVE SMOOTH",
"71 111 OFFCURVE",
"182 -3 OFFCURVE",
"386 -3 CURVE SMOOTH"
);
},
{
closed = 1;
nodes = (
"628 87 LINE",
"679 343 LINE",
"660 343 LINE",
"609 87 LINE"
);
}
);
width = 774;
},
{
anchors = (
{
name = bottom;
position = "{355, 0}";
},
{
name = top;
position = "{509, 701}";
}
);
layerId = "5DA6E103-6A94-47F2-987D-4952DB8EA68E";
paths = (
{
closed = 1;
nodes = (
"511 -16 OFFCURVE",
"610 14 OFFCURVE",
"684 67 CURVE",
"595 235 LINE",
"539 191 OFFCURVE",
"486 175 OFFCURVE",
"433 175 CURVE SMOOTH",
"336 175 OFFCURVE",
"279 230 OFFCURVE",
"279 312 CURVE SMOOTH",
"279 437 OFFCURVE",
"357 525 OFFCURVE",
"480 525 CURVE SMOOTH",
"546 525 OFFCURVE",
"595 506 OFFCURVE",
"640 448 CURVE",
"809 579 LINE",
"743 669 OFFCURVE",
"638 716 OFFCURVE",
"491 716 CURVE SMOOTH",
"224 716 OFFCURVE",
"41 543 OFFCURVE",
"41 297 CURVE SMOOTH",
"41 111 OFFCURVE",
"183 -16 OFFCURVE",
"400 -16 CURVE SMOOTH"
);
},
{
closed = 1;
nodes = (
"684 67 LINE",
"744 369 LINE",
"539 369 LINE",
"486 103 LINE"
);
}
);
width = 769;
},
{
anchors = (
{
name = bottom;
position = "{352, 0}";
},
{
name = top;
position = "{498, 700}";
}
);
layerId = "C4221BDF-4AE8-4E40-821A-B2476087DE1A";
paths = (
{
closed = 1;
nodes = (
"490 -9 OFFCURVE",
"584 22 OFFCURVE",
"653 77 CURVE",
"608 170 LINE",
"549 119 OFFCURVE",
"484 93 OFFCURVE",
"408 93 CURVE SMOOTH",
"252 93 OFFCURVE",
"173 175 OFFCURVE",
"173 295 CURVE SMOOTH",
"173 469 OFFCURVE",
"295 607 OFFCURVE",
"486 607 CURVE SMOOTH",
"573 607 OFFCURVE",
"637 583 OFFCURVE",
"684 527 CURVE",
"766 597 LINE",
"710 669 OFFCURVE",
"616 709 OFFCURVE",
"491 709 CURVE SMOOTH",
"227 709 OFFCURVE",
"58 523 OFFCURVE",
"58 288 CURVE SMOOTH",
"58 111 OFFCURVE",
"187 -9 OFFCURVE",
"395 -9 CURVE SMOOTH"
);
},
{
closed = 1;
nodes = (
"653 77 LINE",
"709 356 LINE",
"599 356 LINE",
"547 95 LINE"
);
}
);
width = 772;
}
);
leftKerningGroup = O;
leftMetricsKey = O;
rightKerningGroup = G;
unicode = 0047;
},
{
glyphname = Ghook;
layers = (
{
anchors = (
{
name = bottom;
position = "{390, 0}";
},
{
name = top;
position = "{530, 699}";
}
);
layerId = UUID0;
paths = (
{
closed = 1;
nodes = (
"483 -3 OFFCURVE",
"569 33 OFFCURVE",
"628 87 CURVE",
"618 102 LINE",
"556 48 OFFCURVE",
"483 16 OFFCURVE",
"388 16 CURVE SMOOTH",
"192 16 OFFCURVE",
"91 123 OFFCURVE",
"91 280 CURVE SMOOTH",
"91 499 OFFCURVE",
"246 684 OFFCURVE",
"490 684 CURVE SMOOTH",
"593 684 OFFCURVE",
"670 656 OFFCURVE",
"718 601 CURVE",
"732 614 LINE",
"685 670 OFFCURVE",
"599 703 OFFCURVE",
"492 703 CURVE SMOOTH",
"229 703 OFFCURVE",
"71 504 OFFCURVE",
"71 280 CURVE SMOOTH",
"71 111 OFFCURVE",
"182 -3 OFFCURVE",
"386 -3 CURVE SMOOTH"
);
},
{
closed = 1;
nodes = (
"679 343 LINE",
"660 343 LINE",
"610 91 LINE",
"628 87 LINE"
);
},
{
closed = 1;
nodes = (
"732 614 LINE",
"746 684 LINE SMOOTH",
"763 771 OFFCURVE",
"829 809 OFFCURVE",
"895 769 CURVE",
"904 786 LINE",
"832 829 OFFCURVE",
"747 794 OFFCURVE",
"726 686 CURVE SMOOTH",
"712 614 LINE"
);
}
);
width = 769;
},
{
anchors = (
{
name = bottom;
position = "{372, 0}";
},
{
name = top;
position = "{519, 700}";
}
);
guideLines = (
{
position = "{735, 862}";
}
);
layerId = "C4221BDF-4AE8-4E40-821A-B2476087DE1A";
paths = (
{
closed = 1;
nodes = (
"490 -9 OFFCURVE",
"584 22 OFFCURVE",
"653 77 CURVE",
"608 170 LINE",
"549 119 OFFCURVE",
"484 93 OFFCURVE",
"408 93 CURVE SMOOTH",
"252 93 OFFCURVE",
"173 175 OFFCURVE",
"173 295 CURVE SMOOTH",
"173 469 OFFCURVE",
"295 607 OFFCURVE",
"486 607 CURVE SMOOTH",
"573 607 OFFCURVE",
"637 583 OFFCURVE",
"684 527 CURVE",
"766 596 LINE",
"710 668 OFFCURVE",
"616 709 OFFCURVE",
"491 709 CURVE SMOOTH",
"227 709 OFFCURVE",
"58 523 OFFCURVE",
"58 288 CURVE SMOOTH",
"58 111 OFFCURVE",
"187 -9 OFFCURVE",
"395 -9 CURVE SMOOTH"
);
},
{
closed = 1;
nodes = (
"709 356 LINE",
"599 356 LINE",
"547 95 LINE",
"653 77 LINE"
);
},
{
closed = 1;
nodes = (
"766 596 LINE",
"776 650 LINE SMOOTH",
"789 718 OFFCURVE",
"840 749 OFFCURVE",
"898 733 CURVE",
"924 820 LINE",
"827 855 OFFCURVE",
"698 798 OFFCURVE",
"675 672 CURVE SMOOTH",
"661 596 LINE"
);
}
);
width = 763;
},
{
anchors = (
{
name = bottom;
position = "{353, 0}";
},
{
name = top;
position = "{507, 701}";
}
);
guideLines = (
{
position = "{724, 862}";
}
);
layerId = "5DA6E103-6A94-47F2-987D-4952DB8EA68E";
paths = (
{
closed = 1;
nodes = (
"511 -16 OFFCURVE",
"610 14 OFFCURVE",
"684 67 CURVE",
"595 235 LINE",
"539 191 OFFCURVE",
"486 175 OFFCURVE",
"433 175 CURVE SMOOTH",
"336 175 OFFCURVE",
"279 230 OFFCURVE",
"279 312 CURVE SMOOTH",
"279 437 OFFCURVE",
"357 525 OFFCURVE",
"480 525 CURVE SMOOTH",
"546 525 OFFCURVE",
"595 506 OFFCURVE",
"640 448 CURVE",
"809 579 LINE",
"743 669 OFFCURVE",
"638 716 OFFCURVE",
"491 716 CURVE SMOOTH",
"224 716 OFFCURVE",
"41 543 OFFCURVE",
"41 297 CURVE SMOOTH",
"41 111 OFFCURVE",
"183 -16 OFFCURVE",
"400 -16 CURVE SMOOTH"
);
},
{
closed = 1;
nodes = (
"744 369 LINE",
"539 369 LINE",
"486 103 LINE",
"684 67 LINE"
);
},
{
closed = 1;
nodes = (
"809 579 LINE",
"818 637 LINE SMOOTH",
"825 682 OFFCURVE",
"859 701 OFFCURVE",
"903 687 CURVE",
"961 838 LINE",
"791 895 OFFCURVE",
"669 822 OFFCURVE",
"647 684 CURVE SMOOTH",
"630 579 LINE"
);
}
);
width = 788;
}
);
leftKerningGroup = O;
leftMetricsKey = O;
rightKerningGroup = G;
unicode = 0193;
},
{
glyphname = Glottalstop;
layers = (
{
anchors = (
{
name = bottom;
position = "{240, 0}";
},
{
name = top;
position = "{380, 700}";
}
);
layerId = UUID0;
paths = (
{
closed = 1;
nodes = (
"250 0 LINE",
"279 143 LINE SMOOTH",
"318 338 OFFCURVE",
"560 316 OFFCURVE",
"600 512 CURVE SMOOTH",
"627 649 OFFCURVE",
"516 703 OFFCURVE",
"389 703 CURVE SMOOTH",
"281 703 OFFCURVE",
"163 665 OFFCURVE",
"91 583 CURVE",
"103 570 LINE",
"171 648 OFFCURVE",
"283 684 OFFCURVE",
"385 684 CURVE SMOOTH",
"501 684 OFFCURVE",
"605 637 OFFCURVE",
"580 512 CURVE SMOOTH",
"542 326 OFFCURVE",
"301 354 OFFCURVE",
"259 143 CURVE SMOOTH",
"230 0 LINE"
);
}
);
width = 603;
},
{
anchors = (
{
name = bottom;
position = "{192, 0}";
},
{
name = top;
position = "{332, 700}";
}
);
layerId = "C4221BDF-4AE8-4E40-821A-B2476087DE1A";
paths = (
{
closed = 1;
nodes = (
"248 0 LINE",
"279 154 LINE SMOOTH",
"308 299 OFFCURVE",
"560 289 OFFCURVE",
"599 487 CURVE SMOOTH",
"629 635 OFFCURVE",
"501 709 OFFCURVE",
"350 709 CURVE SMOOTH",
"231 709 OFFCURVE",
"109 663 OFFCURVE",
"23 571 CURVE",
"101 506 LINE",
"160 578 OFFCURVE",
"251 610 OFFCURVE",
"331 610 CURVE SMOOTH",
"420 610 OFFCURVE",
"501 571 OFFCURVE",
"484 486 CURVE SMOOTH",
"455 342 OFFCURVE",
"207 364 OFFCURVE",
"166 160 CURVE SMOOTH",
"134 0 LINE"
);
}
);
width = 565;
},
{
anchors = (
{
name = bottom;
position = "{306, 0}";
},
{
name = top;
position = "{456, 700}";
}
);
layerId = "5DA6E103-6A94-47F2-987D-4952DB8EA68E";
paths = (
{
closed = 1;
nodes = (
"424 0 LINE",
"456 159 LINE SMOOTH",
"481 284 OFFCURVE",
"676 284 OFFCURVE",
"714 472 CURVE SMOOTH",
"748 643 OFFCURVE",
"599 716 OFFCURVE",
"435 716 CURVE SMOOTH",
"291 716 OFFCURVE",
"135 659 OFFCURVE",
"64 553 CURVE",
"224 464 LINE",
"269 512 OFFCURVE",
"329 534 OFFCURVE",
"380 534 CURVE SMOOTH",
"438 534 OFFCURVE",
"483 505 OFFCURVE",
"474 457 CURVE SMOOTH",
"455 363 OFFCURVE",
"263 373 OFFCURVE",
"225 181 CURVE SMOOTH",
"188 0 LINE"
);
}
);
width = 695;
}
);
leftKerningGroup = question;
rightKerningGroup = question;
unicode = 0241;
},
{
color = 3;
glyphname = Glottalstopsmall;
layers = (
{
anchors = (
{
name = bottom;
position = "{196, 0}";
},
{
name = top;
position = "{336, 699}";
}
);
layerId = UUID0;
paths = (
{
closed = 1;
nodes = (
"206 0 LINE",
"211 25 LINE SMOOTH",
"252 232 OFFCURVE",
"520 248 OFFCURVE",
"557 476 CURVE SMOOTH",
"584 641 OFFCURVE",
"455 703 OFFCURVE",
"321 703 CURVE SMOOTH",
"213 703 OFFCURVE",
"90 663 OFFCURVE",
"3 583 CURVE",
"13 568 LINE",
"97 645 OFFCURVE",
"215 684 OFFCURVE",
"321 684 CURVE SMOOTH",
"450 684 OFFCURVE",
"560 627 OFFCURVE",
"537 479 CURVE SMOOTH",
"503 258 OFFCURVE",
"236 250 OFFCURVE",
"191 25 CURVE SMOOTH",
"186 0 LINE"
);
}
);
userData = {
RMXScaler = {
height = 135.5;
width = 130;
};
};
width = 579;
},
{
anchors = (
{
name = bottom;
position = "{218, 0}";
},
{
name = top;
position = "{358, 699}";
}
);
layerId = "C4221BDF-4AE8-4E40-821A-B2476087DE1A";
paths = (
{
closed = 1;
nodes = (
"275 0 LINE",
"281 32 LINE SMOOTH",
"319 243 OFFCURVE",
"541 238 OFFCURVE",
"579 455 CURVE SMOOTH",
"608 620 OFFCURVE",
"494 708 OFFCURVE",
"343 708 CURVE SMOOTH",
"233 708 OFFCURVE",
"100 661 OFFCURVE",
"10 563 CURVE",
"82 503 LINE",
"147 574 OFFCURVE",
"240 610 OFFCURVE",
"318 610 CURVE SMOOTH",
"413 610 OFFCURVE",
"485 554 OFFCURVE",
"465 453 CURVE SMOOTH",
"433 287 OFFCURVE",
"213 285 OFFCURVE",
"167 32 CURVE SMOOTH",
"161 0 LINE"
);
}
);
userData = {
RMXScaler = {
height = 132.5;
width = 120;
};
};
width = 598;
},
{
anchors = (
{
name = bottom;
position = "{270, 0}";
},
{
name = top;
position = "{410, 700}";
}
);
layerId = "5DA6E103-6A94-47F2-987D-4952DB8EA68E";
paths = (
{
closed = 1;
nodes = (
"391 0 LINE",
"402 54 LINE SMOOTH",
"439 238 OFFCURVE",
"624 246 OFFCURVE",
"660 444 CURVE SMOOTH",
"693 621 OFFCURVE",
"562 716 OFFCURVE",
"394 716 CURVE SMOOTH",
"263 716 OFFCURVE",
"106 658 OFFCURVE",
"10 530 CURVE",
"167 432 LINE",
"214 496 OFFCURVE",
"282 528 OFFCURVE",
"337 528 CURVE SMOOTH",
"394 528 OFFCURVE",
"432 491 OFFCURVE",
"420 429 CURVE SMOOTH",
"396 307 OFFCURVE",
"215 296 OFFCURVE",
"166 54 CURVE SMOOTH",
"155 0 LINE"
);
}
);
userData = {
RMXScaler = {
height = 129.5;
width = 119;
};
};
width = 671;
}
);
leftKerningGroup = Glottalstopsmall;
rightKerningGroup = Glottalstopsmall;
userData = {
RMXScaler = {
source = glottalstopsmall;
};
};
},
{
glyphname = Gstroke;
layers = (
{
anchors = (
{
name = bottom;
position = "{350, 0}";
},
{
name = top;
position = "{490, 699}";
}
);
guideLines = (
{
angle = 90;
position = "{431, 328}";
}
);
layerId = UUID0;
paths = (
{
closed = 1;
nodes = (
"483 -3 OFFCURVE",
"569 33 OFFCURVE",
"628 87 CURVE",
"618 102 LINE",
"556 48 OFFCURVE",
"483 16 OFFCURVE",
"388 16 CURVE SMOOTH",
"192 16 OFFCURVE",
"91 123 OFFCURVE",
"91 280 CURVE SMOOTH",
"91 499 OFFCURVE",
"246 684 OFFCURVE",
"490 684 CURVE SMOOTH",
"593 684 OFFCURVE",
"670 656 OFFCURVE",
"718 601 CURVE",
"732 614 LINE",
"685 670 OFFCURVE",
"599 703 OFFCURVE",
"492 703 CURVE SMOOTH",
"229 703 OFFCURVE",
"71 504 OFFCURVE",
"71 280 CURVE SMOOTH",
"71 111 OFFCURVE",
"182 -3 OFFCURVE",
"386 -3 CURVE SMOOTH"
);
},
{
closed = 1;
nodes = (
"628 87 LINE",
"679 343 LINE",
"660 343 LINE",
"609 87 LINE"
);
},
{
closed = 1;
nodes = (
"775 224 LINE",
"779 243 LINE",
"469 243 LINE",
"465 224 LINE"
);
}
);
width = 804;
},
{
anchors = (
{
name = bottom;
position = "{355, 0}";
},
{
name = top;
position = "{509, 701}";
}
);
guideLines = (
{
angle = 90;
position = "{400, 328}";
}
);
layerId = "5DA6E103-6A94-47F2-987D-4952DB8EA68E";
paths = (
{
closed = 1;
nodes = (
"511 -16 OFFCURVE",
"610 14 OFFCURVE",
"684 67 CURVE",
"595 235 LINE",
"539 191 OFFCURVE",
"486 175 OFFCURVE",
"433 175 CURVE SMOOTH",
"336 175 OFFCURVE",
"279 230 OFFCURVE",
"279 312 CURVE SMOOTH",
"279 437 OFFCURVE",
"357 525 OFFCURVE",
"480 525 CURVE SMOOTH",
"546 525 OFFCURVE",
"595 506 OFFCURVE",
"640 448 CURVE",
"809 579 LINE",
"743 669 OFFCURVE",
"638 716 OFFCURVE",
"491 716 CURVE SMOOTH",
"224 716 OFFCURVE",
"41 543 OFFCURVE",
"41 297 CURVE SMOOTH",
"41 111 OFFCURVE",
"183 -16 OFFCURVE",
"400 -16 CURVE SMOOTH"
);
},
{
closed = 1;
nodes = (
"684 67 LINE",
"746 379 LINE",
"541 379 LINE",
"486 103 LINE"
);
},
{
closed = 1;
nodes = (
"784 212 LINE",
"811 348 LINE",
"428 348 LINE",
"401 212 LINE"
);
}
);
width = 816;
},
{
anchors = (
{
name = bottom;
position = "{372, 0}";
},
{
name = top;
position = "{518, 700}";
}
);
guideLines = (
{
angle = 90;
position = "{398, 326}";
}
);
layerId = "C4221BDF-4AE8-4E40-821A-B2476087DE1A";
paths = (
{
closed = 1;
nodes = (
"490 -9 OFFCURVE",
"584 22 OFFCURVE",
"653 77 CURVE",
"608 170 LINE",
"549 119 OFFCURVE",
"484 93 OFFCURVE",
"408 93 CURVE SMOOTH",
"252 93 OFFCURVE",
"173 175 OFFCURVE",
"173 295 CURVE SMOOTH",
"173 469 OFFCURVE",
"295 607 OFFCURVE",
"486 607 CURVE SMOOTH",
"573 607 OFFCURVE",
"637 583 OFFCURVE",
"684 527 CURVE",
"766 597 LINE",
"710 669 OFFCURVE",
"616 709 OFFCURVE",
"491 709 CURVE SMOOTH",
"227 709 OFFCURVE",
"58 523 OFFCURVE",
"58 288 CURVE SMOOTH",
"58 111 OFFCURVE",
"187 -9 OFFCURVE",
"395 -9 CURVE SMOOTH"
);
},
{
closed = 1;
nodes = (
"653 77 LINE",
"709 356 LINE",
"599 356 LINE",
"547 95 LINE"
);
},
{
closed = 1;
nodes = (
"780 206 LINE",
"798 296 LINE",
"436 296 LINE",
"419 206 LINE"
);
}
);
width = 808;
}
);
leftKerningGroup = O;
leftMetricsKey = "=O";
rightKerningGroup = G;
unicode = 01E4;
},
{
glyphname = Yogh;
layers = (
{
layerId = UUID0;
paths = (
{
closed = 1;
nodes = (
"154 -71 OFFCURVE",
"510 36 OFFCURVE",
"510 233 CURVE SMOOTH",
"510 336 OFFCURVE",
"407 380 OFFCURVE",
"260 349 CURVE",
"259 341 LINE",
"401 373 OFFCURVE",
"539 433 OFFCURVE",
"539 563 CURVE SMOOTH",
"539 637 OFFCURVE",
"494 704 OFFCURVE",
"369 704 CURVE SMOOTH",
"295 704 OFFCURVE",
"189 681 OFFCURVE",
"69 610 CURVE",
"78 594 LINE",
"192 658 OFFCURVE",
"292 685 OFFCURVE",
"366 685 CURVE SMOOTH",
"478 685 OFFCURVE",
"519 625 OFFCURVE",
"519 561 CURVE SMOOTH",
"519 435 OFFCURVE",
"358 377 OFFCURVE",
"231 348 CURVE SMOOTH",
"140 327 LINE",
"139 307 LINE",
"234 329 LINE SMOOTH",
"389 365 OFFCURVE",
"490 330 OFFCURVE",
"490 232 CURVE SMOOTH",
"490 47 OFFCURVE",
"129 -54 OFFCURVE",
"-80 -83 CURVE",
"-80 -102 LINE"
);
}
);
width = 566;
},
{
layerId = "C4221BDF-4AE8-4E40-821A-B2476087DE1A";
paths = (
{
closed = 1;
nodes = (
"178 -85 OFFCURVE",
"559 12 OFFCURVE",
"559 226 CURVE SMOOTH",
"559 346 OFFCURVE",
"446 384 OFFCURVE",
"317 347 CURVE",
"316 324 LINE",
"460 357 OFFCURVE",
"594 419 OFFCURVE",
"594 550 CURVE SMOOTH",
"594 635 OFFCURVE",
"538 709 OFFCURVE",
"395 709 CURVE SMOOTH",
"296 709 OFFCURVE",
"169 673 OFFCURVE",
"62 614 CURVE",
"84 527 LINE",
"197 581 OFFCURVE",
"299 612 OFFCURVE",
"370 612 CURVE SMOOTH",
"445 612 OFFCURVE",
"473 577 OFFCURVE",
"473 533 CURVE SMOOTH",
"473 445 OFFCURVE",
"360 401 OFFCURVE",
"272 381 CURVE SMOOTH",
"152 354 LINE",
"145 259 LINE",
"293 291 LINE SMOOTH",
"383 310 OFFCURVE",
"440 296 OFFCURVE",
"440 226 CURVE SMOOTH",
"440 96 OFFCURVE",
"219 22 OFFCURVE",
"-71 -11 CURVE",
"-84 -108 LINE"
);
}
);
width = 636;
},
{
layerId = "5DA6E103-6A94-47F2-987D-4952DB8EA68E";
paths = (
{
closed = 1;
nodes = (
"228 -107 OFFCURVE",
"637 -40 OFFCURVE",
"637 208 CURVE SMOOTH",
"637 318 OFFCURVE",
"556 397 OFFCURVE",
"404 360 CURVE",
"406 315 LINE",
"541 344 OFFCURVE",
"680 410 OFFCURVE",
"680 537 CURVE SMOOTH",
"680 625 OFFCURVE",
"612 715 OFFCURVE",
"442 715 CURVE SMOOTH",
"311 715 OFFCURVE",
"158 662 OFFCURVE",
"67 620 CURVE",
"101 446 LINE",
"213 488 OFFCURVE",
"328 518 OFFCURVE",
"379 518 CURVE SMOOTH",
"413 518 OFFCURVE",
"429 505 OFFCURVE",
"429 483 CURVE SMOOTH",
"429 455 OFFCURVE",
"401 435 OFFCURVE",
"364 427 CURVE SMOOTH",
"181 387 LINE",
"160 206 LINE",
"331 244 LINE SMOOTH",
"372 253 OFFCURVE",
"392 243 OFFCURVE",
"392 217 CURVE SMOOTH",
"392 135 OFFCURVE",
"186 97 OFFCURVE",
"-43 77 CURVE",
"-73 -116 LINE"
);
}
);
width = 687;
}
);
leftKerningGroup = Yogh;
rightKerningGroup = B;
unicode = 021C;
},
{
glyphname = H;
layers = (
{
anchors = (
{
name = bottom;
position = "{356, 0}";
},
{
name = center;
position = "{464, 538}";
},
{
name = hook.af;
position = "{221, 700}";
},
{
name = top;
position = "{496, 700}";
}
);
layerId = UUID0;
paths = (
{
closed = 1;
nodes = (
"611 0 LINE",
"631 0 LINE",
"771 700 LINE",
"751 700 LINE"
);
},
{
closed = 1;
nodes = (
"241 700 LINE",
"221 700 LINE",
"81 0 LINE",
"101 0 LINE"
);
},
{
closed = 1;
nodes = (
"689 365 LINE",
"169 365 LINE",
"165 346 LINE",
"685 346 LINE"
);
}
);
width = 816;
},
{
anchors = (
{
name = bottom;
position = "{347, 0}";
},
{
name = center;
position = "{462, 576}";
},
{
name = hook.af;
position = "{142, 700}";
},
{
name = top;
position = "{487, 700}";
}
);
layerId = "5DA6E103-6A94-47F2-987D-4952DB8EA68E";
paths = (
{
closed = 1;
nodes = (
"456 0 LINE",
"692 0 LINE",
"832 700 LINE",
"596 700 LINE"
);
},
{
closed = 1;
nodes = (
"378 700 LINE",
"142 700 LINE",
"2 0 LINE",
"238 0 LINE"
);
},
{
closed = 1;
nodes = (
"562 452 LINE",
"313 452 LINE",
"274 258 LINE",
"523 258 LINE"
);
}
);
width = 804;
},
{
anchors = (
{
name = bottom;
position = "{352, 0}";
},
{
name = center;
position = "{463, 556}";
},
{
name = hook.af;
position = "{187, 700}";
},
{
name = top;
position = "{492, 700}";
}
);
layerId = "C4221BDF-4AE8-4E40-821A-B2476087DE1A";
paths = (
{
closed = 1;
nodes = (
"544 0 LINE",
"658 0 LINE",
"798 700 LINE",
"684 700 LINE"
);
},
{
closed = 1;
nodes = (
"301 700 LINE",
"187 700 LINE",
"47 0 LINE",
"161 0 LINE"
);
},
{
closed = 1;
nodes = (
"635 405 LINE",
"233 405 LINE",
"214 306 LINE",
"615 306 LINE"
);
}
);
width = 811;
}
);
leftKerningGroup = H;
rightKerningGroup = H;
rightMetricsKey = "=|";
unicode = 0048;
},
{
glyphname = Hbar;
layers = (
{
anchors = (
{
name = bottom;
position = "{356, 0}";
},
{
name = center;
position = "{464, 538}";
},
{
name = hook.af;
position = "{221, 700}";
},
{
name = top;
position = "{496, 700}";
}
);
layerId = UUID0;
paths = (
{
closed = 1;
nodes = (
"611 0 LINE",
"631 0 LINE",
"771 700 LINE",
"751 700 LINE"
);
},
{
closed = 1;
nodes = (
"241 700 LINE",
"221 700 LINE",
"81 0 LINE",
"101 0 LINE"
);
},
{
closed = 1;
nodes = (
"689 365 LINE",
"169 365 LINE",
"165 346 LINE",
"685 346 LINE"
);
},
{
closed = 1;
nodes = (
"857 529 LINE",
"861 548 LINE",
"71 548 LINE",
"67 529 LINE"
);
}
);
width = 816;
},
{
anchors = (
{
name = bottom;
position = "{382, 0}";
},
{
name = center;
position = "{497, 576}";
},
{
name = hook.af;
position = "{177, 700}";
},
{
name = top;
position = "{522, 700}";
}
);
layerId = "5DA6E103-6A94-47F2-987D-4952DB8EA68E";
leftMetricsKey = "=+20";
rightMetricsKey = "=+20";
paths = (
{
closed = 1;
nodes = (
"491 0 LINE",
"727 0 LINE",
"867 700 LINE",
"631 700 LINE"
);
},
{
closed = 1;
nodes = (
"413 700 LINE",
"177 700 LINE",
"37 0 LINE",
"273 0 LINE"
);
},
{
closed = 1;
nodes = (
"597 432 LINE",
"348 432 LINE",
"309 248 LINE",
"558 248 LINE"
);
},
{
closed = 1;
nodes = (
"898 497 LINE",
"925 633 LINE",
"92 633 LINE",
"65 497 LINE"
);
}
);
width = 873;
},
{
anchors = (
{
name = bottom;
position = "{361, 0}";
},
{
name = center;
position = "{472, 556}";
},
{
name = hook.af;
position = "{196, 700}";
},
{
name = top;
position = "{501, 700}";
}
);
layerId = "C4221BDF-4AE8-4E40-821A-B2476087DE1A";
leftMetricsKey = "=+9po";
rightMetricsKey = "=+9";
paths = (
{
closed = 1;
nodes = (
"553 0 LINE",
"667 0 LINE",
"807 700 LINE",
"693 700 LINE"
);
},
{
closed = 1;
nodes = (
"310 700 LINE",
"196 700 LINE",
"56 0 LINE",
"170 0 LINE"
);
},
{
closed = 1;
nodes = (
"644 405 LINE",
"242 405 LINE",
"223 306 LINE",
"624 306 LINE"
);
},
{
closed = 1;
nodes = (
"869 501 LINE",
"886 591 LINE",
"73 591 LINE",
"56 501 LINE"
);
}
);
width = 831;
}
);
leftKerningGroup = Hbar;
rightKerningGroup = Hbar;
unicode = 0126;
},
{
glyphname = Hcedilla;
layers = (
{
anchors = (
{
name = bottom;
position = "{356, 0}";
},
{
name = center;
position = "{464, 538}";
},
{
name = hook.af;
position = "{221, 700}";
},
{
name = top;
position = "{496, 700}";
}
);
layerId = UUID0;
paths = (
{
closed = 1;
nodes = (
"631 0 LINE",
"771 700 LINE",
"751 700 LINE",
"611 0 LINE"
);
},
{
closed = 1;
nodes = (
"95 -213 OFFCURVE",
"138 -186 OFFCURVE",
"147 -140 CURVE SMOOTH",
"156 -94 OFFCURVE",
"125 -59 OFFCURVE",
"78 -56 CURVE",
"101 0 LINE",
"81 0 LINE",
"51 -74 LINE",
"67 -74 LINE SMOOTH",
"110 -74 OFFCURVE",
"134 -104 OFFCURVE",
"127 -140 CURVE SMOOTH",
"120 -176 OFFCURVE",
"87 -194 OFFCURVE",
"44 -194 CURVE SMOOTH",
"16 -194 OFFCURVE",
"-2 -186 OFFCURVE",
"-15 -171 CURVE",
"-29 -186 LINE",
"-11 -204 OFFCURVE",
"10 -213 OFFCURVE",
"41 -213 CURVE SMOOTH"
);
},
{
closed = 1;
nodes = (
"101 0 LINE",
"241 700 LINE",
"221 700 LINE",
"81 0 LINE"
);
},
{
closed = 1;
nodes = (
"685 346 LINE",
"689 365 LINE",
"169 365 LINE",
"165 346 LINE"
);
}
);
width = 816;
},
{
anchors = (
{
name = bottom;
position = "{352, 0}";
},
{
name = center;
position = "{463, 556}";
},
{
name = hook.af;
position = "{187, 700}";
},
{
name = top;
position = "{492, 700}";
}
);
layerId = "C4221BDF-4AE8-4E40-821A-B2476087DE1A";
paths = (
{
closed = 1;
nodes = (
"658 0 LINE",
"798 700 LINE",
"684 700 LINE",
"544 0 LINE"
);
},
{
closed = 1;
nodes = (
"137 -226 OFFCURVE",
"192 -194 OFFCURVE",
"204 -138 CURVE SMOOTH",
"215 -86 OFFCURVE",
"180 -53 OFFCURVE",
"119 -49 CURVE",
"144 7 LINE",
"83 7 LINE",
"37 -94 LINE",
"80 -94 LINE SMOOTH",
"116 -94 OFFCURVE",
"132 -106 OFFCURVE",
"128 -129 CURVE SMOOTH",
"124 -153 OFFCURVE",
"103 -166 OFFCURVE",
"65 -166 CURVE SMOOTH",
"42 -166 OFFCURVE",
"19 -161 OFFCURVE",
"1 -150 CURVE",
"-32 -205 LINE",
"-10 -219 OFFCURVE",
"19 -226 OFFCURVE",
"57 -226 CURVE SMOOTH"
);
},
{
closed = 1;
nodes = (
"161 0 LINE",
"301 700 LINE",
"187 700 LINE",
"47 0 LINE"
);
},
{
closed = 1;
nodes = (
"614 306 LINE",
"634 405 LINE",
"232 405 LINE",
"212 306 LINE"
);
}
);
width = 811;
},
{
anchors = (
{
name = bottom;
position = "{347, 0}";
},
{
name = center;
position = "{462, 576}";
},
{
name = hook.af;
position = "{142, 700}";
},
{
name = top;
position = "{487, 700}";
}
);
layerId = "5DA6E103-6A94-47F2-987D-4952DB8EA68E";
paths = (
{
closed = 1;
nodes = (
"692 0 LINE",
"832 700 LINE",
"596 700 LINE",
"456 0 LINE"
);
},
{
closed = 1;
nodes = (
"143 -240 OFFCURVE",
"217 -204 OFFCURVE",
"229 -142 CURVE SMOOTH",
"238 -96 OFFCURVE",
"209 -58 OFFCURVE",
"160 -52 CURVE",
"186 10 LINE",
"70 10 LINE",
"21 -104 LINE",
"62 -104 LINE SMOOTH",
"89 -104 OFFCURVE",
"101 -111 OFFCURVE",
"99 -124 CURVE SMOOTH",
"97 -138 OFFCURVE",
"81 -148 OFFCURVE",
"47 -148 CURVE SMOOTH",
"26 -148 OFFCURVE",
"5 -144 OFFCURVE",
"-12 -136 CURVE",
"-56 -219 LINE",
"-32 -233 OFFCURVE",
"2 -240 OFFCURVE",
"45 -240 CURVE SMOOTH"
);
},
{
closed = 1;
nodes = (
"238 0 LINE",
"378 700 LINE",
"142 700 LINE",
"2 0 LINE"
);
},
{
closed = 1;
nodes = (
"524 258 LINE",
"563 452 LINE",
"313 452 LINE",
"274 258 LINE"
);
}
);
width = 804;
}
);
leftKerningGroup = H;
rightKerningGroup = H;
unicode = 1E28;
},
{
glyphname = Hturned;
layers = (
{
anchors = (
{
name = bottom;
position = "{267, 0}";
},
{
name = top;
position = "{407, 700}";
}
);
layerId = UUID0;
paths = (
{
closed = 1;
nodes = (
"550 0 LINE",
"690 700 LINE",
"670 700 LINE",
"632 507 LINE SMOOTH",
"600 342 OFFCURVE",
"507 259 OFFCURVE",
"355 259 CURVE SMOOTH",
"183 259 OFFCURVE",
"104 364 OFFCURVE",
"140 548 CURVE SMOOTH",
"170 700 LINE",
"150 700 LINE",
"120 551 LINE SMOOTH",
"81 356 OFFCURVE",
"168 240 OFFCURVE",
"355 240 CURVE SMOOTH",
"487 240 OFFCURVE",
"576 298 OFFCURVE",
"620 413 CURVE",
"614 419 LINE",
"530 0 LINE"
);
}
);
width = 719;
},
{
anchors = (
{
name = bottom;
position = "{281, 0}";
},
{
name = top;
position = "{421, 700}";
}
);
layerId = "C4221BDF-4AE8-4E40-821A-B2476087DE1A";
paths = (
{
closed = 1;
nodes = (
"600 0 LINE",
"740 700 LINE",
"626 700 LINE",
"588 509 LINE SMOOTH",
"564 388 OFFCURVE",
"481 317 OFFCURVE",
"364 317 CURVE SMOOTH",
"244 317 OFFCURVE",
"188 390 OFFCURVE",
"213 514 CURVE SMOOTH",
"250 700 LINE",
"136 700 LINE",
"98 510 LINE SMOOTH",
"62 330 OFFCURVE",
"152 215 OFFCURVE",
"339 215 CURVE SMOOTH",
"460 215 OFFCURVE",
"539 263 OFFCURVE",
"600 374 CURVE",
"569 394 LINE",
"490 0 LINE"
);
}
);
width = 757;
},
{
anchors = (
{
name = bottom;
position = "{307, 0}";
},
{
name = top;
position = "{447, 700}";
}
);
layerId = "5DA6E103-6A94-47F2-987D-4952DB8EA68E";
paths = (
{
closed = 1;
nodes = (
"660 0 LINE",
"800 700 LINE",
"564 700 LINE",
"522 489 LINE SMOOTH",
"506 407 OFFCURVE",
"465 368 OFFCURVE",
"394 368 CURVE SMOOTH",
"321 368 OFFCURVE",
"292 409 OFFCURVE",
"308 490 CURVE SMOOTH",
"350 700 LINE",
"114 700 LINE",
"74 501 LINE SMOOTH",
"34 303 OFFCURVE",
"119 181 OFFCURVE",
"297 181 CURVE SMOOTH",
"404 181 OFFCURVE",
"479 224 OFFCURVE",
"535 317 CURVE",
"504 378 LINE",
"431 0 LINE"
);
}
);
width = 777;
}
);
leftKerningGroup = "Che-cy";
rightKerningGroup = H;
unicode = A78D;
},
{
glyphname = I;
layers = (
{
anchors = (
{
name = bottom;
position = "{91, 0}";
},
{
name = center;
position = "{161, 350}";
},
{
name = ogonek;
position = "{101, 0}";
},
{
name = top;
position = "{231, 700}";
},
{
name = topleft;
position = "{129, 699}";
}
);
layerId = UUID0;
paths = (
{
closed = 1;
nodes = (
"101 0 LINE",
"241 700 LINE",
"221 700 LINE",
"81 0 LINE"
);
}
);
width = 286;
},
{
anchors = (
{
name = bottom;
position = "{120, 0}";
},
{
name = center;
position = "{190, 350}";
},
{
name = ogonek;
position = "{238, 0}";
},
{
name = top;
position = "{260, 700}";
},
{
name = topleft;
position = "{76, 700}";
}
);
layerId = "5DA6E103-6A94-47F2-987D-4952DB8EA68E";
paths = (
{
closed = 1;
nodes = (
"238 0 LINE",
"378 700 LINE",
"142 700 LINE",
"2 0 LINE"
);
}
);
width = 350;
},
{
anchors = (
{
name = bottom;
position = "{104, 0}";
},
{
name = center;
position = "{173, 350}";
},
{
name = ogonek;
position = "{161, 0}";
},
{
name = top;
position = "{244, 700}";
},
{
name = topleft;
position = "{107, 699}";
}
);
layerId = "C4221BDF-4AE8-4E40-821A-B2476087DE1A";
paths = (
{
closed = 1;
nodes = (
"161 0 LINE",
"301 700 LINE",
"187 700 LINE",
"47 0 LINE"
);
}
);
width = 314;
}
);
leftKerningGroup = H;
leftMetricsKey = H;
rightKerningGroup = H;
rightMetricsKey = H;
unicode = 0049;
},
{
glyphname = IJ;
layers = (
{
anchors = (
{
name = top;
position = "{255, 700}";
}
);
guideLines = (
{
angle = 90;
position = "{224, 197}";
}
);
layerId = UUID0;
paths = (
{
closed = 1;
nodes = (
"456 -3 OFFCURVE",
"553 91 OFFCURVE",
"593 290 CURVE SMOOTH",
"675 700 LINE",
"655 700 LINE",
"574 294 LINE SMOOTH",
"536 103 OFFCURVE",
"445 16 OFFCURVE",
"289 16 CURVE SMOOTH",
"210 16 OFFCURVE",
"143 40 OFFCURVE",
"94 78 CURVE",
"81 61 LINE",
"130 24 OFFCURVE",
"201 -3 OFFCURVE",
"289 -3 CURVE SMOOTH"
);
},
{
closed = 1;
nodes = (
"153 290 LINE",
"235 700 LINE",
"215 700 LINE",
"133 290 LINE"
);
}
);
width = 701;
},
{
anchors = (
{
name = top;
position = "{254, 700}";
}
);
layerId = "5DA6E103-6A94-47F2-987D-4952DB8EA68E";
paths = (
{
closed = 1;
nodes = (
"508 -16 OFFCURVE",
"640 87 OFFCURVE",
"684 305 CURVE SMOOTH",
"763 700 LINE",
"527 700 LINE",
"450 313 LINE SMOOTH",
"430 211 OFFCURVE",
"390 172 OFFCURVE",
"307 172 CURVE SMOOTH",
"240 172 OFFCURVE",
"170 194 OFFCURVE",
"106 238 CURVE",
"-8 69 LINE",
"66 17 OFFCURVE",
"163 -16 OFFCURVE",
"297 -16 CURVE SMOOTH"
);
},
{
closed = 1;
nodes = (
"299 336 LINE",
"372 700 LINE",
"136 700 LINE",
"63 336 LINE"
);
}
);
width = 724;
},
{
anchors = (
{
name = top;
position = "{256, 700}";
}
);
layerId = "C4221BDF-4AE8-4E40-821A-B2476087DE1A";
paths = (
{
closed = 1;
nodes = (
"481 -9 OFFCURVE",
"592 89 OFFCURVE",
"633 297 CURVE SMOOTH",
"713 700 LINE",
"599 700 LINE",
"520 303 LINE SMOOTH",
"491 155 OFFCURVE",
"424 93 OFFCURVE",
"304 93 CURVE SMOOTH",
"227 93 OFFCURVE",
"156 115 OFFCURVE",
"99 156 CURVE",
"42 64 LINE",
"101 20 OFFCURVE",
"186 -9 OFFCURVE",
"296 -9 CURVE SMOOTH"
);
},
{
closed = 1;
nodes = (
"217 312 LINE",
"295 700 LINE",
"181 700 LINE",
"103 312 LINE"
);
}
);
width = 710;
}
);
leftKerningGroup = H;
rightKerningGroup = U;
rightMetricsKey = U;
unicode = 0132;
},
{
glyphname = Iacute_J.loclNLD;
layers = (
{
guideLines = (
{
angle = 90;
position = "{510, 710}";
},
{
angle = 90;
position = "{786, 710}";
},
{
angle = 90;
position = "{934, 743}";
}
);
layerId = UUID0;
paths = (
{
closed = 1;
nodes = (
"456 -3 OFFCURVE",
"553 91 OFFCURVE",
"593 290 CURVE SMOOTH",
"675 700 LINE",
"655 700 LINE",
"574 294 LINE SMOOTH",
"536 103 OFFCURVE",
"445 16 OFFCURVE",
"289 16 CURVE SMOOTH",
"210 16 OFFCURVE",
"143 40 OFFCURVE",
"94 78 CURVE",
"81 61 LINE",
"130 24 OFFCURVE",
"201 -3 OFFCURVE",
"289 -3 CURVE SMOOTH"
);
},
{
closed = 1;
nodes = (
"153 290 LINE",
"235 700 LINE",
"215 700 LINE",
"133 290 LINE"
);
},
{
closed = 1;
nodes = (
"251 757 LINE",
"423 867 LINE",
"383 867 LINE",
"221 757 LINE"
);
},
{
closed = 1;
nodes = (
"693 757 LINE",
"865 867 LINE",
"825 867 LINE",
"663 757 LINE"
);
}
);
width = 714;
},
{
guideLines = (
{
angle = 90;
position = "{556, 701}";
}
);
layerId = "5DA6E103-6A94-47F2-987D-4952DB8EA68E";
paths = (
{
closed = 1;
nodes = (
"508 -16 OFFCURVE",
"640 87 OFFCURVE",
"684 305 CURVE SMOOTH",
"763 700 LINE",
"527 700 LINE",
"450 313 LINE SMOOTH",
"430 211 OFFCURVE",
"390 172 OFFCURVE",
"307 172 CURVE SMOOTH",
"240 172 OFFCURVE",
"170 194 OFFCURVE",
"106 238 CURVE",
"-8 69 LINE",
"66 17 OFFCURVE",
"163 -16 OFFCURVE",
"297 -16 CURVE SMOOTH"
);
},
{
closed = 1;
nodes = (
"299 336 LINE",
"372 700 LINE",
"136 700 LINE",
"63 336 LINE"
);
},
{
closed = 1;
nodes = (
"310 757 LINE",
"539 917 LINE",
"324 917 LINE",
"160 757 LINE"
);
},
{
closed = 1;
nodes = (
"700 757 LINE",
"929 917 LINE",
"714 917 LINE",
"550 757 LINE"
);
}
);
width = 729;
},
{
layerId = "C4221BDF-4AE8-4E40-821A-B2476087DE1A";
paths = (
{
closed = 1;
nodes = (
"479 -9 OFFCURVE",
"591 89 OFFCURVE",
"633 297 CURVE SMOOTH",
"713 700 LINE",
"599 700 LINE",
"520 303 LINE SMOOTH",
"490 155 OFFCURVE",
"421 92 OFFCURVE",
"297 92 CURVE SMOOTH",
"223 92 OFFCURVE",
"155 115 OFFCURVE",
"99 156 CURVE",
"42 65 LINE",
"102 21 OFFCURVE",
"184 -9 OFFCURVE",
"292 -9 CURVE SMOOTH"
);
},
{
closed = 1;
nodes = (
"217 312 LINE",
"295 700 LINE",
"180 700 LINE",
"102 312 LINE"
);
},
{
closed = 1;
nodes = (
"277 757 LINE",
"474 891 LINE",
"357 891 LINE",
"194 757 LINE"
);
},
{
closed = 1;
nodes = (
"696 757 LINE",
"893 891 LINE",
"777 891 LINE",
"614 757 LINE"
);
}
);
width = 721;
}
);
leftKerningGroup = H;
leftMetricsKey = IJ;
rightKerningGroup = U;
},
{
glyphname = "Iota-latin";
layers = (
{
anchors = (
{
name = bottom;
position = "{128, 0}";
},
{
name = ogonek;
position = "{230, 0}";
},
{
name = top;
position = "{223, 700}";
}
);
guideLines = (
{
position = "{64, 376}";
}
);
layerId = UUID0;
paths = (
{
closed = 1;
nodes = (
"239 -3 OFFCURVE",
"278 11 OFFCURVE",
"310 33 CURVE",
"301 48 LINE",
"273 29 OFFCURVE",
"237 17 OFFCURVE",
"206 17 CURVE SMOOTH",
"139 17 OFFCURVE",
"106 59 OFFCURVE",
"119 127 CURVE SMOOTH",
"233 700 LINE",
"213 700 LINE",
"99 130 LINE SMOOTH",
"83 48 OFFCURVE",
"124 -3 OFFCURVE",
"207 -3 CURVE SMOOTH"
);
}
);
width = 345;
},
{
anchors = (
{
name = bottom;
position = "{150, 0}";
},
{
name = ogonek;
position = "{281, 0}";
},
{
name = top;
position = "{240, 700}";
}
);
layerId = "C4221BDF-4AE8-4E40-821A-B2476087DE1A";
paths = (
{
closed = 1;
nodes = (
"271 -9 OFFCURVE",
"311 3 OFFCURVE",
"348 28 CURVE",
"330 113 LINE",
"302 98 OFFCURVE",
"276 91 OFFCURVE",
"254 91 CURVE SMOOTH",
"208 91 OFFCURVE",
"181 121 OFFCURVE",
"191 171 CURVE SMOOTH",
"297 700 LINE",
"183 700 LINE",
"75 161 LINE SMOOTH",
"55 62 OFFCURVE",
"138 -9 OFFCURVE",
"233 -9 CURVE SMOOTH"
);
}
);
width = 391;
},
{
anchors = (
{
name = bottom;
position = "{166, 0}";
},
{
name = ogonek;
position = "{325, 0}";
},
{
name = top;
position = "{254, 700}";
}
);
layerId = "5DA6E103-6A94-47F2-987D-4952DB8EA68E";
paths = (
{
closed = 1;
nodes = (
"284 -14 OFFCURVE",
"331 -5 OFFCURVE",
"380 12 CURVE",
"377 186 LINE",
"357 175 OFFCURVE",
"338 170 OFFCURVE",
"323 170 CURVE SMOOTH",
"290 170 OFFCURVE",
"272 194 OFFCURVE",
"280 236 CURVE SMOOTH",
"372 700 LINE",
"136 700 LINE",
"44 236 LINE SMOOTH",
"14 83 OFFCURVE",
"100 -14 OFFCURVE",
"243 -14 CURVE SMOOTH"
);
}
);
width = 421;
}
);
leftKerningGroup = U;
rightKerningGroup = l.ss01;
unicode = 0196;
},
{
glyphname = Istroke;
layers = (
{
anchors = (
{
name = bottom;
position = "{117, 0}";
},
{
name = ogonek;
position = "{127, 0}";
},
{
name = top;
position = "{257, 700}";
},
{
name = topleft;
position = "{155, 699}";
}
);
layerId = UUID0;
paths = (
{
closed = 1;
nodes = (
"127 0 LINE",
"267 700 LINE",
"247 700 LINE",
"107 0 LINE"
);
},
{
closed = 1;
nodes = (
"316 345 LINE",
"320 364 LINE",
"60 364 LINE",
"56 345 LINE"
);
}
);
width = 337;
},
{
anchors = (
{
name = bottom;
position = "{134, 0}";
},
{
name = ogonek;
position = "{191, 0}";
},
{
name = top;
position = "{274, 700}";
},
{
name = topleft;
position = "{137, 699}";
}
);
layerId = "C4221BDF-4AE8-4E40-821A-B2476087DE1A";
paths = (
{
closed = 1;
nodes = (
"191 0 LINE",
"331 700 LINE",
"217 700 LINE",
"77 0 LINE"
);
},
{
closed = 1;
nodes = (
"354 314 LINE",
"371 404 LINE",
"57 404 LINE",
"40 314 LINE"
);
}
);
width = 374;
},
{
anchors = (
{
name = bottom;
position = "{149, 0}";
},
{
name = ogonek;
position = "{267, 0}";
},
{
name = top;
position = "{289, 700}";
},
{
name = topleft;
position = "{105, 700}";
}
);
layerId = "5DA6E103-6A94-47F2-987D-4952DB8EA68E";
paths = (
{
closed = 1;
nodes = (
"267 0 LINE",
"407 700 LINE",
"171 700 LINE",
"31 0 LINE"
);
},
{
closed = 1;
nodes = (
"395 287 LINE",
"422 423 LINE",
"45 423 LINE",
"18 287 LINE"
);
}
);
width = 407;
}
);
leftKerningGroup = Lbar;
rightKerningGroup = Istroke;
unicode = 0197;
},
{
glyphname = J;
layers = (
{
anchors = (
{
name = top;
position = "{297, 700}";
}
);
layerId = UUID0;
paths = (
{
closed = 1;
nodes = (
"243 -3 OFFCURVE",
"308 49 OFFCURVE",
"336 190 CURVE SMOOTH",
"438 700 LINE",
"156 700 LINE",
"152 681 LINE",
"414 681 LINE",
"317 196 LINE SMOOTH",
"290 63 OFFCURVE",
"233 16 OFFCURVE",
"140 16 CURVE SMOOTH",
"67 16 OFFCURVE",
"13 51 OFFCURVE",
"-12 106 CURVE",
"-30 96 LINE",
"-5 37 OFFCURVE",
"58 -3 OFFCURVE",
"137 -3 CURVE SMOOTH"
);
}
);
width = 464;
},
{
anchors = (
{
name = top;
position = "{373, 700}";
}
);
layerId = "5DA6E103-6A94-47F2-987D-4952DB8EA68E";
paths = (
{
closed = 1;
nodes = (
"374 -16 OFFCURVE",
"480 58 OFFCURVE",
"520 260 CURVE SMOOTH",
"608 700 LINE",
"137 700 LINE",
"101 522 LINE",
"339 522 LINE",
"284 246 LINE SMOOTH",
"274 197 OFFCURVE",
"245 169 OFFCURVE",
"200 169 CURVE SMOOTH",
"158 169 OFFCURVE",
"124 191 OFFCURVE",
"93 235 CURVE",
"-58 92 LINE",
"-6 20 OFFCURVE",
"78 -16 OFFCURVE",
"196 -16 CURVE SMOOTH"
);
}
);
width = 569;
},
{
anchors = (
{
name = top;
position = "{331, 700}";
}
);
layerId = "C4221BDF-4AE8-4E40-821A-B2476087DE1A";
paths = (
{
closed = 1;
nodes = (
"302 -9 OFFCURVE",
"384 52 OFFCURVE",
"418 224 CURVE SMOOTH",
"513 700 LINE",
"150 700 LINE",
"130 601 LINE",
"381 601 LINE",
"305 219 LINE SMOOTH",
"287 127 OFFCURVE",
"241 90 OFFCURVE",
"169 90 CURVE SMOOTH",
"108 90 OFFCURVE",
"62 119 OFFCURVE",
"35 169 CURVE",
"-43 94 LINE",
"-6 29 OFFCURVE",
"68 -9 OFFCURVE",
"167 -9 CURVE SMOOTH"
);
}
);
width = 509;
}
);
leftKerningGroup = J;
rightKerningGroup = U;
rightMetricsKey = U;
unicode = 004A;
},
{
glyphname = Jcrossedtail;
layers = (
{
layerId = UUID0;
paths = (
{
closed = 1;
nodes = (
"229 -3 OFFCURVE",
"312 70 OFFCURVE",
"333 173 CURVE SMOOTH",
"438 700 LINE",
"156 700 LINE",
"152 681 LINE",
"414 681 LINE",
"314 177 LINE SMOOTH",
"295 82 OFFCURVE",
"219 16 OFFCURVE",
"131 16 CURVE SMOOTH",
"42 16 OFFCURVE",
"-11 63 OFFCURVE",
"3 131 CURVE SMOOTH",
"13 183 OFFCURVE",
"72 219 OFFCURVE",
"147 219 CURVE SMOOTH",
"423 219 LINE",
"427 238 LINE",
"147 238 LINE SMOOTH",
"63 238 OFFCURVE",
"-5 195 OFFCURVE",
"-17 135 CURVE SMOOTH",
"-33 54 OFFCURVE",
"28 -3 OFFCURVE",
"131 -3 CURVE SMOOTH"
);
}
);
width = 477;
},
{
layerId = "C4221BDF-4AE8-4E40-821A-B2476087DE1A";
paths = (
{
closed = 1;
nodes = (
"295 -9 OFFCURVE",
"379 63 OFFCURVE",
"403 179 CURVE SMOOTH",
"510 700 LINE",
"145 700 LINE",
"125 601 LINE",
"376 601 LINE",
"293 203 LINE SMOOTH",
"277 125 OFFCURVE",
"234 82 OFFCURVE",
"174 82 CURVE SMOOTH",
"122 82 OFFCURVE",
"90 114 OFFCURVE",
"101 153 CURVE SMOOTH",
"110 186 OFFCURVE",
"144 203 OFFCURVE",
"199 203 CURVE SMOOTH",
"487 203 LINE",
"506 294 LINE",
"201 294 LINE SMOOTH",
"85 294 OFFCURVE",
"13 250 OFFCURVE",
"-5 167 CURVE SMOOTH",
"-26 67 OFFCURVE",
"49 -9 OFFCURVE",
"174 -9 CURVE SMOOTH"
);
}
);
width = 517;
},
{
layerId = "5DA6E103-6A94-47F2-987D-4952DB8EA68E";
paths = (
{
closed = 1;
nodes = (
"375 -16 OFFCURVE",
"488 68 OFFCURVE",
"516 206 CURVE SMOOTH",
"615 700 LINE",
"144 700 LINE",
"109 522 LINE",
"347 522 LINE",
"279 183 LINE SMOOTH",
"271 145 OFFCURVE",
"247 123 OFFCURVE",
"214 123 CURVE SMOOTH",
"188 123 OFFCURVE",
"172 137 OFFCURVE",
"174 159 CURVE SMOOTH",
"176 180 OFFCURVE",
"195 191 OFFCURVE",
"231 191 CURVE SMOOTH",
"585 191 LINE",
"610 320 LINE",
"227 320 LINE SMOOTH",
"96 320 OFFCURVE",
"8 258 OFFCURVE",
"-2 159 CURVE SMOOTH",
"-13 53 OFFCURVE",
"74 -16 OFFCURVE",
"218 -16 CURVE SMOOTH"
);
}
);
width = 615;
}
);
leftKerningGroup = J;
rightKerningGroup = Istroke;
unicode = A7B2;
},
{
glyphname = Jstroke;
layers = (
{
anchors = (
{
name = top;
position = "{297, 700}";
}
);
layerId = UUID0;
paths = (
{
closed = 1;
nodes = (
"243 -3 OFFCURVE",
"308 49 OFFCURVE",
"336 190 CURVE SMOOTH",
"438 700 LINE",
"156 700 LINE",
"152 681 LINE",
"414 681 LINE",
"317 196 LINE SMOOTH",
"290 63 OFFCURVE",
"233 16 OFFCURVE",
"140 16 CURVE SMOOTH",
"67 16 OFFCURVE",
"13 51 OFFCURVE",
"-12 106 CURVE",
"-30 96 LINE",
"-5 37 OFFCURVE",
"58 -3 OFFCURVE",
"137 -3 CURVE SMOOTH"
);
},
{
closed = 1;
nodes = (
"488 345 LINE",
"492 364 LINE",
"181 364 LINE",
"177 345 LINE"
);
}
);
width = 474;
},
{
anchors = (
{
name = top;
position = "{331, 700}";
}
);
layerId = "C4221BDF-4AE8-4E40-821A-B2476087DE1A";
paths = (
{
closed = 1;
nodes = (
"302 -9 OFFCURVE",
"384 52 OFFCURVE",
"418 224 CURVE SMOOTH",
"513 700 LINE",
"150 700 LINE",
"130 601 LINE",
"381 601 LINE",
"305 219 LINE SMOOTH",
"287 127 OFFCURVE",
"241 90 OFFCURVE",
"169 90 CURVE SMOOTH",
"108 90 OFFCURVE",
"62 119 OFFCURVE",
"35 169 CURVE",
"-43 94 LINE",
"-6 29 OFFCURVE",
"68 -9 OFFCURVE",
"167 -9 CURVE SMOOTH"
);
},
{
closed = 1;
nodes = (
"538 314 LINE",
"555 404 LINE",
"192 404 LINE",
"175 314 LINE"
);
}
);
width = 520;
},
{
anchors = (
{
name = top;
position = "{373, 700}";
}
);
layerId = "5DA6E103-6A94-47F2-987D-4952DB8EA68E";
paths = (
{
closed = 1;
nodes = (
"374 -16 OFFCURVE",
"480 58 OFFCURVE",
"520 260 CURVE SMOOTH",
"608 700 LINE",
"137 700 LINE",
"101 522 LINE",
"339 522 LINE",
"284 246 LINE SMOOTH",
"274 197 OFFCURVE",
"245 169 OFFCURVE",
"200 169 CURVE SMOOTH",
"158 169 OFFCURVE",
"124 191 OFFCURVE",
"93 235 CURVE",
"-58 92 LINE",
"-6 20 OFFCURVE",
"78 -16 OFFCURVE",
"196 -16 CURVE SMOOTH"
);
},
{
closed = 1;
nodes = (
"595 287 LINE",
"622 423 LINE",
"214 423 LINE",
"187 287 LINE"
);
}
);
width = 608;
}
);
leftKerningGroup = J;
leftMetricsKey = J;
rightKerningGroup = Istroke;
unicode = 0248;
},
{
glyphname = K;
layers = (
{
anchors = (
{
name = bottom;
position = "{318, 0}";
},
{
name = top;
position = "{458, 700}";
}
);
layerId = UUID0;
paths = (
{
closed = 1;
nodes = (
"353 369 LINE",
"361 376 LINE",
"742 700 LINE",
"712 700 LINE",
"140 213 LINE",
"133 182 LINE"
);
},
{
closed = 1;
nodes = (
"101 0 LINE",
"241 700 LINE",
"221 700 LINE",
"81 0 LINE"
);
},
{
closed = 1;
nodes = (
"625 0 LINE",
"357 387 LINE",
"340 377 LINE",
"601 0 LINE"
);
}
);
width = 693;
},
{
anchors = (
{
name = bottom;
position = "{329, 0}";
},
{
name = top;
position = "{469, 700}";
}
);
guideLines = (
{
angle = 48.4917;
position = "{961, 544}";
}
);
layerId = "5DA6E103-6A94-47F2-987D-4952DB8EA68E";
paths = (
{
closed = 1;
nodes = (
"342 236 LINE",
"502 374 LINE",
"861 700 LINE",
"590 700 LINE",
"278 409 LINE",
"243 144 LINE"
);
},
{
closed = 1;
nodes = (
"234 0 LINE",
"374 700 LINE",
"142 700 LINE",
"2 0 LINE"
);
},
{
closed = 1;
nodes = (
"738 0 LINE",
"481 430 LINE",
"306 272 LINE",
"475 0 LINE"
);
}
);
width = 765;
},
{
anchors = (
{
name = bottom;
position = "{323, 0}";
},
{
name = top;
position = "{463, 700}";
}
);
layerId = "C4221BDF-4AE8-4E40-821A-B2476087DE1A";
paths = (
{
closed = 1;
nodes = (
"354 316 LINE",
"426 375 LINE",
"802 700 LINE",
"654 700 LINE",
"200 308 LINE",
"186 171 LINE"
);
},
{
closed = 1;
nodes = (
"161 0 LINE",
"301 700 LINE",
"187 700 LINE",
"47 0 LINE"
);
},
{
closed = 1;
nodes = (
"675 0 LINE",
"402 404 LINE",
"326 326 LINE",
"547 0 LINE"
);
}
);
width = 724;
}
);
leftKerningGroup = H;
leftMetricsKey = H;
rightKerningGroup = K;
unicode = 004B;
},
{
glyphname = Khook;
layers = (
{
anchors = (
{
name = bottom;
position = "{318, 0}";
},
{
name = top;
position = "{458, 700}";
}
);
layerId = UUID0;
paths = (
{
closed = 1;
nodes = (
"648 673 LINE SMOOTH",
"710 730 OFFCURVE",
"749 732 OFFCURVE",
"774 712 CURVE",
"787 727 LINE",
"755 753 OFFCURVE",
"706 752 OFFCURVE",
"636 688 CURVE SMOOTH",
"145 243 LINE",
"140 212 LINE"
);
},
{
closed = 1;
nodes = (
"101 0 LINE",
"241 700 LINE",
"221 700 LINE",
"81 0 LINE"
);
},
{
closed = 1;
nodes = (
"625 0 LINE",
"343 408 LINE",
"328 395 LINE",
"601 0 LINE"
);
}
);
width = 682;
},
{
anchors = (
{
name = bottom;
position = "{323, 0}";
},
{
name = top;
position = "{463, 700}";
}
);
layerId = "C4221BDF-4AE8-4E40-821A-B2476087DE1A";
paths = (
{
closed = 1;
nodes = (
"660 611 LINE SMOOTH",
"708 655 OFFCURVE",
"743 660 OFFCURVE",
"768 637 CURVE",
"824 710 LINE",
"775 761 OFFCURVE",
"692 770 OFFCURVE",
"586 674 CURVE SMOOTH",
"197 319 LINE",
"185 182 LINE"
);
},
{
closed = 1;
nodes = (
"159 0 LINE",
"299 700 LINE",
"187 700 LINE",
"47 0 LINE"
);
},
{
closed = 1;
nodes = (
"675 0 LINE",
"402 404 LINE",
"326 326 LINE",
"546 0 LINE"
);
}
);
width = 713;
},
{
anchors = (
{
name = bottom;
position = "{328, 0}";
},
{
name = top;
position = "{468, 700}";
}
);
layerId = "5DA6E103-6A94-47F2-987D-4952DB8EA68E";
paths = (
{
closed = 1;
nodes = (
"676 532 LINE SMOOTH",
"705 559 OFFCURVE",
"734 568 OFFCURVE",
"760 540 CURVE",
"872 688 LINE",
"801 771 OFFCURVE",
"685 789 OFFCURVE",
"534 648 CURVE SMOOTH",
"278 409 LINE",
"243 144 LINE"
);
},
{
closed = 1;
nodes = (
"234 0 LINE",
"374 700 LINE",
"142 700 LINE",
"2 0 LINE"
);
},
{
closed = 1;
nodes = (
"738 0 LINE",
"481 430 LINE",
"306 272 LINE",
"475 0 LINE"
);
}
);
width = 770;
}
);
leftKerningGroup = H;
leftMetricsKey = K;
rightKerningGroup = K;
unicode = 0198;
},
{
glyphname = Kstroke;
layers = (
{
anchors = (
{
name = bottom;
position = "{292, 0}";
},
{
name = top;
position = "{432, 700}";
}
);
layerId = UUID0;
paths = (
{
closed = 1;
nodes = (
"742 700 LINE",
"712 700 LINE",
"140 213 LINE",
"133 182 LINE"
);
},
{
closed = 1;
nodes = (
"101 0 LINE",
"241 700 LINE",
"221 700 LINE",
"81 0 LINE"
);
},
{
closed = 1;
nodes = (
"625 0 LINE",
"357 387 LINE",
"340 377 LINE",
"601 0 LINE"
);
},
{
closed = 1;
nodes = (
"386 575 LINE",
"390 594 LINE",
"80 594 LINE",
"76 575 LINE"
);
}
);
width = 693;
},
{
anchors = (
{
name = bottom;
position = "{352, 0}";
},
{
name = top;
position = "{492, 700}";
}
);
layerId = "C4221BDF-4AE8-4E40-821A-B2476087DE1A";
paths = (
{
closed = 1;
nodes = (
"831 700 LINE",
"683 700 LINE",
"229 308 LINE",
"215 171 LINE"
);
},
{
closed = 1;
nodes = (
"190 0 LINE",
"330 700 LINE",
"216 700 LINE",
"76 0 LINE"
);
},
{
closed = 1;
nodes = (
"704 0 LINE",
"431 404 LINE",
"355 326 LINE",
"576 0 LINE"
);
},
{
closed = 1;
nodes = (
"444 519 LINE",
"461 607 LINE",
"97 607 LINE",
"80 519 LINE"
);
}
);
width = 768;
},
{
anchors = (
{
name = bottom;
position = "{330, 0}";
},
{
name = top;
position = "{470, 700}";
}
);
layerId = "5DA6E103-6A94-47F2-987D-4952DB8EA68E";
paths = (
{
closed = 1;
nodes = (
"886 700 LINE",
"624 700 LINE",
"299 369 LINE",
"244 82 LINE"
);
},
{
closed = 1;
nodes = (
"259 0 LINE",
"399 700 LINE",
"167 700 LINE",
"27 0 LINE"
);
},
{
closed = 1;
nodes = (
"760 0 LINE",
"521 414 LINE",
"346 252 LINE",
"493 0 LINE"
);
},
{
closed = 1;
nodes = (
"459 542 LINE",
"481 652 LINE",
"86 652 LINE",
"64 542 LINE"
);
}
);
width = 818;
}
);
leftKerningGroup = Istroke;
rightKerningGroup = K;
unicode = A740;
},
{
glyphname = L;
layers = (
{
anchors = (
{
name = bottom;
position = "{310, 0}";
},
{
name = center;
position = "{181, 371}";
},
{
name = dot;
position = "{470, 387}";
},
{
name = top;
position = "{231, 700}";
},
{
name = topright;
position = "{534, 700}";
}
);
guideLines = (
{
angle = 90;
position = "{360, 31}";
}
);
layerId = UUID0;
paths = (
{
closed = 1;
nodes = (
"518 0 LINE",
"522 19 LINE",
"105 19 LINE",
"241 700 LINE",
"221 700 LINE",
"81 0 LINE"
);
}
);
width = 580;
},
{
anchors = (
{
name = bottom;
position = "{290, 0}";
},
{
name = center;
position = "{205, 390}";
},
{
name = dot;
position = "{526, 435}";
},
{
name = top;
position = "{260, 700}";
},
{
name = topright;
position = "{508, 700}";
}
);
guideLines = (
{
angle = 90;
position = "{426, 193}";
}
);
layerId = "5DA6E103-6A94-47F2-987D-4952DB8EA68E";
paths = (
{
closed = 1;
nodes = (
"554 0 LINE",
"591 183 LINE",
"275 183 LINE",
"378 700 LINE",
"142 700 LINE",
"2 0 LINE"
);
}
);
width = 617;
},
{
anchors = (
{
name = bottom;
position = "{302, 0}";
},
{
name = center;
position = "{194, 374}";
},
{
name = dot;
position = "{474, 407}";
},
{
name = top;
position = "{245, 700}";
},
{
name = topright;
position = "{524, 700}";
}
);
layerId = "C4221BDF-4AE8-4E40-821A-B2476087DE1A";
paths = (
{
closed = 1;
nodes = (
"534 0 LINE",
"554 99 LINE",
"181 99 LINE",
"301 700 LINE",
"187 700 LINE",
"47 0 LINE"
);
}
);
width = 596;
}
);
leftKerningGroup = H;
leftMetricsKey = H;
rightKerningGroup = L;
unicode = 004C;
},
{
glyphname = Lbar;
layers = (
{
anchors = (
{
name = bottom;
position = "{316, 0}";
},
{
name = center;
position = "{187, 371}";
},
{
name = dot;
position = "{476, 386}";
},
{
name = top;
position = "{237, 700}";
},
{
name = topright;
position = "{540, 700}";
}
);
layerId = UUID0;
paths = (
{
closed = 1;
nodes = (
"524 0 LINE",
"528 19 LINE",
"111 19 LINE",
"247 700 LINE",
"227 700 LINE",
"87 0 LINE"
);
},
{
closed = 1;
nodes = (
"346 345 LINE",
"350 364 LINE",
"40 364 LINE",
"36 345 LINE"
);
}
);
width = 586;
},
{
anchors = (
{
name = bottom;
position = "{313, 0}";
},
{
name = center;
position = "{205, 374}";
},
{
name = dot;
position = "{485, 409}";
},
{
name = top;
position = "{256, 700}";
},
{
name = topright;
position = "{535, 700}";
}
);
layerId = "C4221BDF-4AE8-4E40-821A-B2476087DE1A";
paths = (
{
closed = 1;
nodes = (
"545 0 LINE",
"565 99 LINE",
"192 99 LINE",
"312 700 LINE",
"198 700 LINE",
"58 0 LINE"
);
},
{
closed = 1;
nodes = (
"387 314 LINE",
"404 404 LINE",
"38 404 LINE",
"21 314 LINE"
);
}
);
width = 607;
},
{
anchors = (
{
name = bottom;
position = "{290, 0}";
},
{
name = center;
position = "{205, 390}";
},
{
name = dot;
position = "{526, 441}";
},
{
name = top;
position = "{260, 700}";
},
{
name = topright;
position = "{508, 700}";
}
);
layerId = "5DA6E103-6A94-47F2-987D-4952DB8EA68E";
paths = (
{
closed = 1;
nodes = (
"554 0 LINE",
"591 183 LINE",
"275 183 LINE",
"378 700 LINE",
"142 700 LINE",
"2 0 LINE"
);
},
{
closed = 1;
nodes = (
"400 287 LINE",
"428 423 LINE",
"17 423 LINE",
"-11 287 LINE"
);
}
);
width = 617;
}
);
leftKerningGroup = Istroke;
rightKerningGroup = L;
unicode = 023D;
},
{
glyphname = Lbelt;
layers = (
{
anchors = (
{
name = bottom;
position = "{310, 0}";
},
{
name = center;
position = "{163, 360}";
},
{
name = dot;
position = "{453, 360}";
},
{
name = top;
position = "{231, 700}";
},
{
name = topright;
position = "{534, 700}";
}
);
layerId = UUID0;
paths = (
{
closed = 1;
nodes = (
"518 0 LINE",
"522 19 LINE",
"105 19 LINE",
"241 700 LINE",
"221 700 LINE",
"81 0 LINE"
);
},
{
closed = 1;
nodes = (
"412 346 LINE",
"415 365 LINE",
"120 365 LINE SMOOTH",
"57 365 OFFCURVE",
"21 393 OFFCURVE",
"29 435 CURVE SMOOTH",
"35 465 OFFCURVE",
"59 484 OFFCURVE",
"91 484 CURVE SMOOTH",
"142 484 OFFCURVE",
"168 435 OFFCURVE",
"154 365 CURVE",
"173 365 LINE",
"189 445 OFFCURVE",
"155 503 OFFCURVE",
"92 503 CURVE SMOOTH",
"52 503 OFFCURVE",
"17 479 OFFCURVE",
"9 437 CURVE SMOOTH",
"-1 383 OFFCURVE",
"44 346 OFFCURVE",
"118 346 CURVE SMOOTH"
);
}
);
width = 580;
},
{
anchors = (
{
name = bottom;
position = "{353, 0}";
},
{
name = center;
position = "{231, 379}";
},
{
name = dot;
position = "{533, 399}";
},
{
name = top;
position = "{295, 700}";
},
{
name = topright;
position = "{574, 700}";
}
);
layerId = "C4221BDF-4AE8-4E40-821A-B2476087DE1A";
paths = (
{
closed = 1;
nodes = (
"585 0 LINE",
"605 99 LINE",
"232 99 LINE",
"352 700 LINE",
"238 700 LINE",
"98 0 LINE"
);
},
{
closed = 1;
nodes = (
"488 314 LINE",
"505 404 LINE",
"161 404 LINE SMOOTH",
"120 404 OFFCURVE",
"88 422 OFFCURVE",
"93 455 CURVE SMOOTH",
"96 475 OFFCURVE",
"111 487 OFFCURVE",
"132 487 CURVE SMOOTH",
"167 487 OFFCURVE",
"188 451 OFFCURVE",
"179 404 CURVE",
"236 404 LINE",
"255 502 OFFCURVE",
"212 567 OFFCURVE",
"129 567 CURVE SMOOTH",
"63 567 OFFCURVE",
"15 527 OFFCURVE",
"2 462 CURVE SMOOTH",
"-15 375 OFFCURVE",
"42 314 OFFCURVE",
"139 314 CURVE SMOOTH"
);
}
);
width = 647;
},
{
anchors = (
{
name = bottom;
position = "{423, 0}";
},
{
name = center;
position = "{333, 400}";
},
{
name = dot;
position = "{650, 441}";
},
{
name = top;
position = "{393, 700}";
},
{
name = topright;
position = "{641, 700}";
}
);
layerId = "5DA6E103-6A94-47F2-987D-4952DB8EA68E";
paths = (
{
closed = 1;
nodes = (
"687 0 LINE",
"724 183 LINE",
"408 183 LINE",
"511 700 LINE",
"275 700 LINE",
"135 0 LINE"
);
},
{
closed = 1;
nodes = (
"603 307 LINE",
"629 450 LINE",
"198 450 LINE SMOOTH",
"162 450 OFFCURVE",
"141 466 OFFCURVE",
"146 491 CURVE SMOOTH",
"149 506 OFFCURVE",
"161 520 OFFCURVE",
"181 520 CURVE SMOOTH",
"210 520 OFFCURVE",
"229 490 OFFCURVE",
"225 450 CURVE",
"299 450 LINE",
"322 559 OFFCURVE",
"276 629 OFFCURVE",
"183 629 CURVE SMOOTH",
"96 629 OFFCURVE",
"29 568 OFFCURVE",
"15 477 CURVE SMOOTH",
"-1 373 OFFCURVE",
"66 307 OFFCURVE",
"176 307 CURVE SMOOTH"
);
}
);
width = 750;
}
);
leftKerningGroup = Lbar;
rightKerningGroup = L;
unicode = A7AD;
},
{
glyphname = Ldoublebar;
layers = (
{
anchors = (
{
name = bottom;
position = "{341, 0}";
},
{
name = center;
position = "{212, 371}";
},
{
name = dot;
position = "{501, 386}";
},
{
name = top;
position = "{262, 700}";
},
{
name = topright;
position = "{565, 700}";
}
);
layerId = UUID0;
paths = (
{
closed = 1;
nodes = (
"549 0 LINE",
"553 19 LINE",
"136 19 LINE",
"272 700 LINE",
"252 700 LINE",
"112 0 LINE"
);
},
{
closed = 1;
nodes = (
"390 441 LINE",
"394 460 LINE",
"84 460 LINE",
"80 441 LINE"
);
},
{
closed = 1;
nodes = (
"362 302 LINE",
"366 321 LINE",
"56 321 LINE",
"52 302 LINE"
);
}
);
width = 611;
},
{
anchors = (
{
name = bottom;
position = "{337, 0}";
},
{
name = center;
position = "{229, 374}";
},
{
name = dot;
position = "{509, 409}";
},
{
name = top;
position = "{280, 700}";
},
{
name = topright;
position = "{559, 700}";
}
);
layerId = "C4221BDF-4AE8-4E40-821A-B2476087DE1A";
paths = (
{
closed = 1;
nodes = (
"569 0 LINE",
"589 99 LINE",
"216 99 LINE",
"336 700 LINE",
"222 700 LINE",
"82 0 LINE"
);
},
{
closed = 1;
nodes = (
"436 431 LINE",
"453 519 LINE",
"86 519 LINE",
"70 431 LINE"
);
},
{
closed = 1;
nodes = (
"402 268 LINE",
"419 356 LINE",
"52 356 LINE",
"36 268 LINE"
);
}
);
width = 631;
},
{
anchors = (
{
name = bottom;
position = "{332, 0}";
},
{
name = center;
position = "{247, 390}";
},
{
name = dot;
position = "{568, 441}";
},
{
name = top;
position = "{302, 700}";
},
{
name = topright;
position = "{550, 700}";
}
);
layerId = "5DA6E103-6A94-47F2-987D-4952DB8EA68E";
paths = (
{
closed = 1;
nodes = (
"596 0 LINE",
"633 183 LINE",
"317 183 LINE",
"420 700 LINE",
"184 700 LINE",
"44 0 LINE"
);
},
{
closed = 1;
nodes = (
"466 407 LINE",
"493 543 LINE",
"82 543 LINE",
"55 407 LINE"
);
},
{
closed = 1;
nodes = (
"434 246 LINE",
"461 382 LINE",
"50 382 LINE",
"23 246 LINE"
);
}
);
width = 659;
}
);
leftKerningGroup = Lbar;
rightKerningGroup = L;
rightMetricsKey = L;
unicode = 2C60;
},
{
glyphname = Lmiddletilde;
layers = (
{
anchors = (
{
name = bottom;
position = "{304, 0}";
},
{
name = top;
position = "{235, 700}";
},
{
name = topright;
position = "{538, 700}";
}
);
layerId = UUID0;
paths = (
{
closed = 1;
nodes = (
"522 0 LINE",
"526 19 LINE",
"109 19 LINE",
"245 700 LINE",
"225 700 LINE",
"85 0 LINE"
);
},
{
closed = 1;
nodes = (
"285 332 OFFCURVE",
"317 366 OFFCURVE",
"329 416 CURVE",
"310 416 LINE",
"300 377 OFFCURVE",
"275 351 OFFCURVE",
"243 351 CURVE SMOOTH",
"198 351 OFFCURVE",
"187 420 OFFCURVE",
"130 420 CURVE SMOOTH",
"87 420 OFFCURVE",
"53 386 OFFCURVE",
"40 334 CURVE",
"59 334 LINE",
"69 375 OFFCURVE",
"98 401 OFFCURVE",
"130 401 CURVE SMOOTH",
"175 401 OFFCURVE",
"185 332 OFFCURVE",
"242 332 CURVE SMOOTH"
);
}
);
width = 584;
},
{
anchors = (
{
name = bottom;
position = "{308, 0}";
},
{
name = top;
position = "{261, 700}";
},
{
name = topright;
position = "{540, 700}";
}
);
layerId = "C4221BDF-4AE8-4E40-821A-B2476087DE1A";
paths = (
{
closed = 1;
nodes = (
"551 0 LINE",
"571 99 LINE",
"198 99 LINE",
"318 700 LINE",
"204 700 LINE",
"64 0 LINE"
);
},
{
closed = 1;
nodes = (
"360 330 OFFCURVE",
"402 379 OFFCURVE",
"419 452 CURVE",
"360 452 LINE",
"351 417 OFFCURVE",
"328 395 OFFCURVE",
"294 395 CURVE SMOOTH",
"247 395 OFFCURVE",
"194 460 OFFCURVE",
"121 460 CURVE SMOOTH",
"53 460 OFFCURVE",
"11 411 OFFCURVE",
"-6 336 CURVE",
"53 336 LINE",
"62 373 OFFCURVE",
"85 395 OFFCURVE",
"119 395 CURVE SMOOTH",
"166 395 OFFCURVE",
"218 330 OFFCURVE",
"292 330 CURVE SMOOTH"
);
}
);
width = 618;
},
{
anchors = (
{
name = bottom;
position = "{368, 0}";
},
{
name = top;
position = "{350, 700}";
},
{
name = topright;
position = "{598, 700}";
}
);
layerId = "5DA6E103-6A94-47F2-987D-4952DB8EA68E";
paths = (
{
closed = 1;
nodes = (
"644 0 LINE",
"681 183 LINE",
"365 183 LINE",
"468 700 LINE",
"232 700 LINE",
"92 0 LINE"
);
},
{
closed = 1;
nodes = (
"512 314 OFFCURVE",
"574 382 OFFCURVE",
"597 484 CURVE",
"487 484 LINE",
"479 455 OFFCURVE",
"459 438 OFFCURVE",
"423 438 CURVE SMOOTH",
"374 438 OFFCURVE",
"266 497 OFFCURVE",
"171 497 CURVE SMOOTH",
"71 497 OFFCURVE",
"19 429 OFFCURVE",
"-5 324 CURVE",
"105 324 LINE",
"115 355 OFFCURVE",
"124 373 OFFCURVE",
"160 373 CURVE SMOOTH",
"210 373 OFFCURVE",
"317 314 OFFCURVE",
"412 314 CURVE SMOOTH"
);
}
);
width = 715;
}
);
leftKerningGroup = Lbar;
rightKerningGroup = L;
unicode = 2C62;
},
{
glyphname = M;
layers = (
{
anchors = (
{
name = bottom;
position = "{426, 0}";
},
{
name = top;
position = "{566, 700}";
}
);
layerId = UUID0;
paths = (
{
closed = 1;
nodes = (
"101 0 LINE",
"235 671 LINE",
"227 672 LINE",
"446 99 LINE",
"458 99 LINE",
"894 669 LINE",
"885 671 LINE",
"751 0 LINE",
"771 0 LINE",
"911 700 LINE",
"892 700 LINE",
"451 121 LINE",
"460 118 LINE",
"238 700 LINE",
"221 700 LINE",
"81 0 LINE"
);
}
);
width = 956;
},
{
anchors = (
{
name = bottom;
position = "{421, 0}";
},
{
name = top;
position = "{561, 700}";
}
);
layerId = "5DA6E103-6A94-47F2-987D-4952DB8EA68E";
paths = (
{
closed = 1;
nodes = (
"217 0 LINE",
"292 376 LINE",
"252 379 LINE",
"388 63 LINE",
"492 63 LINE",
"734 378 LINE",
"700 376 LINE",
"627 0 LINE",
"842 0 LINE",
"980 700 LINE",
"779 700 LINE",
"419 243 LINE",
"521 243 LINE",
"334 700 LINE",
"142 700 LINE",
"2 0 LINE"
);
}
);
width = 954;
},
{
anchors = (
{
name = bottom;
position = "{425, 0}";
},
{
name = top;
position = "{565, 700}";
}
);
layerId = "C4221BDF-4AE8-4E40-821A-B2476087DE1A";
paths = (
{
closed = 1;
nodes = (
"157 0 LINE",
"262 526 LINE",
"239 530 LINE",
"422 82 LINE",
"474 82 LINE",
"826 528 LINE",
"798 530 LINE",
"692 0 LINE",
"802 0 LINE",
"942 700 LINE",
"843 700 LINE",
"438 180 LINE",
"487 179 LINE",
"280 700 LINE",
"187 700 LINE",
"47 0 LINE"
);
}
);
width = 955;
}
);
leftKerningGroup = H;
leftMetricsKey = H;
rightKerningGroup = H;
rightMetricsKey = H;
unicode = 004D;
},
{
glyphname = Mhook;
layers = (
{
anchors = (
{
name = bottom;
position = "{430, 0}";
},
{
name = top;
position = "{570, 700}";
}
);
layerId = UUID0;
paths = (
{
closed = 1;
nodes = (
"603 -235 OFFCURVE",
"738 -188 OFFCURVE",
"760 -78 CURVE SMOOTH",
"915 700 LINE",
"896 700 LINE",
"455 121 LINE",
"464 118 LINE",
"242 700 LINE",
"225 700 LINE",
"85 0 LINE",
"105 0 LINE",
"239 671 LINE",
"231 672 LINE",
"450 99 LINE",
"462 99 LINE",
"898 669 LINE",
"889 671 LINE",
"740 -74 LINE SMOOTH",
"721 -170 OFFCURVE",
"607 -210 OFFCURVE",
"534 -145 CURVE",
"523 -161 LINE"
);
}
);
width = 960;
},
{
anchors = (
{
name = bottom;
position = "{429, 0}";
},
{
name = top;
position = "{569, 700}";
}
);
layerId = "C4221BDF-4AE8-4E40-821A-B2476087DE1A";
paths = (
{
closed = 1;
nodes = (
"586 -239 OFFCURVE",
"767 -198 OFFCURVE",
"800 -31 CURVE SMOOTH",
"945 700 LINE",
"851 700 LINE",
"441 181 LINE",
"491 181 LINE",
"285 700 LINE",
"191 700 LINE",
"51 0 LINE",
"161 0 LINE",
"266 526 LINE",
"246 526 LINE",
"426 82 LINE",
"478 82 LINE",
"833 526 LINE",
"800 526 LINE",
"690 -27 LINE SMOOTH",
"674 -108 OFFCURVE",
"586 -127 OFFCURVE",
"529 -85 CURVE",
"480 -168 LINE"
);
}
);
width = 959;
},
{
anchors = (
{
name = bottom;
position = "{425, 0}";
},
{
name = top;
position = "{565, 700}";
}
);
layerId = "5DA6E103-6A94-47F2-987D-4952DB8EA68E";
paths = (
{
closed = 1;
nodes = (
"657 -255 OFFCURVE",
"812 -179 OFFCURVE",
"851 22 CURVE SMOOTH",
"985 700 LINE",
"784 700 LINE",
"424 243 LINE",
"526 243 LINE",
"339 700 LINE",
"147 700 LINE",
"7 0 LINE",
"222 0 LINE",
"297 376 LINE",
"257 379 LINE",
"393 63 LINE",
"497 63 LINE",
"739 378 LINE",
"705 376 LINE",
"639 37 LINE SMOOTH",
"626 -31 OFFCURVE",
"577 -50 OFFCURVE",
"499 -18 CURVE",
"444 -177 LINE"
);
}
);
width = 958;
}
);
leftKerningGroup = H;
rightKerningGroup = H;
rightMetricsKey = M;
unicode = 2C6E;
},
{
glyphname = Mturned;
layers = (
{
anchors = (
{
name = bottom;
position = "{528, 0}";
},
{
name = top;
position = "{668, 700}";
}
);
layerId = UUID0;
paths = (
{
closed = 1;
nodes = (
"1123 700 LINE",
"1027 255 LINE SMOOTH",
"991 89 OFFCURVE",
"890 16 OFFCURVE",
"760 16 CURVE SMOOTH",
"618 16 OFFCURVE",
"556 96 OFFCURVE",
"591 259 CURVE SMOOTH",
"686 700 LINE",
"665 700 LINE",
"575 279 LINE SMOOTH",
"536 97 OFFCURVE",
"439 16 OFFCURVE",
"304 16 CURVE SMOOTH",
"161 16 OFFCURVE",
"98 96 OFFCURVE",
"133 259 CURVE SMOOTH",
"228 700 LINE",
"209 700 LINE",
"114 258 LINE SMOOTH",
"77 85 OFFCURVE",
"153 -3 OFFCURVE",
"303 -3 CURVE SMOOTH",
"414 -3 OFFCURVE",
"509 51 OFFCURVE",
"565 182 CURVE",
"561 182 LINE",
"559 59 OFFCURVE",
"632 -3 OFFCURVE",
"758 -3 CURVE SMOOTH",
"864 -3 OFFCURVE",
"958 45 OFFCURVE",
"1010 151 CURVE",
"1005 156 LINE",
"972 0 LINE",
"991 0 LINE",
"1143 700 LINE"
);
}
);
width = 1188;
},
{
anchors = (
{
name = bottom;
position = "{528, 0}";
},
{
name = top;
position = "{668, 700}";
}
);
layerId = "C4221BDF-4AE8-4E40-821A-B2476087DE1A";
paths = (
{
closed = 1;
nodes = (
"1072 700 LINE",
"989 282 LINE SMOOTH",
"962 149 OFFCURVE",
"873 93 OFFCURVE",
"774 93 CURVE SMOOTH",
"676 93 OFFCURVE",
"625 148 OFFCURVE",
"649 270 CURVE SMOOTH",
"735 700 LINE",
"621 700 LINE",
"538 282 LINE SMOOTH",
"512 151 OFFCURVE",
"428 93 OFFCURVE",
"328 93 CURVE SMOOTH",
"230 93 OFFCURVE",
"174 148 OFFCURVE",
"198 270 CURVE SMOOTH",
"284 700 LINE",
"170 700 LINE",
"84 266 LINE SMOOTH",
"48 87 OFFCURVE",
"136 -9 OFFCURVE",
"298 -9 CURVE SMOOTH",
"417 -9 OFFCURVE",
"505 43 OFFCURVE",
"561 131 CURVE",
"525 133 LINE",
"535 47 OFFCURVE",
"617 -9 OFFCURVE",
"737 -9 CURVE SMOOTH",
"850 -9 OFFCURVE",
"934 41 OFFCURVE",
"985 121 CURVE",
"964 137 LINE",
"936 0 LINE",
"1046 0 LINE",
"1186 700 LINE"
);
}
);
width = 1199;
},
{
anchors = (
{
name = bottom;
position = "{528, 0}";
},
{
name = top;
position = "{668, 700}";
}
);
layerId = "5DA6E103-6A94-47F2-987D-4952DB8EA68E";
paths = (
{
closed = 1;
nodes = (
"999 700 LINE",
"917 290 LINE SMOOTH",
"902 213 OFFCURVE",
"855 175 OFFCURVE",
"797 175 CURVE SMOOTH",
"740 175 OFFCURVE",
"712 211 OFFCURVE",
"726 282 CURVE SMOOTH",
"809 700 LINE",
"573 700 LINE",
"491 290 LINE SMOOTH",
"476 213 OFFCURVE",
"425 175 OFFCURVE",
"363 175 CURVE SMOOTH",
"302 175 OFFCURVE",
"270 211 OFFCURVE",
"284 282 CURVE SMOOTH",
"367 700 LINE",
"131 700 LINE",
"46 275 LINE SMOOTH",
"8 85 OFFCURVE",
"107 -16 OFFCURVE",
"262 -16 CURVE SMOOTH",
"380 -16 OFFCURVE",
"477 36 OFFCURVE",
"542 141 CURVE",
"475 149 LINE",
"488 40 OFFCURVE",
"553 -16 OFFCURVE",
"671 -16 CURVE SMOOTH",
"786 -16 OFFCURVE",
"865 38 OFFCURVE",
"918 135 CURVE",
"903 176 LINE",
"867 0 LINE",
"1095 0 LINE",
"1235 700 LINE"
);
}
);
width = 1207;
}
);
leftKerningGroup = U;
leftMetricsKey = U;
rightKerningGroup = H;
rightMetricsKey = H;
unicode = 019C;
},
{
glyphname = N;
layers = (
{
anchors = (
{
name = bottom;
position = "{356, 0}";
},
{
name = top;
position = "{496, 700}";
}
);
layerId = UUID0;
paths = (
{
closed = 1;
nodes = (
"101 0 LINE",
"236 675 LINE",
"228 678 LINE",
"614 0 LINE",
"631 0 LINE",
"771 700 LINE",
"751 700 LINE",
"616 25 LINE",
"624 22 LINE",
"238 700 LINE",
"221 700 LINE",
"81 0 LINE"
);
}
);
width = 816;
},
{
anchors = (
{
name = bottom;
position = "{347, 0}";
},
{
name = top;
position = "{487, 700}";
}
);
layerId = "5DA6E103-6A94-47F2-987D-4952DB8EA68E";
paths = (
{
closed = 1;
nodes = (
"232 0 LINE",
"317 426 LINE",
"235 426 LINE",
"498 0 LINE",
"692 0 LINE",
"832 700 LINE",
"602 700 LINE",
"517 274 LINE",
"599 274 LINE",
"336 700 LINE",
"142 700 LINE",
"2 0 LINE"
);
}
);
width = 804;
},
{
anchors = (
{
name = bottom;
position = "{353, 0}";
},
{
name = top;
position = "{493, 700}";
}
);
layerId = "C4221BDF-4AE8-4E40-821A-B2476087DE1A";
paths = (
{
closed = 1;
nodes = (
"161 0 LINE",
"272 555 LINE",
"237 560 LINE",
"564 0 LINE",
"658 0 LINE",
"798 700 LINE",
"684 700 LINE",
"573 145 LINE",
"608 140 LINE",
"281 700 LINE",
"187 700 LINE",
"47 0 LINE"
);
}
);
width = 811;
}
);
leftKerningGroup = H;
leftMetricsKey = H;
rightKerningGroup = H;
rightMetricsKey = H;
unicode = 004E;
},
{
glyphname = Nhookleft;
layers = (
{
anchors = (
{
name = bottom;
position = "{354, 0}";
},
{
name = top;
position = "{496, 700}";
}
);
layerId = UUID0;
paths = (
{
closed = 1;
nodes = (
"-42 -226 OFFCURVE",
"72 -178 OFFCURVE",
"92 -78 CURVE SMOOTH",
"192 423 LINE SMOOTH",
"227 600 OFFCURVE",
"341 684 OFFCURVE",
"492 684 CURVE SMOOTH",
"651 684 OFFCURVE",
"725 592 OFFCURVE",
"689 410 CURVE SMOOTH",
"607 0 LINE",
"627 0 LINE",
"709 411 LINE SMOOTH",
"747 603 OFFCURVE",
"660 703 OFFCURVE",
"494 703 CURVE SMOOTH",
"368 703 OFFCURVE",
"266 647 OFFCURVE",
"208 526 CURVE",
"212 524 LINE",
"247 700 LINE",
"227 700 LINE",
"72 -74 LINE SMOOTH",
"55 -161 OFFCURVE",
"-41 -202 OFFCURVE",
"-113 -160 CURVE",
"-122 -178 LINE"
);
}
);
width = 793;
},
{
anchors = (
{
name = bottom;
position = "{351, 0}";
},
{
name = top;
position = "{492, 700}";
}
);
layerId = "C4221BDF-4AE8-4E40-821A-B2476087DE1A";
paths = (
{
closed = 1;
nodes = (
"0 -236 OFFCURVE",
"131 -178 OFFCURVE",
"156 -51 CURVE SMOOTH",
"247 405 LINE SMOOTH",
"275 545 OFFCURVE",
"365 607 OFFCURVE",
"476 607 CURVE SMOOTH",
"596 607 OFFCURVE",
"650 538 OFFCURVE",
"622 400 CURVE SMOOTH",
"542 0 LINE",
"656 0 LINE",
"735 396 LINE SMOOTH",
"775 595 OFFCURVE",
"676 709 OFFCURVE",
"508 709 CURVE SMOOTH",
"397 709 OFFCURVE",
"311 663 OFFCURVE",
"255 581 CURVE",
"268 530 LINE",
"302 700 LINE",
"192 700 LINE",
"45 -32 LINE SMOOTH",
"32 -98 OFFCURVE",
"-11 -119 OFFCURVE",
"-81 -94 CURVE",
"-118 -181 LINE"
);
}
);
width = 792;
},
{
anchors = (
{
name = bottom;
position = "{348, 0}";
},
{
name = top;
position = "{488, 700}";
}
);
layerId = "5DA6E103-6A94-47F2-987D-4952DB8EA68E";
paths = (
{
closed = 1;
nodes = (
"55 -258 OFFCURVE",
"205 -192 OFFCURVE",
"243 0 CURVE SMOOTH",
"321 390 LINE SMOOTH",
"339 478 OFFCURVE",
"385 525 OFFCURVE",
"455 525 CURVE SMOOTH",
"525 525 OFFCURVE",
"553 478 OFFCURVE",
"535 389 CURVE SMOOTH",
"457 0 LINE",
"693 0 LINE",
"770 385 LINE SMOOTH",
"810 585 OFFCURVE",
"724 716 OFFCURVE",
"553 716 CURVE SMOOTH",
"456 716 OFFCURVE",
"373 668 OFFCURVE",
"319 581 CURVE",
"343 536 LINE",
"376 700 LINE",
"147 700 LINE",
"11 23 LINE SMOOTH",
"1 -28 OFFCURVE",
"-28 -39 OFFCURVE",
"-101 -16 CURVE",
"-158 -172 LINE"
);
}
);
width = 794;
}
);
leftKerningGroup = j;
rightKerningGroup = N.ss01;
rightMetricsKey = U;
unicode = 019D;
},
{
glyphname = Nlongrightleg;
layers = (
{
anchors = (
{
name = bottom;
position = "{347, 0}";
},
{
name = top;
position = "{489, 700}";
}
);
layerId = UUID0;
paths = (
{
closed = 1;
nodes = (
"366 703 OFFCURVE",
"264 647 OFFCURVE",
"206 526 CURVE",
"210 524 LINE",
"245 700 LINE",
"225 700 LINE",
"85 0 LINE",
"105 0 LINE",
"190 423 LINE SMOOTH",
"226 601 OFFCURVE",
"339 684 OFFCURVE",
"490 684 CURVE SMOOTH",
"649 684 OFFCURVE",
"723 592 OFFCURVE",
"687 410 CURVE SMOOTH",
"566 -194 LINE",
"586 -194 LINE",
"707 411 LINE SMOOTH",
"745 603 OFFCURVE",
"658 703 OFFCURVE",
"492 703 CURVE SMOOTH"
);
}
);
width = 793;
},
{
anchors = (
{
name = bottom;
position = "{363, 0}";
},
{
name = top;
position = "{504, 700}";
}
);
layerId = "C4221BDF-4AE8-4E40-821A-B2476087DE1A";
paths = (
{
closed = 1;
nodes = (
"396 709 OFFCURVE",
"310 663 OFFCURVE",
"254 581 CURVE",
"267 530 LINE",
"301 700 LINE",
"191 700 LINE",
"51 0 LINE",
"165 0 LINE",
"246 405 LINE SMOOTH",
"274 545 OFFCURVE",
"364 607 OFFCURVE",
"475 607 CURVE SMOOTH",
"595 607 OFFCURVE",
"649 538 OFFCURVE",
"621 400 CURVE SMOOTH",
"502 -194 LINE",
"616 -194 LINE",
"734 396 LINE SMOOTH",
"774 595 OFFCURVE",
"675 709 OFFCURVE",
"507 709 CURVE SMOOTH"
);
}
);
width = 793;
},
{
anchors = (
{
name = bottom;
position = "{354, 0}";
},
{
name = top;
position = "{494, 700}";
}
);
layerId = "5DA6E103-6A94-47F2-987D-4952DB8EA68E";
paths = (
{
closed = 1;
nodes = (
"454 716 OFFCURVE",
"369 670 OFFCURVE",
"314 581 CURVE",
"338 536 LINE",
"371 700 LINE",
"142 700 LINE",
"2 0 LINE",
"238 0 LINE",
"316 390 LINE SMOOTH",
"336 489 OFFCURVE",
"389 525 OFFCURVE",
"450 525 CURVE SMOOTH",
"518 525 OFFCURVE",
"548 480 OFFCURVE",
"530 389 CURVE SMOOTH",
"413 -194 LINE",
"649 -194 LINE",
"765 385 LINE SMOOTH",
"806 589 OFFCURVE",
"715 716 OFFCURVE",
"548 716 CURVE SMOOTH"
);
}
);
width = 806;
}
);
leftKerningGroup = H;
rightKerningGroup = H;
unicode = 0220;
},
{
glyphname = Eng;
layers = (
{
anchors = (
{
name = bottom;
position = "{317, -195}";
},
{
name = top;
position = "{496, 700}";
}
);
layerId = UUID0;
paths = (
{
closed = 1;
nodes = (
"101 0 LINE",
"236 677 LINE",
"228 678 LINE",
"614 1 LINE",
"624 23 LINE",
"238 700 LINE",
"221 700 LINE",
"81 0 LINE"
);
},
{
closed = 1;
nodes = (
"537 -197 OFFCURVE",
"602 -145 OFFCURVE",
"630 -4 CURVE SMOOTH",
"771 700 LINE",
"751 700 LINE",
"611 2 LINE SMOOTH",
"584 -131 OFFCURVE",
"527 -178 OFFCURVE",
"434 -178 CURVE SMOOTH",
"361 -178 OFFCURVE",
"307 -143 OFFCURVE",
"282 -88 CURVE",
"264 -98 LINE",
"289 -157 OFFCURVE",
"352 -197 OFFCURVE",
"431 -197 CURVE SMOOTH"
);
}
);
width = 816;
},
{
anchors = (
{
name = bottom;
position = "{319, -204}";
},
{
name = top;
position = "{487, 700}";
}
);
layerId = "5DA6E103-6A94-47F2-987D-4952DB8EA68E";
paths = (
{
closed = 1;
nodes = (
"232 0 LINE",
"317 426 LINE",
"235 426 LINE",
"498 0 LINE",
"599 274 LINE",
"336 700 LINE",
"142 700 LINE",
"2 0 LINE"
);
},
{
closed = 1;
nodes = (
"553 -204 OFFCURVE",
"664 -142 OFFCURVE",
"712 100 CURVE SMOOTH",
"832 700 LINE",
"602 700 LINE",
"475 67 LINE SMOOTH",
"462 0 OFFCURVE",
"435 -20 OFFCURVE",
"390 -20 CURVE SMOOTH",
"362 -20 OFFCURVE",
"336 -11 OFFCURVE",
"313 5 CURVE",
"192 -148 LINE",
"242 -184 OFFCURVE",
"319 -204 OFFCURVE",
"385 -204 CURVE SMOOTH"
);
}
);
width = 804;
},
{
anchors = (
{
name = bottom;
position = "{314, -195}";
},
{
name = top;
position = "{493, 700}";
}
);
layerId = "C4221BDF-4AE8-4E40-821A-B2476087DE1A";
paths = (
{
closed = 1;
nodes = (
"161 0 LINE",
"272 555 LINE",
"237 560 LINE",
"564 0 LINE",
"608 140 LINE",
"281 700 LINE",
"187 700 LINE",
"47 0 LINE"
);
},
{
closed = 1;
nodes = (
"547 -200 OFFCURVE",
"629 -144 OFFCURVE",
"667 46 CURVE SMOOTH",
"798 700 LINE",
"684 700 LINE",
"549 24 LINE SMOOTH",
"531 -67 OFFCURVE",
"489 -102 OFFCURVE",
"417 -102 CURVE SMOOTH",
"365 -102 OFFCURVE",
"322 -79 OFFCURVE",
"296 -43 CURVE",
"232 -122 LINE",
"267 -170 OFFCURVE",
"339 -200 OFFCURVE",
"414 -200 CURVE SMOOTH"
);
}
);
width = 811;
}
);
leftKerningGroup = H;
leftMetricsKey = H;
rightKerningGroup = H;
rightMetricsKey = H;
unicode = 014A;
},
{
glyphname = O;
layers = (
{
anchors = (
{
name = bottom;
position = "{366, 0}";
},
{
name = center;
position = "{435, 350}";
},
{
name = ogonek;
position = "{417, 0}";
},
{
name = top;
position = "{506, 700}";
},
{
name = topleft;
position = "{147, 700}";
},
{
name = topright;
position = "{755, 700}";
}
);
guideLines = (
{
angle = 90;
position = "{1572, 734}";
}
);
layerId = UUID0;
paths = (
{
closed = 1;
nodes = (
"644 -3 OFFCURVE",
"802 196 OFFCURVE",
"802 420 CURVE SMOOTH",
"802 589 OFFCURVE",
"691 703 OFFCURVE",
"487 703 CURVE SMOOTH",
"229 703 OFFCURVE",
"71 504 OFFCURVE",
"71 280 CURVE SMOOTH",
"71 111 OFFCURVE",
"182 -3 OFFCURVE",
"386 -3 CURVE SMOOTH"
);
},
{
closed = 1;
nodes = (
"192 16 OFFCURVE",
"91 123 OFFCURVE",
"91 280 CURVE SMOOTH",
"91 499 OFFCURVE",
"246 684 OFFCURVE",
"485 684 CURVE SMOOTH",
"681 684 OFFCURVE",
"782 577 OFFCURVE",
"782 420 CURVE SMOOTH",
"782 201 OFFCURVE",
"627 16 OFFCURVE",
"388 16 CURVE SMOOTH"
);
}
);
width = 836;
},
{
anchors = (
{
name = bottom;
position = "{369, 0}";
},
{
name = center;
position = "{439, 350}";
},
{
name = ogonek;
position = "{492, 0}";
},
{
name = top;
position = "{509, 700}";
},
{
name = topleft;
position = "{119, 700}";
},
{
name = topright;
position = "{675, 700}";
}
);
guideLines = (
{
angle = 90;
position = "{1323, 664}";
}
);
layerId = "5DA6E103-6A94-47F2-987D-4952DB8EA68E";
paths = (
{
closed = 1;
nodes = (
"653 -16 OFFCURVE",
"837 156 OFFCURVE",
"837 403 CURVE SMOOTH",
"837 587 OFFCURVE",
"700 716 OFFCURVE",
"482 716 CURVE SMOOTH",
"225 716 OFFCURVE",
"41 544 OFFCURVE",
"41 297 CURVE SMOOTH",
"41 113 OFFCURVE",
"178 -16 OFFCURVE",
"396 -16 CURVE SMOOTH"
);
},
{
closed = 1;
nodes = (
"330 175 OFFCURVE",
"279 230 OFFCURVE",
"279 311 CURVE SMOOTH",
"279 426 OFFCURVE",
"346 525 OFFCURVE",
"462 525 CURVE SMOOTH",
"548 525 OFFCURVE",
"599 470 OFFCURVE",
"599 389 CURVE SMOOTH",
"599 274 OFFCURVE",
"532 175 OFFCURVE",
"416 175 CURVE SMOOTH"
);
}
);
width = 848;
},
{
anchors = (
{
name = bottom;
position = "{367, 0}";
},
{
name = center;
position = "{437, 350}";
},
{
name = ogonek;
position = "{450, 0}";
},
{
name = top;
position = "{507, 700}";
},
{
name = topleft;
position = "{135, 700}";
},
{
name = topright;
position = "{720, 700}";
}
);
layerId = "C4221BDF-4AE8-4E40-821A-B2476087DE1A";
paths = (
{
closed = 1;
nodes = (
"648 -9 OFFCURVE",
"817 177 OFFCURVE",
"817 412 CURVE SMOOTH",
"817 588 OFFCURVE",
"695 709 OFFCURVE",
"485 709 CURVE SMOOTH",
"227 709 OFFCURVE",
"58 523 OFFCURVE",
"58 288 CURVE SMOOTH",
"58 112 OFFCURVE",
"180 -9 OFFCURVE",
"390 -9 CURVE SMOOTH"
);
},
{
closed = 1;
nodes = (
"252 93 OFFCURVE",
"173 175 OFFCURVE",
"173 295 CURVE SMOOTH",
"173 464 OFFCURVE",
"290 607 OFFCURVE",
"475 607 CURVE SMOOTH",
"623 607 OFFCURVE",
"702 525 OFFCURVE",
"702 405 CURVE SMOOTH",
"702 236 OFFCURVE",
"585 93 OFFCURVE",
"400 93 CURVE SMOOTH"
);
}
);
width = 841;
}
);
leftKerningGroup = O;
rightKerningGroup = O;
unicode = 004F;
},
{
glyphname = OU;
layers = (
{
layerId = UUID0;
paths = (
{
closed = 1;
nodes = (
"507 -3 OFFCURVE",
"631 73 OFFCURVE",
"658 193 CURVE SMOOTH",
"692 337 OFFCURVE",
"582 427 OFFCURVE",
"375 427 CURVE SMOOTH",
"209 427 OFFCURVE",
"87 352 OFFCURVE",
"60 233 CURVE SMOOTH",
"26 88 OFFCURVE",
"132 -3 OFFCURVE",
"336 -3 CURVE SMOOTH"
);
},
{
closed = 1;
nodes = (
"149 17 OFFCURVE",
"49 100 OFFCURVE",
"79 231 CURVE SMOOTH",
"104 340 OFFCURVE",
"219 409 OFFCURVE",
"376 409 CURVE SMOOTH",
"569 409 OFFCURVE",
"670 326 OFFCURVE",
"639 195 CURVE SMOOTH",
"614 86 OFFCURVE",
"498 17 OFFCURVE",
"338 17 CURVE SMOOTH"
);
},
{
closed = 1;
nodes = (
"565 410 OFFCURVE",
"684 483 OFFCURVE",
"706 591 CURVE SMOOTH",
"727 700 LINE",
"707 700 LINE",
"686 593 LINE SMOOTH",
"665 493 OFFCURVE",
"556 428 OFFCURVE",
"408 428 CURVE SMOOTH",
"254 428 OFFCURVE",
"165 501 OFFCURVE",
"186 609 CURVE SMOOTH",
"205 700 LINE",
"185 700 LINE",
"167 611 LINE SMOOTH",
"143 491 OFFCURVE",
"239 410 OFFCURVE",
"407 410 CURVE SMOOTH"
);
}
);
userData = {
RMXScaler = {
height = 94;
width = 115;
};
};
width = 736;
},
{
layerId = "C4221BDF-4AE8-4E40-821A-B2476087DE1A";
paths = (
{
closed = 1;
nodes = (
"534 -9 OFFCURVE",
"657 80 OFFCURVE",
"683 220 CURVE SMOOTH",
"709 363 OFFCURVE",
"582 454 OFFCURVE",
"388 454 CURVE",
"189 454 OFFCURVE",
"72 375 OFFCURVE",
"45 240 CURVE SMOOTH",
"16 96 OFFCURVE",
"131 -9 OFFCURVE",
"340 -9 CURVE SMOOTH"
);
},
{
closed = 1;
nodes = (
"206 89 OFFCURVE",
"145 158 OFFCURVE",
"160 242 CURVE SMOOTH",
"177 324 OFFCURVE",
"258 376 OFFCURVE",
"380 376 CURVE SMOOTH",
"523 376 OFFCURVE",
"585 306 OFFCURVE",
"568 222 CURVE SMOOTH",
"553 140 OFFCURVE",
"471 89 OFFCURVE",
"349 89 CURVE SMOOTH"
);
},
{
closed = 1;
nodes = (
"582 389 OFFCURVE",
"701 465 OFFCURVE",
"726 589 CURVE SMOOTH",
"748 700 LINE",
"634 700 LINE",
"614 602 LINE SMOOTH",
"596 514 OFFCURVE",
"529 466 OFFCURVE",
"421 466 CURVE SMOOTH",
"307 466 OFFCURVE",
"245 519 OFFCURVE",
"262 602 CURVE SMOOTH",
"282 700 LINE",
"168 700 LINE",
"150 612 LINE SMOOTH",
"122 474 OFFCURVE",
"216 389 OFFCURVE",
"405 389 CURVE SMOOTH"
);
}
);
userData = {
RMXScaler = {
height = 95;
weight = 6;
width = 114;
};
};
width = 742;
},
{
layerId = "5DA6E103-6A94-47F2-987D-4952DB8EA68E";
paths = (
{
closed = 1;
nodes = (
"570 -11 OFFCURVE",
"722 76 OFFCURVE",
"748 219 CURVE SMOOTH",
"777 373 OFFCURVE",
"641 476 OFFCURVE",
"407 476 CURVE SMOOTH",
"191 476 OFFCURVE",
"41 386 OFFCURVE",
"14 244 CURVE SMOOTH",
"-14 91 OFFCURVE",
"123 -11 OFFCURVE",
"355 -11 CURVE SMOOTH"
);
},
{
closed = 1;
nodes = (
"285 154 OFFCURVE",
"234 191 OFFCURVE",
"245 250 CURVE SMOOTH",
"255 305 OFFCURVE",
"307 334 OFFCURVE",
"392 334 CURVE SMOOTH",
"483 334 OFFCURVE",
"533 301 OFFCURVE",
"525 243 CURVE SMOOTH",
"516 187 OFFCURVE",
"461 154 OFFCURVE",
"376 154 CURVE SMOOTH"
);
},
{
closed = 1;
nodes = (
"621 340 OFFCURVE",
"757 419 OFFCURVE",
"786 567 CURVE SMOOTH",
"812 700 LINE",
"580 700 LINE",
"555 572 LINE SMOOTH",
"543 514 OFFCURVE",
"501 484 OFFCURVE",
"436 484 CURVE SMOOTH",
"368 484 OFFCURVE",
"334 514 OFFCURVE",
"344 568 CURVE SMOOTH",
"370 700 LINE",
"138 700 LINE",
"113 575 LINE SMOOTH",
"83 426 OFFCURVE",
"200 340 OFFCURVE",
"415 340 CURVE SMOOTH"
);
}
);
userData = {
RMXScaler = {
height = 95;
weight = 9;
width = 120;
};
};
width = 779;
}
);
leftKerningGroup = U;
rightKerningGroup = U;
rightMetricsKey = "=|";
unicode = 0222;
userData = {
RMXScaler = {
source = ou;
};
};
},
{
glyphname = Ohorn;
layers = (
{
anchors = (
{
name = bottom;
position = "{366, 0}";
},
{
name = top;
position = "{506, 700}";
}
);
layerId = UUID0;
paths = (
{
closed = 1;
nodes = (
"644 -3 OFFCURVE",
"802 196 OFFCURVE",
"802 420 CURVE SMOOTH",
"802 540 OFFCURVE",
"746 632 OFFCURVE",
"640 675 CURVE",
"637 674 LINE",
"661 671 OFFCURVE",
"685 669 OFFCURVE",
"721 669 CURVE SMOOTH",
"807 669 OFFCURVE",
"855 706 OFFCURVE",
"855 771 CURVE SMOOTH",
"855 797 OFFCURVE",
"846 825 OFFCURVE",
"833 845 CURVE",
"815 837 LINE",
"826 818 OFFCURVE",
"835 796 OFFCURVE",
"835 770 CURVE SMOOTH",
"835 719 OFFCURVE",
"795 688 OFFCURVE",
"722 688 CURVE SMOOTH",
"646 688 OFFCURVE",
"592 703 OFFCURVE",
"487 703 CURVE SMOOTH",
"229 703 OFFCURVE",
"71 504 OFFCURVE",
"71 280 CURVE SMOOTH",
"71 111 OFFCURVE",
"182 -3 OFFCURVE",
"386 -3 CURVE SMOOTH"
);
},
{
closed = 1;
nodes = (
"192 16 OFFCURVE",
"91 123 OFFCURVE",
"91 280 CURVE SMOOTH",
"91 499 OFFCURVE",
"246 684 OFFCURVE",
"485 684 CURVE SMOOTH",
"681 684 OFFCURVE",
"782 577 OFFCURVE",
"782 420 CURVE SMOOTH",
"782 201 OFFCURVE",
"627 16 OFFCURVE",
"388 16 CURVE SMOOTH"
);
}
);
width = 836;
},
{
anchors = (
{
name = bottom;
position = "{369, 0}";
},
{
name = top;
position = "{509, 700}";
}
);
layerId = "5DA6E103-6A94-47F2-987D-4952DB8EA68E";
paths = (
{
closed = 1;
nodes = (
"653 -16 OFFCURVE",
"837 156 OFFCURVE",
"837 403 CURVE SMOOTH",
"837 488 OFFCURVE",
"808 562 OFFCURVE",
"755 615 CURVE",
"633 564 LINE",
"664 560 OFFCURVE",
"684 557 OFFCURVE",
"705 557 CURVE SMOOTH",
"827 557 OFFCURVE",
"915 626 OFFCURVE",
"915 749 CURVE SMOOTH",
"915 797 OFFCURVE",
"901 834 OFFCURVE",
"878 863 CURVE",
"750 818 LINE",
"762 804 OFFCURVE",
"770 783 OFFCURVE",
"770 761 CURVE SMOOTH",
"770 724 OFFCURVE",
"743 695 OFFCURVE",
"695 695 CURVE SMOOTH",
"642 695 OFFCURVE",
"592 716 OFFCURVE",
"482 716 CURVE SMOOTH",
"225 716 OFFCURVE",
"41 544 OFFCURVE",
"41 297 CURVE SMOOTH",
"41 113 OFFCURVE",
"178 -16 OFFCURVE",
"396 -16 CURVE SMOOTH"
);
},
{
closed = 1;
nodes = (
"330 175 OFFCURVE",
"279 230 OFFCURVE",
"279 311 CURVE SMOOTH",
"279 426 OFFCURVE",
"346 525 OFFCURVE",
"462 525 CURVE SMOOTH",
"548 525 OFFCURVE",
"599 470 OFFCURVE",
"599 389 CURVE SMOOTH",
"599 274 OFFCURVE",
"532 175 OFFCURVE",
"416 175 CURVE SMOOTH"
);
}
);
width = 848;
},
{
anchors = (
{
name = bottom;
position = "{367, 0}";
},
{
name = top;
position = "{507, 700}";
}
);
layerId = "C4221BDF-4AE8-4E40-821A-B2476087DE1A";
paths = (
{
closed = 1;
nodes = (
"648 -9 OFFCURVE",
"817 177 OFFCURVE",
"817 412 CURVE SMOOTH",
"817 504 OFFCURVE",
"783 580 OFFCURVE",
"722 633 CURVE",
"682 620 LINE",
"698 618 OFFCURVE",
"716 616 OFFCURVE",
"732 616 CURVE SMOOTH",
"820 616 OFFCURVE",
"880 672 OFFCURVE",
"880 761 CURVE SMOOTH",
"880 797 OFFCURVE",
"868 829 OFFCURVE",
"851 853 CURVE",
"782 827 LINE",
"794 811 OFFCURVE",
"802 789 OFFCURVE",
"802 765 CURVE SMOOTH",
"802 720 OFFCURVE",
"768 692 OFFCURVE",
"707 692 CURVE SMOOTH",
"628 692 OFFCURVE",
"576 709 OFFCURVE",
"485 709 CURVE SMOOTH",
"227 709 OFFCURVE",
"58 523 OFFCURVE",
"58 288 CURVE SMOOTH",
"58 112 OFFCURVE",
"180 -9 OFFCURVE",
"390 -9 CURVE SMOOTH"
);
},
{
closed = 1;
nodes = (
"252 93 OFFCURVE",
"173 175 OFFCURVE",
"173 295 CURVE SMOOTH",
"173 464 OFFCURVE",
"290 607 OFFCURVE",
"475 607 CURVE SMOOTH",
"623 607 OFFCURVE",
"702 525 OFFCURVE",
"702 405 CURVE SMOOTH",
"702 236 OFFCURVE",
"585 93 OFFCURVE",
"400 93 CURVE SMOOTH"
);
}
);
width = 841;
}
);
leftKerningGroup = O;
leftMetricsKey = O;
widthMetricsKey = O;
rightKerningGroup = O;
unicode = 01A0;
},
{
glyphname = "Omega-latin";
layers = (
{
anchors = (
{
name = bottom;
position = "{476, 0}";
},
{
name = top;
position = "{616, 700}";
}
);
layerId = UUID0;
paths = (
{
closed = 1;
nodes = (
"419 -1 OFFCURVE",
"514 87 OFFCURVE",
"542 222 CURVE",
"532 222 LINE",
"507 98 OFFCURVE",
"591 -1 OFFCURVE",
"717 -1 CURVE SMOOTH",
"857 -1 OFFCURVE",
"964 122 OFFCURVE",
"1002 324 CURVE SMOOTH",
"1028 463 OFFCURVE",
"1012 589 OFFCURVE",
"949 700 CURVE",
"924 700 LINE",
"989 592 OFFCURVE",
"1008 463 OFFCURVE",
"982 324 CURVE SMOOTH",
"947 136 OFFCURVE",
"846 18 OFFCURVE",
"716 18 CURVE SMOOTH",
"599 18 OFFCURVE",
"524 114 OFFCURVE",
"548 235 CURVE SMOOTH",
"584 415 LINE",
"564 415 LINE",
"528 235 LINE SMOOTH",
"502 103 OFFCURVE",
"412 18 OFFCURVE",
"300 18 CURVE SMOOTH",
"165 18 OFFCURVE",
"95 144 OFFCURVE",
"130 323 CURVE SMOOTH",
"156 457 OFFCURVE",
"236 600 OFFCURVE",
"338 700 CURVE",
"313 700 LINE",
"210 594 OFFCURVE",
"135 454 OFFCURVE",
"110 324 CURVE SMOOTH",
"73 133 OFFCURVE",
"151 -1 OFFCURVE",
"299 -1 CURVE SMOOTH"
);
}
);
width = 1086;
},
{
anchors = (
{
name = bottom;
position = "{466, 0}";
},
{
name = top;
position = "{606, 700}";
}
);
layerId = "C4221BDF-4AE8-4E40-821A-B2476087DE1A";
paths = (
{
closed = 1;
nodes = (
"419 -7 OFFCURVE",
"519 89 OFFCURVE",
"551 251 CURVE",
"488 251 LINE",
"458 100 OFFCURVE",
"540 -7 OFFCURVE",
"684 -7 CURVE SMOOTH",
"843 -7 OFFCURVE",
"959 124 OFFCURVE",
"1002 350 CURVE SMOOTH",
"1029 493 OFFCURVE",
"1016 609 OFFCURVE",
"966 700 CURVE",
"838 700 LINE",
"895 605 OFFCURVE",
"911 486 OFFCURVE",
"887 353 CURVE SMOOTH",
"857 189 OFFCURVE",
"784 96 OFFCURVE",
"687 96 CURVE SMOOTH",
"601 96 OFFCURVE",
"563 170 OFFCURVE",
"585 280 CURVE SMOOTH",
"616 435 LINE",
"496 435 LINE",
"465 280 LINE SMOOTH",
"441 161 OFFCURVE",
"384 96 OFFCURVE",
"304 96 CURVE SMOOTH",
"205 96 OFFCURVE",
"160 196 OFFCURVE",
"191 350 CURVE SMOOTH",
"217 480 OFFCURVE",
"288 610 OFFCURVE",
"383 700 CURVE",
"255 700 LINE",
"171 617 OFFCURVE",
"103 484 OFFCURVE",
"77 351 CURVE SMOOTH",
"35 135 OFFCURVE",
"117 -7 OFFCURVE",
"283 -7 CURVE SMOOTH"
);
}
);
width = 1045;
},
{
anchors = (
{
name = bottom;
position = "{472, 0}";
},
{
name = top;
position = "{612, 700}";
}
);
layerId = "5DA6E103-6A94-47F2-987D-4952DB8EA68E";
paths = (
{
closed = 1;
nodes = (
"413 -15 OFFCURVE",
"525 69 OFFCURVE",
"564 204 CURVE",
"459 204 LINE",
"444 84 OFFCURVE",
"549 -15 OFFCURVE",
"694 -15 CURVE SMOOTH",
"868 -15 OFFCURVE",
"998 128 OFFCURVE",
"1042 364 CURVE SMOOTH",
"1066 493 OFFCURVE",
"1057 612 OFFCURVE",
"1020 700 CURVE",
"799 700 LINE",
"817 601 OFFCURVE",
"819 468 OFFCURVE",
"797 348 CURVE SMOOTH",
"776 232 OFFCURVE",
"740 173 OFFCURVE",
"687 173 CURVE SMOOTH",
"645 173 OFFCURVE",
"626 211 OFFCURVE",
"638 271 CURVE SMOOTH",
"678 473 LINE",
"453 473 LINE",
"413 271 LINE SMOOTH",
"399 200 OFFCURVE",
"379 173 OFFCURVE",
"338 173 CURVE SMOOTH",
"279 173 OFFCURVE",
"260 231 OFFCURVE",
"284 348 CURVE SMOOTH",
"307 459 OFFCURVE",
"364 602 OFFCURVE",
"422 700 CURVE",
"200 700 LINE",
"132 617 OFFCURVE",
"73 486 OFFCURVE",
"50 365 CURVE SMOOTH",
"6 136 OFFCURVE",
"98 -15 OFFCURVE",
"278 -15 CURVE SMOOTH"
);
}
);
width = 1056;
}
);
leftKerningGroup = O;
rightKerningGroup = O;
rightMetricsKey = "=|";
unicode = A7B6;
},
{
glyphname = Oogonek;
layers = (
{
anchors = (
{
name = top;
position = "{506, 700}";
}
);
layerId = UUID0;
paths = (
{
closed = 1;
nodes = (
"347 -213 OFFCURVE",
"375 -204 OFFCURVE",
"398 -186 CURVE",
"390 -169 LINE",
"370 -185 OFFCURVE",
"344 -194 OFFCURVE",
"319 -194 CURVE SMOOTH",
"283 -194 OFFCURVE",
"262 -176 OFFCURVE",
"262 -142 CURVE SMOOTH",
"262 -88 OFFCURVE",
"322 -22 OFFCURVE",
"468 4 CURVE SMOOTH",
"676 41 OFFCURVE",
"802 219 OFFCURVE",
"802 420 CURVE SMOOTH",
"802 589 OFFCURVE",
"691 703 OFFCURVE",
"487 703 CURVE SMOOTH",
"229 703 OFFCURVE",
"71 504 OFFCURVE",
"71 280 CURVE SMOOTH",
"71 111 OFFCURVE",
"182 -3 OFFCURVE",
"386 -3 CURVE",
"383 0 LINE",
"284 -36 OFFCURVE",
"242 -89 OFFCURVE",
"242 -144 CURVE SMOOTH",
"242 -187 OFFCURVE",
"272 -213 OFFCURVE",
"317 -213 CURVE SMOOTH"
);
},
{
closed = 1;
nodes = (
"192 16 OFFCURVE",
"91 123 OFFCURVE",
"91 280 CURVE SMOOTH",
"91 499 OFFCURVE",
"246 684 OFFCURVE",
"485 684 CURVE SMOOTH",
"681 684 OFFCURVE",
"782 577 OFFCURVE",
"782 420 CURVE SMOOTH",
"782 201 OFFCURVE",
"627 16 OFFCURVE",
"388 16 CURVE SMOOTH"
);
}
);
width = 836;
},
{
anchors = (
{
name = top;
position = "{509, 700}";
}
);
layerId = "5DA6E103-6A94-47F2-987D-4952DB8EA68E";
paths = (
{
closed = 1;
nodes = (
"409 -240 OFFCURVE",
"447 -230 OFFCURVE",
"474 -217 CURVE",
"465 -124 LINE",
"449 -131 OFFCURVE",
"427 -138 OFFCURVE",
"405 -138 CURVE SMOOTH",
"377 -138 OFFCURVE",
"359 -122 OFFCURVE",
"359 -97 CURVE SMOOTH",
"359 -67 OFFCURVE",
"383 -27 OFFCURVE",
"486 -9 CURVE SMOOTH",
"695 28 OFFCURVE",
"837 186 OFFCURVE",
"837 403 CURVE SMOOTH",
"837 587 OFFCURVE",
"700 716 OFFCURVE",
"482 716 CURVE SMOOTH",
"225 716 OFFCURVE",
"41 544 OFFCURVE",
"41 297 CURVE SMOOTH",
"41 113 OFFCURVE",
"178 -16 OFFCURVE",
"396 -16 CURVE",
"368 29 LINE",
"284 -4 OFFCURVE",
"220 -59 OFFCURVE",
"220 -132 CURVE SMOOTH",
"220 -200 OFFCURVE",
"278 -240 OFFCURVE",
"366 -240 CURVE SMOOTH"
);
},
{
closed = 1;
nodes = (
"330 175 OFFCURVE",
"279 230 OFFCURVE",
"279 311 CURVE SMOOTH",
"279 426 OFFCURVE",
"346 525 OFFCURVE",
"462 525 CURVE SMOOTH",
"548 525 OFFCURVE",
"599 470 OFFCURVE",
"599 389 CURVE SMOOTH",
"599 274 OFFCURVE",
"532 175 OFFCURVE",
"416 175 CURVE SMOOTH"
);
}
);
width = 848;
},
{
anchors = (
{
name = top;
position = "{507, 700}";
}
);
layerId = "C4221BDF-4AE8-4E40-821A-B2476087DE1A";
paths = (
{
closed = 1;
nodes = (
"379 -226 OFFCURVE",
"410 -217 OFFCURVE",
"437 -203 CURVE",
"424 -147 LINE",
"405 -157 OFFCURVE",
"381 -163 OFFCURVE",
"358 -163 CURVE SMOOTH",
"328 -163 OFFCURVE",
"308 -148 OFFCURVE",
"308 -120 CURVE SMOOTH",
"308 -77 OFFCURVE",
"354 -29 OFFCURVE",
"495 2 CURVE SMOOTH",
"689 44 OFFCURVE",
"817 207 OFFCURVE",
"817 412 CURVE SMOOTH",
"817 588 OFFCURVE",
"695 709 OFFCURVE",
"485 709 CURVE SMOOTH",
"227 709 OFFCURVE",
"58 523 OFFCURVE",
"58 288 CURVE SMOOTH",
"58 112 OFFCURVE",
"180 -9 OFFCURVE",
"390 -9 CURVE",
"375 25 LINE",
"271 -13 OFFCURVE",
"229 -71 OFFCURVE",
"229 -134 CURVE SMOOTH",
"229 -193 OFFCURVE",
"276 -226 OFFCURVE",
"341 -226 CURVE SMOOTH"
);
},
{
closed = 1;
nodes = (
"252 93 OFFCURVE",
"173 175 OFFCURVE",
"173 295 CURVE SMOOTH",
"173 464 OFFCURVE",
"290 607 OFFCURVE",
"475 607 CURVE SMOOTH",
"623 607 OFFCURVE",
"702 525 OFFCURVE",
"702 405 CURVE SMOOTH",
"702 236 OFFCURVE",
"585 93 OFFCURVE",
"400 93 CURVE SMOOTH"
);
}
);
width = 841;
}
);
leftKerningGroup = O;
rightKerningGroup = O;
unicode = 01EA;
},
{
glyphname = Oopen;
layers = (
{
anchors = (
{
name = bottom;
position = "{254, 0}";
},
{
name = ogonek;
position = "{288, 0}";
},
{
name = top;
position = "{394, 700}";
}
);
layerId = UUID0;
paths = (
{
closed = 1;
nodes = (
"257 703 OFFCURVE",
"162 668 OFFCURVE",
"104 614 CURVE",
"116 598 LINE",
"175 653 OFFCURVE",
"257 684 OFFCURVE",
"360 684 CURVE SMOOTH",
"556 684 OFFCURVE",
"657 577 OFFCURVE",
"657 420 CURVE SMOOTH",
"657 201 OFFCURVE",
"502 16 OFFCURVE",
"258 16 CURVE SMOOTH",
"157 16 OFFCURVE",
"83 44 OFFCURVE",
"35 98 CURVE",
"21 85 LINE",
"68 29 OFFCURVE",
"151 -3 OFFCURVE",
"256 -3 CURVE SMOOTH",
"519 -3 OFFCURVE",
"677 196 OFFCURVE",
"677 420 CURVE SMOOTH",
"677 589 OFFCURVE",
"566 703 OFFCURVE",
"362 703 CURVE SMOOTH"
);
}
);
width = 711;
},
{
anchors = (
{
name = bottom;
position = "{270, 0}";
},
{
name = ogonek;
position = "{343, 0}";
},
{
name = top;
position = "{410, 700}";
}
);
layerId = "C4221BDF-4AE8-4E40-821A-B2476087DE1A";
paths = (
{
closed = 1;
nodes = (
"250 709 OFFCURVE",
"149 674 OFFCURVE",
"83 600 CURVE",
"150 525 LINE",
"204 580 OFFCURVE",
"274 607 OFFCURVE",
"356 607 CURVE SMOOTH",
"507 607 OFFCURVE",
"586 526 OFFCURVE",
"586 405 CURVE SMOOTH",
"586 236 OFFCURVE",
"469 93 OFFCURVE",
"279 93 CURVE SMOOTH",
"194 93 OFFCURVE",
"132 122 OFFCURVE",
"92 175 CURVE",
"10 104 LINE",
"58 31 OFFCURVE",
"153 -9 OFFCURVE",
"271 -9 CURVE SMOOTH",
"532 -9 OFFCURVE",
"701 177 OFFCURVE",
"701 412 CURVE SMOOTH",
"701 588 OFFCURVE",
"576 709 OFFCURVE",
"364 709 CURVE SMOOTH"
);
}
);
width = 725;
},
{
anchors = (
{
name = bottom;
position = "{297, 0}";
},
{
name = ogonek;
position = "{407, 0}";
},
{
name = top;
position = "{437, 700}";
}
);
layerId = "5DA6E103-6A94-47F2-987D-4952DB8EA68E";
paths = (
{
closed = 1;
nodes = (
"246 716 OFFCURVE",
"142 681 OFFCURVE",
"57 577 CURVE",
"196 444 LINE",
"244 502 OFFCURVE",
"297 525 OFFCURVE",
"352 525 CURVE SMOOTH",
"439 525 OFFCURVE",
"496 470 OFFCURVE",
"496 388 CURVE SMOOTH",
"496 263 OFFCURVE",
"418 175 OFFCURVE",
"307 175 CURVE SMOOTH",
"243 175 OFFCURVE",
"197 205 OFFCURVE",
"167 257 CURVE",
"-3 124 LINE",
"48 34 OFFCURVE",
"158 -16 OFFCURVE",
"292 -16 CURVE SMOOTH",
"551 -16 OFFCURVE",
"734 157 OFFCURVE",
"734 403 CURVE SMOOTH",
"734 589 OFFCURVE",
"592 716 OFFCURVE",
"375 716 CURVE SMOOTH"
);
}
);
width = 744;
}
);
leftKerningGroup = Oopen;
rightKerningGroup = O;
unicode = 0186;
},
{
glyphname = OE;
layers = (
{
anchors = (
{
name = bottom;
position = "{535, 0}";
},
{
name = top;
position = "{675, 700}";
}
);
layerId = UUID0;
paths = (
{
closed = 1;
nodes = (
"531 0 LINE",
"535 19 LINE",
"394 19 LINE SMOOTH",
"191 19 OFFCURVE",
"91 124 OFFCURVE",
"91 280 CURVE SMOOTH",
"91 513 OFFCURVE",
"252 681 OFFCURVE",
"505 681 CURVE SMOOTH",
"667 681 LINE",
"671 700 LINE",
"507 700 LINE SMOOTH",
"240 700 OFFCURVE",
"71 523 OFFCURVE",
"71 280 CURVE SMOOTH",
"71 113 OFFCURVE",
"183 0 OFFCURVE",
"392 0 CURVE SMOOTH"
);
},
{
closed = 1;
nodes = (
"991 0 LINE",
"995 19 LINE",
"549 19 LINE",
"681 681 LINE",
"1112 681 LINE",
"1116 700 LINE",
"665 700 LINE",
"525 0 LINE"
);
},
{
closed = 1;
nodes = (
"1000 346 LINE",
"1004 365 LINE",
"613 365 LINE",
"609 346 LINE"
);
}
);
width = 1112;
},
{
anchors = (
{
name = bottom;
position = "{594, 0}";
},
{
name = top;
position = "{734, 700}";
}
);
layerId = "5DA6E103-6A94-47F2-987D-4952DB8EA68E";
paths = (
{
closed = 1;
nodes = (
"538 0 LINE",
"575 184 LINE",
"425 184 LINE SMOOTH",
"330 184 OFFCURVE",
"279 230 OFFCURVE",
"279 311 CURVE SMOOTH",
"279 426 OFFCURVE",
"346 516 OFFCURVE",
"471 516 CURVE SMOOTH",
"641 516 LINE",
"678 700 LINE",
"479 700 LINE SMOOTH",
"224 700 OFFCURVE",
"41 544 OFFCURVE",
"41 297 CURVE SMOOTH",
"41 113 OFFCURVE",
"177 0 OFFCURVE",
"398 0 CURVE SMOOTH"
);
},
{
closed = 1;
nodes = (
"1060 0 LINE",
"1096 178 LINE",
"745 178 LINE",
"814 522 LINE",
"1151 522 LINE",
"1187 700 LINE",
"618 700 LINE",
"478 0 LINE"
);
},
{
closed = 1;
nodes = (
"1060 270 LINE",
"1094 440 LINE",
"782 440 LINE",
"748 270 LINE"
);
}
);
width = 1149;
},
{
anchors = (
{
name = bottom;
position = "{561, 0}";
},
{
name = top;
position = "{701, 700}";
}
);
layerId = "C4221BDF-4AE8-4E40-821A-B2476087DE1A";
paths = (
{
closed = 1;
nodes = (
"534 0 LINE",
"552 99 LINE",
"407 99 LINE SMOOTH",
"251 99 OFFCURVE",
"173 175 OFFCURVE",
"173 295 CURVE SMOOTH",
"173 471 OFFCURVE",
"293 601 OFFCURVE",
"490 601 CURVE SMOOTH",
"656 601 LINE",
"674 700 LINE",
"493 700 LINE SMOOTH",
"232 700 OFFCURVE",
"58 536 OFFCURVE",
"58 288 CURVE SMOOTH",
"58 113 OFFCURVE",
"183 0 OFFCURVE",
"395 0 CURVE SMOOTH"
);
},
{
closed = 1;
nodes = (
"1021 0 LINE",
"1041 99 LINE",
"639 99 LINE",
"739 601 LINE",
"1127 601 LINE",
"1147 700 LINE",
"645 700 LINE",
"505 0 LINE"
);
},
{
closed = 1;
nodes = (
"1026 307 LINE",
"1045 404 LINE",
"691 404 LINE",
"672 307 LINE"
);
}
);
width = 1128;
}
);
leftKerningGroup = O;
leftMetricsKey = O;
rightKerningGroup = E;
rightMetricsKey = E;
unicode = 0152;
},
{
glyphname = P;
layers = (
{
anchors = (
{
name = bottom;
position = "{303, 0}";
},
{
name = hook.af;
position = "{221, 700}";
},
{
name = top;
position = "{443, 700}";
}
);
layerId = UUID0;
paths = (
{
closed = 1;
nodes = (
"101 0 LINE",
"151 249 LINE",
"140 240 LINE",
"373 240 LINE SMOOTH",
"568 240 OFFCURVE",
"690 334 OFFCURVE",
"690 514 CURVE SMOOTH",
"690 633 OFFCURVE",
"604 700 OFFCURVE",
"456 700 CURVE SMOOTH",
"221 700 LINE",
"81 0 LINE"
);
},
{
closed = 1;
nodes = (
"239 691 LINE",
"228 681 LINE",
"457 681 LINE SMOOTH",
"594 681 OFFCURVE",
"670 621 OFFCURVE",
"670 514 CURVE SMOOTH",
"670 345 OFFCURVE",
"561 259 OFFCURVE",
"372 259 CURVE SMOOTH",
"144 259 LINE",
"151 251 LINE"
);
}
);
width = 710;
},
{
anchors = (
{
name = bottom;
position = "{317, 0}";
},
{
name = hook.af;
position = "{142, 700}";
},
{
name = top;
position = "{457, 700}";
}
);
layerId = "5DA6E103-6A94-47F2-987D-4952DB8EA68E";
paths = (
{
closed = 1;
nodes = (
"238 0 LINE",
"293 275 LINE",
"167 172 LINE",
"393 172 LINE SMOOTH",
"608 172 OFFCURVE",
"747 291 OFFCURVE",
"747 468 CURVE SMOOTH",
"747 614 OFFCURVE",
"641 700 OFFCURVE",
"453 700 CURVE SMOOTH",
"142 700 LINE",
"2 0 LINE"
);
},
{
closed = 1;
nodes = (
"363 628 LINE",
"237 518 LINE",
"420 518 LINE SMOOTH",
"474 518 OFFCURVE",
"508 497 OFFCURVE",
"508 447 CURVE SMOOTH",
"508 388 OFFCURVE",
"470 354 OFFCURVE",
"405 354 CURVE SMOOTH",
"204 354 LINE",
"287 247 LINE"
);
}
);
width = 743;
},
{
anchors = (
{
name = bottom;
position = "{309, 0}";
},
{
name = hook.af;
position = "{187, 700}";
},
{
name = top;
position = "{449, 700}";
}
);
layerId = "C4221BDF-4AE8-4E40-821A-B2476087DE1A";
paths = (
{
closed = 1;
nodes = (
"161 0 LINE",
"214 262 LINE",
"153 207 LINE",
"382 207 LINE SMOOTH",
"586 207 OFFCURVE",
"713 313 OFFCURVE",
"713 492 CURVE SMOOTH",
"713 623 OFFCURVE",
"617 700 OFFCURVE",
"451 700 CURVE SMOOTH",
"187 700 LINE",
"47 0 LINE"
);
},
{
closed = 1;
nodes = (
"293 659 LINE",
"233 601 LINE",
"440 601 LINE SMOOTH",
"541 601 OFFCURVE",
"598 561 OFFCURVE",
"598 481 CURVE SMOOTH",
"598 366 OFFCURVE",
"520 306 OFFCURVE",
"385 306 CURVE SMOOTH",
"171 306 LINE",
"211 249 LINE"
);
}
);
width = 724;
}
);
leftKerningGroup = H;
leftMetricsKey = H;
rightKerningGroup = P;
unicode = 0050;
},
{
glyphname = Thorn;
layers = (
{
anchors = (
{
name = bottom;
position = "{303, 0}";
},
{
name = top;
position = "{443, 700}";
}
);
layerId = UUID0;
paths = (
{
closed = 1;
nodes = (
"353 139 LINE SMOOTH",
"548 139 OFFCURVE",
"670 233 OFFCURVE",
"670 413 CURVE SMOOTH",
"670 532 OFFCURVE",
"584 599 OFFCURVE",
"436 599 CURVE SMOOTH",
"212 599 LINE",
"208 580 LINE",
"437 580 LINE SMOOTH",
"574 580 OFFCURVE",
"650 520 OFFCURVE",
"650 413 CURVE SMOOTH",
"650 244 OFFCURVE",
"541 158 OFFCURVE",
"352 158 CURVE SMOOTH",
"124 158 LINE",
"120 139 LINE"
);
},
{
closed = 1;
nodes = (
"101 0 LINE",
"241 700 LINE",
"221 700 LINE",
"81 0 LINE"
);
}
);
width = 710;
},
{
anchors = (
{
name = bottom;
position = "{317, 0}";
},
{
name = top;
position = "{457, 700}";
}
);
layerId = "5DA6E103-6A94-47F2-987D-4952DB8EA68E";
paths = (
{
closed = 1;
nodes = (
"379 105 LINE SMOOTH",
"594 105 OFFCURVE",
"733 224 OFFCURVE",
"733 401 CURVE SMOOTH",
"733 547 OFFCURVE",
"627 633 OFFCURVE",
"442 633 CURVE SMOOTH",
"316 633 LINE",
"280 451 LINE",
"406 451 LINE SMOOTH",
"460 451 OFFCURVE",
"494 430 OFFCURVE",
"494 380 CURVE SMOOTH",
"494 321 OFFCURVE",
"456 287 OFFCURVE",
"391 287 CURVE SMOOTH",
"247 287 LINE",
"211 105 LINE"
);
},
{
closed = 1;
nodes = (
"238 0 LINE",
"378 700 LINE",
"142 700 LINE",
"2 0 LINE"
);
}
);
width = 743;
},
{
anchors = (
{
name = bottom;
position = "{309, 0}";
},
{
name = top;
position = "{449, 700}";
}
);
layerId = "C4221BDF-4AE8-4E40-821A-B2476087DE1A";
paths = (
{
closed = 1;
nodes = (
"366 123 LINE SMOOTH",
"570 123 OFFCURVE",
"697 230 OFFCURVE",
"697 408 CURVE SMOOTH",
"697 540 OFFCURVE",
"602 616 OFFCURVE",
"438 616 CURVE SMOOTH",
"258 616 LINE",
"240 517 LINE",
"424 517 LINE SMOOTH",
"525 517 OFFCURVE",
"582 477 OFFCURVE",
"582 397 CURVE SMOOTH",
"582 282 OFFCURVE",
"504 222 OFFCURVE",
"369 222 CURVE SMOOTH",
"179 222 LINE",
"161 123 LINE"
);
},
{
closed = 1;
nodes = (
"161 0 LINE",
"301 700 LINE",
"187 700 LINE",
"47 0 LINE"
);
}
);
width = 724;
}
);
leftKerningGroup = H;
leftMetricsKey = H;
rightKerningGroup = Thorn;
rightMetricsKey = P;
unicode = 00DE;
},
{
glyphname = Pstroke;
layers = (
{
anchors = (
{
name = hook.af;
position = "{229, 700}";
}
);
layerId = UUID0;
paths = (
{
closed = 1;
nodes = (
"109 0 LINE",
"159 249 LINE",
"148 240 LINE",
"381 240 LINE SMOOTH",
"576 240 OFFCURVE",
"698 334 OFFCURVE",
"698 514 CURVE SMOOTH",
"698 633 OFFCURVE",
"612 700 OFFCURVE",
"464 700 CURVE SMOOTH",
"229 700 LINE",
"89 0 LINE"
);
},
{
closed = 1;
nodes = (
"371 462 LINE",
"375 481 LINE",
"65 481 LINE",
"61 462 LINE"
);
},
{
closed = 1;
nodes = (
"247 691 LINE",
"236 681 LINE",
"465 681 LINE SMOOTH",
"602 681 OFFCURVE",
"678 621 OFFCURVE",
"678 514 CURVE SMOOTH",
"678 345 OFFCURVE",
"569 259 OFFCURVE",
"380 259 CURVE SMOOTH",
"152 259 LINE",
"159 251 LINE"
);
}
);
width = 718;
},
{
anchors = (
{
name = hook.af;
position = "{194, 700}";
}
);
layerId = "C4221BDF-4AE8-4E40-821A-B2476087DE1A";
paths = (
{
closed = 1;
nodes = (
"168 0 LINE",
"221 262 LINE",
"160 207 LINE",
"389 207 LINE SMOOTH",
"593 207 OFFCURVE",
"720 313 OFFCURVE",
"720 492 CURVE SMOOTH",
"720 623 OFFCURVE",
"624 700 OFFCURVE",
"458 700 CURVE SMOOTH",
"194 700 LINE",
"54 0 LINE"
);
},
{
closed = 1;
nodes = (
"400 411 LINE",
"417 499 LINE",
"54 499 LINE",
"37 411 LINE"
);
},
{
closed = 1;
nodes = (
"300 659 LINE",
"240 601 LINE",
"447 601 LINE SMOOTH",
"548 601 OFFCURVE",
"605 561 OFFCURVE",
"605 481 CURVE SMOOTH",
"605 366 OFFCURVE",
"527 306 OFFCURVE",
"392 306 CURVE SMOOTH",
"178 306 LINE",
"218 249 LINE"
);
}
);
width = 731;
},
{
anchors = (
{
name = hook.af;
position = "{147, 700}";
}
);
layerId = "5DA6E103-6A94-47F2-987D-4952DB8EA68E";
paths = (
{
closed = 1;
nodes = (
"243 0 LINE",
"298 275 LINE",
"172 172 LINE",
"398 172 LINE SMOOTH",
"613 172 OFFCURVE",
"752 291 OFFCURVE",
"752 468 CURVE SMOOTH",
"752 614 OFFCURVE",
"646 700 OFFCURVE",
"458 700 CURVE SMOOTH",
"147 700 LINE",
"7 0 LINE"
);
},
{
closed = 1;
nodes = (
"412 369 LINE",
"439 503 LINE",
"36 503 LINE",
"9 369 LINE"
);
},
{
closed = 1;
nodes = (
"368 628 LINE",
"242 528 LINE",
"425 528 LINE SMOOTH",
"479 528 OFFCURVE",
"513 507 OFFCURVE",
"513 447 CURVE SMOOTH",
"513 387 OFFCURVE",
"475 344 OFFCURVE",
"410 344 CURVE SMOOTH",
"209 344 LINE",
"292 247 LINE"
);
}
);
width = 748;
}
);
leftKerningGroup = Hbar;
leftMetricsKey = Eth;
rightKerningGroup = P;
rightMetricsKey = P;
unicode = 2C63;
},
{
glyphname = Q;
layers = (
{
anchors = (
{
name = top;
position = "{506, 700}";
}
);
layerId = UUID0;
paths = (
{
closed = 1;
nodes = (
"644 -3 OFFCURVE",
"802 196 OFFCURVE",
"802 420 CURVE SMOOTH",
"802 589 OFFCURVE",
"691 703 OFFCURVE",
"487 703 CURVE SMOOTH",
"229 703 OFFCURVE",
"71 504 OFFCURVE",
"71 280 CURVE SMOOTH",
"71 111 OFFCURVE",
"182 -3 OFFCURVE",
"386 -3 CURVE SMOOTH"
);
},
{
closed = 1;
nodes = (
"644 -124 OFFCURVE",
"703 -99 OFFCURVE",
"745 -48 CURVE",
"731 -35 LINE",
"694 -82 OFFCURVE",
"643 -105 OFFCURVE",
"585 -105 CURVE SMOOTH",
"511 -105 OFFCURVE",
"452 -65 OFFCURVE",
"401 8 CURVE",
"376 3 LINE",
"436 -78 OFFCURVE",
"501 -124 OFFCURVE",
"584 -124 CURVE SMOOTH"
);
},
{
closed = 1;
nodes = (
"192 16 OFFCURVE",
"91 123 OFFCURVE",
"91 280 CURVE SMOOTH",
"91 499 OFFCURVE",
"246 684 OFFCURVE",
"485 684 CURVE SMOOTH",
"681 684 OFFCURVE",
"782 577 OFFCURVE",
"782 420 CURVE SMOOTH",
"782 201 OFFCURVE",
"627 16 OFFCURVE",
"388 16 CURVE SMOOTH"
);
}
);
width = 836;
},
{
anchors = (
{
name = top;
position = "{510, 700}";
}
);
layerId = "5DA6E103-6A94-47F2-987D-4952DB8EA68E";
paths = (
{
closed = 1;
nodes = (
"653 -16 OFFCURVE",
"837 156 OFFCURVE",
"837 403 CURVE SMOOTH",
"837 587 OFFCURVE",
"700 716 OFFCURVE",
"482 716 CURVE SMOOTH",
"225 716 OFFCURVE",
"41 544 OFFCURVE",
"41 297 CURVE SMOOTH",
"41 113 OFFCURVE",
"178 -16 OFFCURVE",
"396 -16 CURVE SMOOTH"
);
},
{
closed = 1;
nodes = (
"667 -177 OFFCURVE",
"743 -154 OFFCURVE",
"794 -107 CURVE",
"709 30 LINE",
"678 3 OFFCURVE",
"639 -13 OFFCURVE",
"605 -13 CURVE SMOOTH",
"559 -13 OFFCURVE",
"535 6 OFFCURVE",
"516 80 CURVE",
"261 30 LINE",
"327 -111 OFFCURVE",
"431 -177 OFFCURVE",
"583 -177 CURVE SMOOTH"
);
},
{
closed = 1;
nodes = (
"330 175 OFFCURVE",
"279 230 OFFCURVE",
"279 311 CURVE SMOOTH",
"279 426 OFFCURVE",
"346 525 OFFCURVE",
"462 525 CURVE SMOOTH",
"548 525 OFFCURVE",
"599 470 OFFCURVE",
"599 389 CURVE SMOOTH",
"599 274 OFFCURVE",
"532 175 OFFCURVE",
"416 175 CURVE SMOOTH"
);
}
);
width = 848;
},
{
anchors = (
{
name = top;
position = "{508, 700}";
}
);
layerId = "C4221BDF-4AE8-4E40-821A-B2476087DE1A";
paths = (
{
closed = 1;
nodes = (
"648 -9 OFFCURVE",
"817 177 OFFCURVE",
"817 412 CURVE SMOOTH",
"817 588 OFFCURVE",
"695 709 OFFCURVE",
"485 709 CURVE SMOOTH",
"227 709 OFFCURVE",
"58 523 OFFCURVE",
"58 288 CURVE SMOOTH",
"58 112 OFFCURVE",
"180 -9 OFFCURVE",
"390 -9 CURVE SMOOTH"
);
},
{
closed = 1;
nodes = (
"660 -150 OFFCURVE",
"725 -126 OFFCURVE",
"766 -77 CURVE",
"720 -6 LINE",
"687 -41 OFFCURVE",
"641 -60 OFFCURVE",
"594 -60 CURVE SMOOTH",
"532 -60 OFFCURVE",
"488 -31 OFFCURVE",
"453 43 CURVE",
"325 16 LINE",
"388 -91 OFFCURVE",
"478 -150 OFFCURVE",
"591 -150 CURVE SMOOTH"
);
},
{
closed = 1;
nodes = (
"252 93 OFFCURVE",
"173 175 OFFCURVE",
"173 295 CURVE SMOOTH",
"173 464 OFFCURVE",
"290 607 OFFCURVE",
"475 607 CURVE SMOOTH",
"623 607 OFFCURVE",
"702 525 OFFCURVE",
"702 405 CURVE SMOOTH",
"702 236 OFFCURVE",
"585 93 OFFCURVE",
"400 93 CURVE SMOOTH"
);
}
);
width = 841;
}
);
leftKerningGroup = O;
leftMetricsKey = O;
widthMetricsKey = O;
rightKerningGroup = O;
unicode = 0051;
},
{
glyphname = Qhooktail;
layers = (
{
anchors = (
{
name = bottom;
position = "{380, 0}";
},
{
name = center;
position = "{450, 350}";
},
{
name = ogonek;
position = "{431, 0}";
},
{
name = top;
position = "{520, 700}";
},
{
name = topleft;
position = "{161, 700}";
},
{
name = topright;
position = "{769, 700}";
}
);
layerId = UUID0;
paths = (
{
closed = 1;
nodes = (
"606 -3 OFFCURVE",
"764 132 OFFCURVE",
"807 352 CURVE",
"848 555 OFFCURVE",
"721 703 OFFCURVE",
"504 703 CURVE SMOOTH",
"268 703 OFFCURVE",
"86 524 OFFCURVE",
"86 290 CURVE SMOOTH",
"86 107 OFFCURVE",
"201 -3 OFFCURVE",
"393 -3 CURVE SMOOTH"
);
},
{
closed = 1;
nodes = (
"213 16 OFFCURVE",
"106 118 OFFCURVE",
"106 291 CURVE SMOOTH",
"106 514 OFFCURVE",
"279 684 OFFCURVE",
"504 684 CURVE SMOOTH",
"709 684 OFFCURVE",
"826 545 OFFCURVE",
"789 348 CURVE SMOOTH",
"751 150 OFFCURVE",
"591 16 OFFCURVE",
"393 16 CURVE SMOOTH"
);
},
{
closed = 1;
nodes = (
"866 -164 LINE",
"789 -195 OFFCURVE",
"705 -166 OFFCURVE",
"726 -63 CURVE SMOOTH",
"879 700 LINE",
"859 700 LINE",
"808 443 LINE",
"805 353 LINE",
"772 263 LINE",
"707 -60 LINE SMOOTH",
"684 -176 OFFCURVE",
"783 -218 OFFCURVE",
"870 -183 CURVE"
);
}
);
width = 928;
},
{
anchors = (
{
name = bottom;
position = "{373, 0}";
},
{
name = center;
position = "{443, 350}";
},
{
name = ogonek;
position = "{455, 0}";
},
{
name = top;
position = "{513, 700}";
},
{
name = topleft;
position = "{140, 700}";
},
{
name = topright;
position = "{726, 700}";
}
);
layerId = "C4221BDF-4AE8-4E40-821A-B2476087DE1A";
paths = (
{
closed = 1;
nodes = (
"569 -9 OFFCURVE",
"722 128 OFFCURVE",
"765 343 CURVE SMOOTH",
"809 567 OFFCURVE",
"701 709 OFFCURVE",
"488 709 CURVE SMOOTH",
"249 709 OFFCURVE",
"64 531 OFFCURVE",
"64 301 CURVE SMOOTH",
"64 114 OFFCURVE",
"187 -9 OFFCURVE",
"373 -9 CURVE SMOOTH"
);
},
{
closed = 1;
nodes = (
"259 93 OFFCURVE",
"179 174 OFFCURVE",
"179 305 CURVE SMOOTH",
"179 475 OFFCURVE",
"311 607 OFFCURVE",
"483 607 CURVE SMOOTH",
"635 607 OFFCURVE",
"726 505 OFFCURVE",
"703 361 CURVE SMOOTH",
"679 210 OFFCURVE",
"542 93 OFFCURVE",
"387 93 CURVE SMOOTH"
);
},
{
closed = 1;
nodes = (
"850 -102 LINE",
"779 -119 OFFCURVE",
"725 -93 OFFCURVE",
"740 -20 CURVE SMOOTH",
"884 700 LINE",
"769 700 LINE",
"731 508 LINE",
"714 353 LINE",
"673 198 LINE",
"629 -26 LINE SMOOTH",
"599 -171 OFFCURVE",
"734 -225 OFFCURVE",
"856 -191 CURVE"
);
}
);
width = 901;
},
{
anchors = (
{
name = bottom;
position = "{373, 0}";
},
{
name = center;
position = "{443, 350}";
},
{
name = ogonek;
position = "{496, 0}";
},
{
name = top;
position = "{513, 700}";
},
{
name = topleft;
position = "{123, 700}";
},
{
name = topright;
position = "{679, 700}";
}
);
layerId = "5DA6E103-6A94-47F2-987D-4952DB8EA68E";
paths = (
{
closed = 1;
nodes = (
"525 -15 OFFCURVE",
"643 104 OFFCURVE",
"684 320 CURVE SMOOTH",
"731 567 OFFCURVE",
"635 716 OFFCURVE",
"439 716 CURVE SMOOTH",
"221 716 OFFCURVE",
"39 531 OFFCURVE",
"39 309 CURVE SMOOTH",
"39 120 OFFCURVE",
"171 -15 OFFCURVE",
"354 -15 CURVE SMOOTH"
);
},
{
closed = 1;
nodes = (
"333 175 OFFCURVE",
"277 230 OFFCURVE",
"277 322 CURVE SMOOTH",
"277 434 OFFCURVE",
"360 525 OFFCURVE",
"467 525 CURVE SMOOTH",
"569 525 OFFCURVE",
"623 441 OFFCURVE",
"601 330 CURVE SMOOTH",
"582 233 OFFCURVE",
"516 175 OFFCURVE",
"423 175 CURVE SMOOTH"
);
},
{
closed = 1;
nodes = (
"839 -28 LINE",
"788 -44 OFFCURVE",
"754 -25 OFFCURVE",
"763 18 CURVE SMOOTH",
"900 700 LINE",
"665 700 LINE",
"641 577 LINE",
"608 350 LINE",
"561 125 LINE",
"539 18 LINE SMOOTH",
"500 -174 OFFCURVE",
"673 -241 OFFCURVE",
"848 -189 CURVE"
);
}
);
width = 876;
}
);
leftKerningGroup = O;
rightKerningGroup = Qhooktail;
unicode = 024A;
},
{
glyphname = R;
layers = (
{
anchors = (
{
name = bottom;
position = "{314, 0}";
},
{
name = top;
position = "{454, 700}";
}
);
layerId = UUID0;
paths = (
{
closed = 1;
nodes = (
"101 0 LINE",
"151 249 LINE",
"140 240 LINE",
"373 240 LINE SMOOTH",
"568 240 OFFCURVE",
"690 334 OFFCURVE",
"690 514 CURVE SMOOTH",
"690 633 OFFCURVE",
"604 700 OFFCURVE",
"456 700 CURVE SMOOTH",
"221 700 LINE",
"81 0 LINE"
);
},
{
closed = 1;
nodes = (
"603 0 LINE",
"459 254 LINE",
"436 254 LINE",
"580 0 LINE"
);
},
{
closed = 1;
nodes = (
"239 689 LINE",
"228 681 LINE",
"457 681 LINE SMOOTH",
"594 681 OFFCURVE",
"670 621 OFFCURVE",
"670 514 CURVE SMOOTH",
"670 345 OFFCURVE",
"561 259 OFFCURVE",
"372 259 CURVE SMOOTH",
"144 259 LINE",
"151 251 LINE"
);
}
);
width = 716;
},
{
anchors = (
{
name = bottom;
position = "{324, 0}";
},
{
name = top;
position = "{464, 700}";
}
);
layerId = "5DA6E103-6A94-47F2-987D-4952DB8EA68E";
paths = (
{
closed = 1;
nodes = (
"238 0 LINE",
"293 275 LINE",
"167 176 LINE",
"393 176 LINE SMOOTH",
"608 176 OFFCURVE",
"747 294 OFFCURVE",
"747 470 CURVE SMOOTH",
"747 615 OFFCURVE",
"641 700 OFFCURVE",
"456 700 CURVE SMOOTH",
"142 700 LINE",
"2 0 LINE"
);
},
{
closed = 1;
nodes = (
"675 0 LINE",
"529 255 LINE",
"286 255 LINE",
"430 0 LINE"
);
},
{
closed = 1;
nodes = (
"363 628 LINE",
"237 518 LINE",
"420 518 LINE SMOOTH",
"474 518 OFFCURVE",
"508 497 OFFCURVE",
"508 447 CURVE SMOOTH",
"508 388 OFFCURVE",
"470 354 OFFCURVE",
"405 354 CURVE SMOOTH",
"204 354 LINE",
"287 247 LINE"
);
}
);
width = 745;
},
{
anchors = (
{
name = bottom;
position = "{318, 0}";
},
{
name = top;
position = "{458, 700}";
}
);
layerId = "C4221BDF-4AE8-4E40-821A-B2476087DE1A";
paths = (
{
closed = 1;
nodes = (
"162 0 LINE",
"214 262 LINE",
"155 209 LINE",
"384 209 LINE SMOOTH",
"588 209 OFFCURVE",
"715 315 OFFCURVE",
"715 492 CURVE SMOOTH",
"715 623 OFFCURVE",
"619 700 OFFCURVE",
"453 700 CURVE SMOOTH",
"187 700 LINE",
"47 0 LINE"
);
},
{
closed = 1;
nodes = (
"634 0 LINE",
"491 254 LINE",
"369 254 LINE",
"512 0 LINE"
);
},
{
closed = 1;
nodes = (
"294 659 LINE",
"235 601 LINE",
"442 601 LINE SMOOTH",
"543 601 OFFCURVE",
"600 561 OFFCURVE",
"600 481 CURVE SMOOTH",
"600 366 OFFCURVE",
"522 306 OFFCURVE",
"387 306 CURVE SMOOTH",
"173 306 LINE",
"211 249 LINE"
);
}
);
width = 729;
}
);
leftKerningGroup = H;
leftMetricsKey = H;
rightKerningGroup = R;
unicode = 0052;
},
{
glyphname = Rstroke;
layers = (
{
anchors = (
{
name = bottom;
position = "{314, 0}";
},
{
name = top;
position = "{454, 700}";
}
);
layerId = UUID0;
paths = (
{
closed = 1;
nodes = (
"101 0 LINE",
"151 249 LINE",
"140 240 LINE",
"373 240 LINE SMOOTH",
"568 240 OFFCURVE",
"690 334 OFFCURVE",
"690 514 CURVE SMOOTH",
"690 633 OFFCURVE",
"604 700 OFFCURVE",
"456 700 CURVE SMOOTH",
"221 700 LINE",
"81 0 LINE"
);
},
{
closed = 1;
nodes = (
"603 0 LINE",
"459 254 LINE",
"436 254 LINE",
"580 0 LINE"
);
},
{
closed = 1;
nodes = (
"239 689 LINE",
"228 681 LINE",
"457 681 LINE SMOOTH",
"594 681 OFFCURVE",
"670 621 OFFCURVE",
"670 514 CURVE SMOOTH",
"670 345 OFFCURVE",
"561 259 OFFCURVE",
"372 259 CURVE SMOOTH",
"144 259 LINE",
"151 251 LINE"
);
},
{
closed = 1;
nodes = (
"326 240 LINE",
"330 259 LINE",
"13 259 LINE",
"9 240 LINE"
);
}
);
width = 716;
},
{
anchors = (
{
name = bottom;
position = "{318, 0}";
},
{
name = top;
position = "{458, 700}";
}
);
layerId = "C4221BDF-4AE8-4E40-821A-B2476087DE1A";
paths = (
{
closed = 1;
nodes = (
"162 0 LINE",
"214 262 LINE",
"155 209 LINE",
"384 209 LINE SMOOTH",
"588 209 OFFCURVE",
"715 315 OFFCURVE",
"715 492 CURVE SMOOTH",
"715 623 OFFCURVE",
"619 700 OFFCURVE",
"453 700 CURVE SMOOTH",
"187 700 LINE",
"47 0 LINE"
);
},
{
closed = 1;
nodes = (
"634 0 LINE",
"491 254 LINE",
"369 254 LINE",
"512 0 LINE"
);
},
{
closed = 1;
nodes = (
"294 659 LINE",
"235 601 LINE",
"442 601 LINE SMOOTH",
"543 601 OFFCURVE",
"600 561 OFFCURVE",
"600 481 CURVE SMOOTH",
"600 366 OFFCURVE",
"522 306 OFFCURVE",
"387 306 CURVE SMOOTH",
"173 306 LINE",
"211 249 LINE"
);
},
{
closed = 1;
nodes = (
"316 216 LINE",
"332 306 LINE",
"6 306 LINE",
"-11 216 LINE"
);
}
);
width = 729;
},
{
anchors = (
{
name = bottom;
position = "{324, 0}";
},
{
name = top;
position = "{464, 700}";
}
);
layerId = "5DA6E103-6A94-47F2-987D-4952DB8EA68E";
paths = (
{
closed = 1;
nodes = (
"238 0 LINE",
"293 275 LINE",
"167 176 LINE",
"393 176 LINE SMOOTH",
"608 176 OFFCURVE",
"747 294 OFFCURVE",
"747 470 CURVE SMOOTH",
"747 615 OFFCURVE",
"641 700 OFFCURVE",
"456 700 CURVE SMOOTH",
"142 700 LINE",
"2 0 LINE"
);
},
{
closed = 1;
nodes = (
"675 0 LINE",
"529 255 LINE",
"286 255 LINE",
"430 0 LINE"
);
},
{
closed = 1;
nodes = (
"363 628 LINE",
"237 518 LINE",
"420 518 LINE SMOOTH",
"474 518 OFFCURVE",
"508 497 OFFCURVE",
"508 447 CURVE SMOOTH",
"508 388 OFFCURVE",
"470 354 OFFCURVE",
"405 354 CURVE SMOOTH",
"204 354 LINE",
"287 247 LINE"
);
},
{
closed = 1;
nodes = (
"351 218 LINE",
"374 354 LINE",
"4 354 LINE",
"-23 218 LINE"
);
}
);
width = 745;
}
);
leftKerningGroup = Lbar;
rightKerningGroup = R;
unicode = 024C;
},
{
glyphname = Rtail;
layers = (
{
anchors = (
{
name = bottom;
position = "{318, 0}";
},
{
name = top;
position = "{458, 700}";
}
);
layerId = UUID0;
paths = (
{
closed = 1;
nodes = (
"266 -147 LINE",
"178 -203 OFFCURVE",
"69 -178 OFFCURVE",
"92 -63 CURVE SMOOTH",
"155 249 LINE",
"144 240 LINE",
"377 240 LINE SMOOTH",
"572 240 OFFCURVE",
"694 334 OFFCURVE",
"694 514 CURVE SMOOTH",
"694 633 OFFCURVE",
"608 700 OFFCURVE",
"460 700 CURVE SMOOTH",
"225 700 LINE",
"73 -60 LINE SMOOTH",
"47 -192 OFFCURVE",
"178 -229 OFFCURVE",
"273 -165 CURVE"
);
},
{
closed = 1;
nodes = (
"607 0 LINE",
"463 254 LINE",
"440 254 LINE",
"584 0 LINE"
);
},
{
closed = 1;
nodes = (
"243 689 LINE",
"232 681 LINE",
"461 681 LINE SMOOTH",
"598 681 OFFCURVE",
"674 621 OFFCURVE",
"674 514 CURVE SMOOTH",
"674 345 OFFCURVE",
"565 259 OFFCURVE",
"376 259 CURVE SMOOTH",
"148 259 LINE",
"155 251 LINE"
);
}
);
width = 736;
},
{
anchors = (
{
name = bottom;
position = "{324, 0}";
},
{
name = top;
position = "{464, 700}";
}
);
layerId = "C4221BDF-4AE8-4E40-821A-B2476087DE1A";
paths = (
{
closed = 1;
nodes = (
"279 -102 LINE",
"198 -119 OFFCURVE",
"147 -93 OFFCURVE",
"162 -20 CURVE SMOOTH",
"218 262 LINE",
"159 209 LINE",
"388 209 LINE SMOOTH",
"592 209 OFFCURVE",
"719 315 OFFCURVE",
"719 492 CURVE SMOOTH",
"719 623 OFFCURVE",
"623 700 OFFCURVE",
"457 700 CURVE SMOOTH",
"191 700 LINE",
"47 -23 LINE SMOOTH",
"17 -171 OFFCURVE",
"153 -225 OFFCURVE",
"285 -191 CURVE"
);
},
{
closed = 1;
nodes = (
"638 0 LINE",
"495 254 LINE",
"373 254 LINE",
"516 0 LINE"
);
},
{
closed = 1;
nodes = (
"298 659 LINE",
"239 601 LINE",
"446 601 LINE SMOOTH",
"547 601 OFFCURVE",
"604 561 OFFCURVE",
"604 481 CURVE SMOOTH",
"604 366 OFFCURVE",
"526 306 OFFCURVE",
"391 306 CURVE SMOOTH",
"177 306 LINE",
"215 249 LINE"
);
}
);
width = 738;
},
{
anchors = (
{
name = bottom;
position = "{329, 0}";
},
{
name = top;
position = "{469, 700}";
}
);
layerId = "5DA6E103-6A94-47F2-987D-4952DB8EA68E";
paths = (
{
closed = 1;
nodes = (
"346 -16 LINE",
"284 -46 OFFCURVE",
"237 -33 OFFCURVE",
"247 18 CURVE SMOOTH",
"299 275 LINE",
"173 176 LINE",
"399 176 LINE SMOOTH",
"614 176 OFFCURVE",
"753 294 OFFCURVE",
"753 470 CURVE SMOOTH",
"753 615 OFFCURVE",
"647 700 OFFCURVE",
"462 700 CURVE SMOOTH",
"148 700 LINE",
"11 18 LINE SMOOTH",
"-33 -200 OFFCURVE",
"196 -250 OFFCURVE",
"369 -174 CURVE"
);
},
{
closed = 1;
nodes = (
"681 0 LINE",
"535 255 LINE",
"292 255 LINE",
"436 0 LINE"
);
},
{
closed = 1;
nodes = (
"369 628 LINE",
"243 518 LINE",
"426 518 LINE SMOOTH",
"480 518 OFFCURVE",
"514 497 OFFCURVE",
"514 447 CURVE SMOOTH",
"514 388 OFFCURVE",
"476 354 OFFCURVE",
"411 354 CURVE SMOOTH",
"210 354 LINE",
"293 247 LINE"
);
}
);
width = 753;
}
);
leftKerningGroup = H;
rightKerningGroup = R;
unicode = 2C64;
},
{
glyphname = S;
layers = (
{
anchors = (
{
name = bottom;
position = "{266, 0}";
},
{
name = center;
position = "{341, 350}";
},
{
name = top;
position = "{406, 700}";
}
);
layerId = UUID0;
paths = (
{
closed = 1;
nodes = (
"410 -3 OFFCURVE",
"527 63 OFFCURVE",
"527 195 CURVE SMOOTH",
"527 403 OFFCURVE",
"150 312 OFFCURVE",
"150 505 CURVE SMOOTH",
"150 618 OFFCURVE",
"250 684 OFFCURVE",
"388 684 CURVE SMOOTH",
"461 684 OFFCURVE",
"528 663 OFFCURVE",
"577 624 CURVE",
"590 641 LINE",
"541 681 OFFCURVE",
"464 703 OFFCURVE",
"388 703 CURVE SMOOTH",
"242 703 OFFCURVE",
"131 633 OFFCURVE",
"131 503 CURVE SMOOTH",
"131 292 OFFCURVE",
"507 384 OFFCURVE",
"507 194 CURVE SMOOTH",
"507 79 OFFCURVE",
"406 16 OFFCURVE",
"264 16 CURVE SMOOTH",
"173 16 OFFCURVE",
"79 55 OFFCURVE",
"42 108 CURVE",
"26 95 LINE",
"64 39 OFFCURVE",
"164 -3 OFFCURVE",
"263 -3 CURVE SMOOTH"
);
}
);
width = 601;
},
{
anchors = (
{
name = bottom;
position = "{274, 0}";
},
{
name = center;
position = "{341, 350}";
},
{
name = top;
position = "{414, 700}";
}
);
layerId = "5DA6E103-6A94-47F2-987D-4952DB8EA68E";
paths = (
{
closed = 1;
nodes = (
"498 -16 OFFCURVE",
"634 89 OFFCURVE",
"634 245 CURVE SMOOTH",
"634 461 OFFCURVE",
"300 412 OFFCURVE",
"300 489 CURVE SMOOTH",
"300 513 OFFCURVE",
"334 536 OFFCURVE",
"403 536 CURVE SMOOTH",
"471 536 OFFCURVE",
"539 519 OFFCURVE",
"595 484 CURVE",
"680 656 LINE",
"615 695 OFFCURVE",
"522 716 OFFCURVE",
"418 716 CURVE SMOOTH",
"197 716 OFFCURVE",
"64 612 OFFCURVE",
"64 453 CURVE SMOOTH",
"64 236 OFFCURVE",
"397 279 OFFCURVE",
"397 205 CURVE SMOOTH",
"397 180 OFFCURVE",
"365 164 OFFCURVE",
"304 164 CURVE SMOOTH",
"226 164 OFFCURVE",
"146 184 OFFCURVE",
"68 229 CURVE",
"-23 55 LINE",
"44 14 OFFCURVE",
"155 -16 OFFCURVE",
"280 -16 CURVE SMOOTH"
);
}
);
width = 657;
},
{
anchors = (
{
name = bottom;
position = "{268, 0}";
},
{
name = center;
position = "{341, 350}";
},
{
name = top;
position = "{408, 700}";
}
);
layerId = "C4221BDF-4AE8-4E40-821A-B2476087DE1A";
paths = (
{
closed = 1;
nodes = (
"448 -9 OFFCURVE",
"571 76 OFFCURVE",
"571 213 CURVE SMOOTH",
"571 428 OFFCURVE",
"213 360 OFFCURVE",
"215 500 CURVE SMOOTH",
"216 567 OFFCURVE",
"284 612 OFFCURVE",
"394 612 CURVE SMOOTH",
"464 612 OFFCURVE",
"532 593 OFFCURVE",
"584 557 CURVE",
"629 650 LINE",
"571 688 OFFCURVE",
"488 709 OFFCURVE",
"400 709 CURVE SMOOTH",
"224 709 OFFCURVE",
"102 623 OFFCURVE",
"102 489 CURVE SMOOTH",
"102 262 OFFCURVE",
"458 334 OFFCURVE",
"458 196 CURVE SMOOTH",
"458 128 OFFCURVE",
"387 88 OFFCURVE",
"279 88 CURVE SMOOTH",
"193 88 OFFCURVE",
"107 118 OFFCURVE",
"52 166 CURVE",
"2 74 LINE",
"56 27 OFFCURVE",
"161 -9 OFFCURVE",
"269 -9 CURVE SMOOTH"
);
}
);
width = 625;
}
);
leftKerningGroup = S;
rightKerningGroup = S;
unicode = 0053;
},
{
glyphname = Germandbls;
layers = (
{
anchors = (
{
name = bottom;
position = "{326, 0}";
},
{
name = top;
position = "{466, 700}";
}
);
layerId = UUID0;
paths = (
{
closed = 1;
nodes = (
"553 -3 OFFCURVE",
"651 83 OFFCURVE",
"651 224 CURVE SMOOTH",
"651 328 OFFCURVE",
"579 387 OFFCURVE",
"463 387 CURVE SMOOTH",
"438 387 OFFCURVE",
"410 385 OFFCURVE",
"384 377 CURVE",
"386 366 LINE",
"668 610 LINE",
"671 626 LINE",
"628 676 OFFCURVE",
"559 703 OFFCURVE",
"463 703 CURVE SMOOTH",
"287 703 OFFCURVE",
"183 606 OFFCURVE",
"149 436 CURVE SMOOTH",
"62 0 LINE",
"82 0 LINE",
"167 429 LINE SMOOTH",
"200 595 OFFCURVE",
"298 684 OFFCURVE",
"462 684 CURVE SMOOTH",
"550 684 OFFCURVE",
"617 661 OFFCURVE",
"655 615 CURVE",
"658 625 LINE",
"366 373 LINE",
"369 357 LINE",
"396 365 OFFCURVE",
"431 369 OFFCURVE",
"461 369 CURVE SMOOTH",
"568 369 OFFCURVE",
"632 319 OFFCURVE",
"632 224 CURVE SMOOTH",
"632 94 OFFCURVE",
"542 16 OFFCURVE",
"410 16 CURVE SMOOTH",
"357 16 OFFCURVE",
"311 26 OFFCURVE",
"271 47 CURVE",
"261 27 LINE",
"301 7 OFFCURVE",
"354 -3 OFFCURVE",
"407 -3 CURVE SMOOTH"
);
}
);
width = 729;
},
{
anchors = (
{
name = bottom;
position = "{349, 0}";
},
{
name = top;
position = "{489, 700}";
}
);
guideLines = (
{
angle = 49.4672;
position = "{309, 308}";
}
);
layerId = "5DA6E103-6A94-47F2-987D-4952DB8EA68E";
paths = (
{
closed = 1;
nodes = (
"637 -16 OFFCURVE",
"755 91 OFFCURVE",
"755 234 CURVE SMOOTH",
"755 352 OFFCURVE",
"656 433 OFFCURVE",
"525 433 CURVE SMOOTH",
"506 433 OFFCURVE",
"481 430 OFFCURVE",
"459 425 CURVE",
"531 310 LINE",
"741 515 LINE",
"768 650 LINE",
"699 692 OFFCURVE",
"585 716 OFFCURVE",
"499 716 CURVE SMOOTH",
"253 716 OFFCURVE",
"114 613 OFFCURVE",
"70 395 CURVE SMOOTH",
"-9 0 LINE",
"227 0 LINE",
"304 387 LINE SMOOTH",
"324 489 OFFCURVE",
"381 536 OFFCURVE",
"479 536 CURVE SMOOTH",
"537 536 OFFCURVE",
"586 517 OFFCURVE",
"632 487 CURVE",
"647 635 LINE",
"368 365 LINE",
"389 269 LINE",
"407 275 OFFCURVE",
"427 278 OFFCURVE",
"446 278 CURVE SMOOTH",
"491 278 OFFCURVE",
"517 257 OFFCURVE",
"517 224 CURVE SMOOTH",
"517 188 OFFCURVE",
"488 164 OFFCURVE",
"440 164 CURVE SMOOTH",
"398 164 OFFCURVE",
"364 172 OFFCURVE",
"343 180 CURVE",
"285 10 LINE",
"323 -5 OFFCURVE",
"392 -16 OFFCURVE",
"451 -16 CURVE SMOOTH"
);
}
);
width = 793;
},
{
anchors = (
{
name = bottom;
position = "{339, 0}";
},
{
name = top;
position = "{479, 700}";
}
);
layerId = "C4221BDF-4AE8-4E40-821A-B2476087DE1A";
paths = (
{
closed = 1;
nodes = (
"588 -9 OFFCURVE",
"695 87 OFFCURVE",
"695 229 CURVE SMOOTH",
"695 340 OFFCURVE",
"611 409 OFFCURVE",
"489 409 CURVE SMOOTH",
"466 409 OFFCURVE",
"440 407 OFFCURVE",
"415 400 CURVE",
"460 339 LINE",
"698 564 LINE",
"712 638 LINE",
"658 684 OFFCURVE",
"569 709 OFFCURVE",
"477 709 CURVE SMOOTH",
"271 709 OFFCURVE",
"152 609 OFFCURVE",
"113 415 CURVE SMOOTH",
"30 0 LINE",
"144 0 LINE",
"225 407 LINE SMOOTH",
"252 543 OFFCURVE",
"333 612 OFFCURVE",
"468 612 CURVE SMOOTH",
"543 612 OFFCURVE",
"602 591 OFFCURVE",
"643 553 CURVE",
"640 630 LINE",
"365 369 LINE",
"376 314 LINE",
"399 321 OFFCURVE",
"428 325 OFFCURVE",
"453 325 CURVE SMOOTH",
"533 325 OFFCURVE",
"580 289 OFFCURVE",
"580 224 CURVE SMOOTH",
"580 140 OFFCURVE",
"519 88 OFFCURVE",
"426 88 CURVE SMOOTH",
"379 88 OFFCURVE",
"337 97 OFFCURVE",
"301 112 CURVE",
"270 19 LINE",
"309 1 OFFCURVE",
"369 -9 OFFCURVE",
"425 -9 CURVE SMOOTH"
);
}
);
width = 755;
}
);
leftKerningGroup = A.ss01;
leftMetricsKey = "=|U";
rightKerningGroup = B;
unicode = 1E9E;
},
{
glyphname = Sobliquestroke;
layers = (
{
layerId = UUID0;
paths = (
{
closed = 1;
nodes = (
"410 -3 OFFCURVE",
"527 63 OFFCURVE",
"527 195 CURVE SMOOTH",
"527 403 OFFCURVE",
"150 312 OFFCURVE",
"150 505 CURVE SMOOTH",
"150 618 OFFCURVE",
"250 684 OFFCURVE",
"388 684 CURVE SMOOTH",
"461 684 OFFCURVE",
"528 663 OFFCURVE",
"577 624 CURVE",
"590 641 LINE",
"541 681 OFFCURVE",
"464 703 OFFCURVE",
"388 703 CURVE SMOOTH",
"242 703 OFFCURVE",
"131 633 OFFCURVE",
"131 503 CURVE SMOOTH",
"131 292 OFFCURVE",
"507 384 OFFCURVE",
"507 194 CURVE SMOOTH",
"507 79 OFFCURVE",
"406 16 OFFCURVE",
"264 16 CURVE SMOOTH",
"173 16 OFFCURVE",
"79 55 OFFCURVE",
"42 108 CURVE",
"26 95 LINE",
"64 39 OFFCURVE",
"164 -3 OFFCURVE",
"263 -3 CURVE SMOOTH"
);
},
{
closed = 1;
nodes = (
"432 475 LINE",
"419 488 LINE",
"186 232 LINE",
"199 219 LINE"
);
}
);
width = 601;
},
{
layerId = "C4221BDF-4AE8-4E40-821A-B2476087DE1A";
paths = (
{
closed = 1;
nodes = (
"448 -9 OFFCURVE",
"571 76 OFFCURVE",
"571 213 CURVE SMOOTH",
"571 428 OFFCURVE",
"213 360 OFFCURVE",
"215 500 CURVE SMOOTH",
"216 567 OFFCURVE",
"284 612 OFFCURVE",
"394 612 CURVE SMOOTH",
"464 612 OFFCURVE",
"532 593 OFFCURVE",
"584 557 CURVE",
"629 650 LINE",
"571 688 OFFCURVE",
"488 709 OFFCURVE",
"400 709 CURVE SMOOTH",
"224 709 OFFCURVE",
"102 623 OFFCURVE",
"102 489 CURVE SMOOTH",
"102 262 OFFCURVE",
"458 334 OFFCURVE",
"458 196 CURVE SMOOTH",
"458 128 OFFCURVE",
"387 88 OFFCURVE",
"279 88 CURVE SMOOTH",
"193 88 OFFCURVE",
"107 118 OFFCURVE",
"52 166 CURVE",
"2 74 LINE",
"56 27 OFFCURVE",
"161 -9 OFFCURVE",
"269 -9 CURVE SMOOTH"
);
},
{
closed = 1;
nodes = (
"460 480 LINE",
"400 524 LINE",
"178 214 LINE",
"239 170 LINE"
);
}
);
width = 625;
},
{
layerId = "5DA6E103-6A94-47F2-987D-4952DB8EA68E";
paths = (
{
closed = 1;
nodes = (
"498 -16 OFFCURVE",
"634 89 OFFCURVE",
"634 245 CURVE SMOOTH",
"634 461 OFFCURVE",
"300 412 OFFCURVE",
"300 489 CURVE SMOOTH",
"300 523 OFFCURVE",
"334 546 OFFCURVE",
"403 546 CURVE SMOOTH",
"471 546 OFFCURVE",
"539 529 OFFCURVE",
"595 494 CURVE",
"680 656 LINE",
"615 695 OFFCURVE",
"522 716 OFFCURVE",
"418 716 CURVE SMOOTH",
"197 716 OFFCURVE",
"64 612 OFFCURVE",
"64 453 CURVE SMOOTH",
"64 236 OFFCURVE",
"397 279 OFFCURVE",
"397 205 CURVE SMOOTH",
"397 169 OFFCURVE",
"365 153 OFFCURVE",
"304 153 CURVE SMOOTH",
"226 153 OFFCURVE",
"146 173 OFFCURVE",
"68 218 CURVE",
"-23 55 LINE",
"44 14 OFFCURVE",
"155 -16 OFFCURVE",
"280 -16 CURVE SMOOTH"
);
},
{
closed = 1;
nodes = (
"496 483 LINE",
"404 535 LINE",
"187 227 LINE",
"282 168 LINE"
);
}
);
width = 657;
}
);
leftKerningGroup = S;
leftMetricsKey = S;
rightKerningGroup = S;
rightMetricsKey = S;
unicode = A7A8;
},
{
glyphname = T;
layers = (
{
anchors = (
{
name = bottom;
position = "{222, 0}";
},
{
name = center;
position = "{293, 355}";
},
{
name = top;
position = "{362, 700}";
}
);
layerId = UUID0;
paths = (
{
closed = 1;
nodes = (
"232 0 LINE",
"368 681 LINE",
"628 681 LINE",
"632 700 LINE",
"92 700 LINE",
"88 681 LINE",
"348 681 LINE",
"212 0 LINE"
);
}
);
width = 548;
},
{
anchors = (
{
name = bottom;
position = "{272, 0}";
},
{
name = center;
position = "{340, 340}";
},
{
name = top;
position = "{412, 700}";
}
);
layerId = "5DA6E103-6A94-47F2-987D-4952DB8EA68E";
paths = (
{
closed = 1;
nodes = (
"390 0 LINE",
"493 517 LINE",
"698 517 LINE",
"735 700 LINE",
"89 700 LINE",
"52 517 LINE",
"257 517 LINE",
"154 0 LINE"
);
}
);
width = 654;
},
{
anchors = (
{
name = bottom;
position = "{244, 0}";
},
{
name = center;
position = "{315, 359}";
},
{
name = top;
position = "{384, 700}";
}
);
layerId = "C4221BDF-4AE8-4E40-821A-B2476087DE1A";
paths = (
{
closed = 1;
nodes = (
"301 0 LINE",
"421 601 LINE",
"657 601 LINE",
"677 700 LINE",
"91 700 LINE",
"71 601 LINE",
"307 601 LINE",
"187 0 LINE"
);
}
);
width = 594;
}
);
leftKerningGroup = T;
rightKerningGroup = T;
unicode = 0054;
},
{
glyphname = Tbar;
layers = (
{
layerId = UUID0;
paths = (
{
closed = 1;
nodes = (
"232 0 LINE",
"368 681 LINE",
"628 681 LINE",
"632 700 LINE",
"92 700 LINE",
"88 681 LINE",
"348 681 LINE",
"212 0 LINE"
);
},
{
closed = 1;
nodes = (
"471 345 LINE",
"475 364 LINE",
"115 364 LINE",
"111 345 LINE"
);
}
);
width = 548;
},
{
layerId = "5DA6E103-6A94-47F2-987D-4952DB8EA68E";
paths = (
{
closed = 1;
nodes = (
"391 0 LINE",
"494 517 LINE",
"699 517 LINE",
"736 700 LINE",
"90 700 LINE",
"53 517 LINE",
"258 517 LINE",
"155 0 LINE"
);
},
{
closed = 1;
nodes = (
"547 246 LINE",
"574 382 LINE",
"124 382 LINE",
"97 246 LINE"
);
}
);
width = 654;
},
{
layerId = "C4221BDF-4AE8-4E40-821A-B2476087DE1A";
paths = (
{
closed = 1;
nodes = (
"301 0 LINE",
"421 601 LINE",
"657 601 LINE",
"677 700 LINE",
"91 700 LINE",
"71 601 LINE",
"307 601 LINE",
"187 0 LINE"
);
},
{
closed = 1;
nodes = (
"518 314 LINE",
"535 404 LINE",
"115 404 LINE",
"98 314 LINE"
);
}
);
width = 594;
}
);
leftKerningGroup = T;
rightKerningGroup = T;
unicode = 0166;
},
{
glyphname = Tdiagonalstroke;
layers = (
{
layerId = UUID0;
paths = (
{
closed = 1;
nodes = (
"28 -70 LINE",
"586 770 LINE",
"564 770 LINE",
"6 -70 LINE"
);
},
{
closed = 1;
nodes = (
"232 0 LINE",
"368 681 LINE",
"628 681 LINE",
"632 700 LINE",
"92 700 LINE",
"88 681 LINE",
"348 681 LINE",
"212 0 LINE"
);
}
);
width = 548;
},
{
layerId = "C4221BDF-4AE8-4E40-821A-B2476087DE1A";
paths = (
{
closed = 1;
nodes = (
"123 -70 LINE",
"668 770 LINE",
"580 770 LINE",
"35 -70 LINE"
);
},
{
closed = 1;
nodes = (
"297 0 LINE",
"417 601 LINE",
"653 601 LINE",
"673 700 LINE",
"91 700 LINE",
"71 601 LINE",
"307 601 LINE",
"187 0 LINE"
);
}
);
width = 590;
},
{
layerId = "5DA6E103-6A94-47F2-987D-4952DB8EA68E";
paths = (
{
closed = 1;
nodes = (
"159 -70 LINE",
"723 770 LINE",
"609 770 LINE",
"45 -70 LINE"
);
},
{
closed = 1;
nodes = (
"379 0 LINE",
"483 517 LINE",
"698 517 LINE",
"734 700 LINE",
"88 700 LINE",
"52 517 LINE",
"267 517 LINE",
"163 0 LINE"
);
}
);
width = 653;
},
{
associatedMasterId = UUID0;
background = {
anchors = (
{
name = bottom;
position = "{222, 0}";
},
{
name = center;
position = "{293, 356}";
},
{
name = top;
position = "{362, 700}";
}
);
paths = (
{
closed = 1;
nodes = (
"232 0 LINE",
"368 681 LINE",
"628 681 LINE",
"632 700 LINE",
"92 700 LINE",
"88 681 LINE",
"348 681 LINE",
"212 0 LINE"
);
},
{
closed = 1;
nodes = (
"27 -70 LINE",
"584 770 LINE",
"564 770 LINE",
"6 -70 LINE"
);
}
);
};
layerId = "78AE9C1D-4A6A-4B1D-98ED-D3F866562E9E";
name = "[155]";
paths = (
{
closed = 1;
nodes = (
"28 -70 LINE",
"283 314 LINE",
"289 357 LINE",
"6 -70 LINE"
);
},
{
closed = 1;
nodes = (
"232 0 LINE",
"368 681 LINE",
"628 681 LINE",
"632 700 LINE",
"92 700 LINE",
"88 681 LINE",
"348 681 LINE",
"212 0 LINE"
);
},
{
closed = 1;
nodes = (
"534 692 LINE",
"586 770 LINE",
"564 770 LINE",
"512 692 LINE"
);
}
);
width = 548;
},
{
associatedMasterId = "C4221BDF-4AE8-4E40-821A-B2476087DE1A";
background = {
anchors = (
{
name = bottom;
position = "{243, 0}";
},
{
name = center;
position = "{310, 338}";
},
{
name = top;
position = "{383, 700}";
}
);
paths = (
{
closed = 1;
nodes = (
"297 0 LINE",
"417 601 LINE",
"653 601 LINE",
"673 700 LINE",
"91 700 LINE",
"71 601 LINE",
"307 601 LINE",
"187 0 LINE"
);
},
{
closed = 1;
nodes = (
"101 -70 LINE",
"646 770 LINE",
"575 770 LINE",
"30 -70 LINE"
);
}
);
};
layerId = "6D695820-475A-429E-9A30-C323ACD8AAC6";
name = "[155]";
paths = (
{
closed = 1;
nodes = (
"123 -70 LINE",
"237 106 LINE",
"273 297 LINE",
"35 -70 LINE"
);
},
{
closed = 1;
nodes = (
"297 0 LINE",
"417 601 LINE",
"653 601 LINE",
"673 700 LINE",
"91 700 LINE",
"71 601 LINE",
"307 601 LINE",
"187 0 LINE"
);
},
{
closed = 1;
nodes = (
"608 678 LINE",
"668 770 LINE",
"580 770 LINE",
"520 678 LINE"
);
}
);
width = 590;
},
{
associatedMasterId = "5DA6E103-6A94-47F2-987D-4952DB8EA68E";
background = {
anchors = (
{
name = bottom;
position = "{271, 0}";
},
{
name = center;
position = "{334, 315}";
},
{
name = top;
position = "{411, 700}";
}
);
paths = (
{
closed = 1;
nodes = (
"379 0 LINE",
"483 517 LINE",
"698 517 LINE",
"734 700 LINE",
"88 700 LINE",
"52 517 LINE",
"267 517 LINE",
"163 0 LINE"
);
},
{
closed = 1;
nodes = (
"178 -71 LINE",
"702 769 LINE",
"586 769 LINE",
"63 -71 LINE"
);
}
);
};
layerId = "AAEEA075-BEC2-455D-B2DB-B32047E052F7";
name = "[155]";
paths = (
{
closed = 1;
nodes = (
"159 -70 LINE",
"225 28 LINE",
"255 242 LINE",
"45 -70 LINE"
);
},
{
closed = 1;
nodes = (
"379 0 LINE",
"483 517 LINE",
"698 517 LINE",
"734 700 LINE",
"88 700 LINE",
"52 517 LINE",
"267 517 LINE",
"163 0 LINE"
);
},
{
closed = 1;
nodes = (
"658 673 LINE",
"723 770 LINE",
"609 770 LINE",
"544 673 LINE"
);
}
);
width = 653;
}
);
leftKerningGroup = T;
leftMetricsKey = T;
rightKerningGroup = T;
rightMetricsKey = T;
unicode = 023E;
},
{
glyphname = Thook;
layers = (
{
anchors = (
{
name = _hook.af;
position = "{335, 700}";
},
{
name = bottom;
position = "{269, 0}";
},
{
name = center;
position = "{340, 356}";
},
{
name = top;
position = "{409, 700}";
}
);
layerId = UUID0;
paths = (
{
closed = 1;
nodes = (
"279 0 LINE",
"415 681 LINE",
"675 681 LINE",
"679 700 LINE",
"340 700 LINE",
"335 681 LINE",
"395 681 LINE",
"259 0 LINE"
);
},
{
closed = 1;
nodes = (
"141 464 LINE",
"79 580 OFFCURVE",
"148 681 OFFCURVE",
"291 681 CURVE SMOOTH",
"337 681 LINE",
"340 700 LINE",
"292 700 LINE SMOOTH",
"135 700 OFFCURVE",
"55 583 OFFCURVE",
"124 455 CURVE"
);
}
);
width = 595;
},
{
anchors = (
{
name = _hook.af;
position = "{333, 700}";
},
{
name = bottom;
position = "{326, 0}";
},
{
name = center;
position = "{393, 336}";
},
{
name = top;
position = "{466, 700}";
}
);
layerId = "C4221BDF-4AE8-4E40-821A-B2476087DE1A";
paths = (
{
closed = 1;
nodes = (
"383 0 LINE",
"503 601 LINE",
"739 601 LINE",
"759 700 LINE",
"296 700 LINE",
"280 601 LINE",
"389 601 LINE",
"269 0 LINE"
);
},
{
closed = 1;
nodes = (
"210 425 LINE",
"152 513 OFFCURVE",
"190 601 OFFCURVE",
"287 601 CURVE SMOOTH",
"322 601 LINE",
"342 700 LINE",
"296 700 LINE SMOOTH",
"117 700 OFFCURVE",
"25 534 OFFCURVE",
"120 384 CURVE"
);
}
);
width = 676;
},
{
anchors = (
{
name = _hook.af;
position = "{345, 700}";
},
{
name = bottom;
position = "{381, 0}";
},
{
name = center;
position = "{444, 315}";
},
{
name = top;
position = "{521, 700}";
}
);
layerId = "5DA6E103-6A94-47F2-987D-4952DB8EA68E";
paths = (
{
closed = 1;
nodes = (
"499 0 LINE",
"603 517 LINE",
"808 517 LINE",
"844 700 LINE",
"335 700 LINE",
"306 517 LINE",
"367 517 LINE",
"263 0 LINE"
);
},
{
closed = 1;
nodes = (
"241 392 LINE",
"210 459 OFFCURVE",
"232 517 OFFCURVE",
"295 517 CURVE SMOOTH",
"314 517 LINE",
"350 700 LINE",
"335 700 LINE SMOOTH",
"117 700 OFFCURVE",
"-4 527 OFFCURVE",
"76 330 CURVE"
);
}
);
width = 763;
}
);
leftKerningGroup = Hhook;
leftMetricsKey = Hhook;
rightKerningGroup = T;
rightMetricsKey = T;
unicode = 01AC;
},
{
glyphname = Tretroflexhook;
layers = (
{
anchors = (
{
name = bottom;
position = "{222, 0}";
},
{
name = center;
position = "{293, 356}";
},
{
name = top;
position = "{362, 700}";
}
);
layerId = UUID0;
paths = (
{
closed = 1;
nodes = (
"394 -147 LINE",
"306 -203 OFFCURVE",
"197 -178 OFFCURVE",
"220 -63 CURVE SMOOTH",
"368 681 LINE",
"628 681 LINE",
"632 700 LINE",
"92 700 LINE",
"88 681 LINE",
"348 681 LINE",
"200 -60 LINE SMOOTH",
"174 -192 OFFCURVE",
"306 -229 OFFCURVE",
"401 -165 CURVE"
);
}
);
width = 548;
},
{
anchors = (
{
name = bottom;
position = "{244, 0}";
},
{
name = center;
position = "{311, 336}";
},
{
name = top;
position = "{384, 700}";
}
);
layerId = "C4221BDF-4AE8-4E40-821A-B2476087DE1A";
paths = (
{
closed = 1;
nodes = (
"413 -102 LINE",
"332 -119 OFFCURVE",
"281 -93 OFFCURVE",
"296 -20 CURVE SMOOTH",
"421 601 LINE",
"657 601 LINE",
"677 700 LINE",
"91 700 LINE",
"71 601 LINE",
"307 601 LINE",
"182 -26 LINE SMOOTH",
"152 -171 OFFCURVE",
"287 -225 OFFCURVE",
"419 -191 CURVE"
);
}
);
width = 594;
},
{
anchors = (
{
name = bottom;
position = "{271, 0}";
},
{
name = center;
position = "{334, 315}";
},
{
name = top;
position = "{411, 700}";
}
);
layerId = "5DA6E103-6A94-47F2-987D-4952DB8EA68E";
paths = (
{
closed = 1;
nodes = (
"492 -16 LINE",
"430 -46 OFFCURVE",
"382 -33 OFFCURVE",
"393 18 CURVE SMOOTH",
"493 517 LINE",
"698 517 LINE",
"734 700 LINE",
"88 700 LINE",
"52 517 LINE",
"257 517 LINE",
"157 18 LINE SMOOTH",
"113 -200 OFFCURVE",
"342 -250 OFFCURVE",
"515 -174 CURVE"
);
}
);
width = 653;
}
);
leftKerningGroup = T;
leftMetricsKey = T;
rightKerningGroup = T;
rightMetricsKey = T;
unicode = 01AE;
},
{
glyphname = Tturned;
layers = (
{
anchors = (
{
name = bottom;
position = "{222, 0}";
},
{
name = center;
position = "{291, 345}";
},
{
name = top;
position = "{362, 700}";
}
);
layerId = UUID0;
paths = (
{
closed = 1;
nodes = (
"492 0 LINE",
"496 19 LINE",
"236 19 LINE",
"372 700 LINE",
"352 700 LINE",
"216 19 LINE",
"-44 19 LINE",
"-48 0 LINE"
);
}
);
width = 548;
},
{
anchors = (
{
name = bottom;
position = "{244, 0}";
},
{
name = center;
position = "{313, 341}";
},
{
name = top;
position = "{384, 700}";
}
);
layerId = "C4221BDF-4AE8-4E40-821A-B2476087DE1A";
paths = (
{
closed = 1;
nodes = (
"537 0 LINE",
"557 99 LINE",
"321 99 LINE",
"441 700 LINE",
"327 700 LINE",
"207 99 LINE",
"-29 99 LINE",
"-49 0 LINE"
);
}
);
width = 594;
},
{
anchors = (
{
name = bottom;
position = "{272, 0}";
},
{
name = center;
position = "{344, 360}";
},
{
name = top;
position = "{412, 700}";
}
);
layerId = "5DA6E103-6A94-47F2-987D-4952DB8EA68E";
paths = (
{
closed = 1;
nodes = (
"595 0 LINE",
"632 183 LINE",
"427 183 LINE",
"530 700 LINE",
"294 700 LINE",
"191 183 LINE",
"-14 183 LINE",
"-51 0 LINE"
);
}
);
width = 654;
}
);
leftKerningGroup = Tturned;
rightKerningGroup = Tturned;
unicode = A7B1;
},
{
glyphname = U;
layers = (
{
anchors = (
{
name = bottom;
position = "{332, 0}";
},
{
name = ogonek;
position = "{518, 0}";
},
{
name = top;
position = "{472, 700}";
},
{
name = topright;
position = "{747, 700}";
}
);
layerId = UUID0;
paths = (
{
closed = 1;
nodes = (
"515 -3 OFFCURVE",
"621 93 OFFCURVE",
"661 293 CURVE SMOOTH",
"742 700 LINE",
"722 700 LINE",
"641 294 LINE SMOOTH",
"604 106 OFFCURVE",
"507 16 OFFCURVE",
"347 16 CURVE SMOOTH",
"181 16 OFFCURVE",
"105 116 OFFCURVE",
"141 295 CURVE SMOOTH",
"222 700 LINE",
"202 700 LINE",
"121 293 LINE SMOOTH",
"84 107 OFFCURVE",
"170 -3 OFFCURVE",
"347 -3 CURVE SMOOTH"
);
}
);
width = 768;
},
{
anchors = (
{
name = bottom;
position = "{334, 0}";
},
{
name = ogonek;
position = "{560, 0}";
},
{
name = top;
position = "{474, 700}";
},
{
name = topright;
position = "{720, 700}";
}
);
layerId = "5DA6E103-6A94-47F2-987D-4952DB8EA68E";
paths = (
{
closed = 1;
nodes = (
"565 -16 OFFCURVE",
"692 95 OFFCURVE",
"734 305 CURVE SMOOTH",
"813 700 LINE",
"581 700 LINE",
"505 319 LINE SMOOTH",
"484 214 OFFCURVE",
"447 175 OFFCURVE",
"379 175 CURVE SMOOTH",
"305 175 OFFCURVE",
"271 220 OFFCURVE",
"291 319 CURVE SMOOTH",
"367 700 LINE",
"131 700 LINE",
"54 315 LINE SMOOTH",
"14 116 OFFCURVE",
"132 -16 OFFCURVE",
"350 -16 CURVE SMOOTH"
);
}
);
width = 774;
},
{
anchors = (
{
name = bottom;
position = "{331, 0}";
},
{
name = ogonek;
position = "{535, 0}";
},
{
name = top;
position = "{471, 700}";
},
{
name = topright;
position = "{734, 700}";
}
);
layerId = "C4221BDF-4AE8-4E40-821A-B2476087DE1A";
paths = (
{
closed = 1;
nodes = (
"535 -9 OFFCURVE",
"650 93 OFFCURVE",
"691 298 CURVE SMOOTH",
"771 700 LINE",
"659 700 LINE",
"580 306 LINE SMOOTH",
"550 158 OFFCURVE",
"479 93 OFFCURVE",
"362 93 CURVE SMOOTH",
"236 93 OFFCURVE",
"177 163 OFFCURVE",
"205 305 CURVE SMOOTH",
"284 700 LINE",
"170 700 LINE",
"91 304 LINE SMOOTH",
"53 112 OFFCURVE",
"155 -9 OFFCURVE",
"351 -9 CURVE SMOOTH"
);
}
);
width = 768;
}
);
leftKerningGroup = U;
rightKerningGroup = U;
rightMetricsKey = "=|";
unicode = 0055;
},
{
glyphname = Ubar;
layers = (
{
anchors = (
{
name = bottom;
position = "{342, 0}";
},
{
name = ogonek;
position = "{528, 0}";
},
{
name = top;
position = "{482, 700}";
},
{
name = topright;
position = "{757, 700}";
}
);
layerId = UUID0;
paths = (
{
closed = 1;
nodes = (
"131 293 LINE SMOOTH",
"94 107 OFFCURVE",
"180 -3 OFFCURVE",
"357 -3 CURVE SMOOTH",
"525 -3 OFFCURVE",
"631 93 OFFCURVE",
"671 293 CURVE SMOOTH",
"752 700 LINE",
"732 700 LINE",
"651 294 LINE SMOOTH",
"614 106 OFFCURVE",
"517 16 OFFCURVE",
"357 16 CURVE SMOOTH",
"191 16 OFFCURVE",
"115 116 OFFCURVE",
"151 295 CURVE SMOOTH",
"232 700 LINE",
"212 700 LINE"
);
},
{
closed = 1;
nodes = (
"801 345 LINE",
"805 364 LINE",
"25 364 LINE",
"21 345 LINE"
);
}
);
width = 789;
},
{
anchors = (
{
name = bottom;
position = "{332, 0}";
},
{
name = ogonek;
position = "{536, 0}";
},
{
name = top;
position = "{472, 700}";
},
{
name = topright;
position = "{735, 700}";
}
);
layerId = "C4221BDF-4AE8-4E40-821A-B2476087DE1A";
paths = (
{
closed = 1;
nodes = (
"92 304 LINE SMOOTH",
"54 112 OFFCURVE",
"156 -9 OFFCURVE",
"352 -9 CURVE SMOOTH",
"536 -9 OFFCURVE",
"651 93 OFFCURVE",
"692 298 CURVE SMOOTH",
"772 700 LINE",
"660 700 LINE",
"581 306 LINE SMOOTH",
"551 158 OFFCURVE",
"480 93 OFFCURVE",
"363 93 CURVE SMOOTH",
"237 93 OFFCURVE",
"178 163 OFFCURVE",
"206 305 CURVE SMOOTH",
"285 700 LINE",
"171 700 LINE"
);
},
{
closed = 1;
nodes = (
"796 314 LINE",
"813 404 LINE",
"10 404 LINE",
"-7 314 LINE"
);
}
);
width = 780;
},
{
anchors = (
{
name = bottom;
position = "{335, 0}";
},
{
name = ogonek;
position = "{561, 0}";
},
{
name = top;
position = "{475, 700}";
},
{
name = topright;
position = "{721, 700}";
}
);
layerId = "5DA6E103-6A94-47F2-987D-4952DB8EA68E";
paths = (
{
closed = 1;
nodes = (
"55 315 LINE SMOOTH",
"15 116 OFFCURVE",
"133 -16 OFFCURVE",
"351 -16 CURVE SMOOTH",
"566 -16 OFFCURVE",
"693 95 OFFCURVE",
"735 305 CURVE SMOOTH",
"814 700 LINE",
"582 700 LINE",
"506 319 LINE SMOOTH",
"485 214 OFFCURVE",
"448 175 OFFCURVE",
"380 175 CURVE SMOOTH",
"306 175 OFFCURVE",
"272 220 OFFCURVE",
"292 319 CURVE SMOOTH",
"368 700 LINE",
"132 700 LINE"
);
},
{
closed = 1;
nodes = (
"802 287 LINE",
"829 423 LINE",
"6 423 LINE",
"-21 287 LINE"
);
}
);
width = 779;
}
);
leftKerningGroup = Lbar;
rightKerningGroup = Istroke;
unicode = 0244;
},
{
glyphname = Uogonek;
layers = (
{
anchors = (
{
name = bottom;
position = "{289, -213}";
},
{
name = top;
position = "{472, 700}";
},
{
name = topright;
position = "{747, 700}";
}
);
layerId = UUID0;
paths = (
{
closed = 1;
nodes = (
"641 294 LINE SMOOTH",
"604 106 OFFCURVE",
"507 16 OFFCURVE",
"347 16 CURVE SMOOTH",
"181 16 OFFCURVE",
"105 116 OFFCURVE",
"141 295 CURVE SMOOTH",
"222 700 LINE",
"202 700 LINE",
"121 293 LINE SMOOTH",
"84 107 OFFCURVE",
"170 -3 OFFCURVE",
"347 -3 CURVE SMOOTH",
"362 -3 OFFCURVE",
"376 -2 OFFCURVE",
"387 -1 CURVE",
"354 1 LINE",
"261 -43 OFFCURVE",
"222 -91 OFFCURVE",
"222 -144 CURVE SMOOTH",
"222 -187 OFFCURVE",
"252 -213 OFFCURVE",
"297 -213 CURVE SMOOTH",
"327 -213 OFFCURVE",
"355 -204 OFFCURVE",
"378 -186 CURVE",
"370 -169 LINE",
"350 -185 OFFCURVE",
"324 -194 OFFCURVE",
"299 -194 CURVE SMOOTH",
"263 -194 OFFCURVE",
"242 -176 OFFCURVE",
"242 -142 CURVE SMOOTH",
"242 -83 OFFCURVE",
"310 -23 OFFCURVE",
"434 7 CURVE SMOOTH",
"547 34 OFFCURVE",
"627 125 OFFCURVE",
"661 293 CURVE SMOOTH",
"742 700 LINE",
"722 700 LINE"
);
}
);
width = 768;
},
{
anchors = (
{
name = bottom;
position = "{286, -240}";
},
{
name = top;
position = "{474, 700}";
},
{
name = topright;
position = "{720, 700}";
}
);
layerId = "5DA6E103-6A94-47F2-987D-4952DB8EA68E";
paths = (
{
closed = 1;
nodes = (
"505 319 LINE SMOOTH",
"484 214 OFFCURVE",
"447 175 OFFCURVE",
"379 175 CURVE SMOOTH",
"305 175 OFFCURVE",
"271 220 OFFCURVE",
"291 319 CURVE SMOOTH",
"367 700 LINE",
"131 700 LINE",
"54 315 LINE SMOOTH",
"14 116 OFFCURVE",
"132 -16 OFFCURVE",
"350 -16 CURVE SMOOTH",
"366 -16 OFFCURVE",
"381 -15 OFFCURVE",
"397 -14 CURVE",
"332 30 LINE",
"238 -6 OFFCURVE",
"184 -58 OFFCURVE",
"184 -132 CURVE SMOOTH",
"184 -200 OFFCURVE",
"242 -240 OFFCURVE",
"330 -240 CURVE SMOOTH",
"373 -240 OFFCURVE",
"411 -230 OFFCURVE",
"438 -217 CURVE",
"429 -124 LINE",
"413 -131 OFFCURVE",
"391 -138 OFFCURVE",
"369 -138 CURVE SMOOTH",
"341 -138 OFFCURVE",
"323 -122 OFFCURVE",
"323 -97 CURVE SMOOTH",
"323 -60 OFFCURVE",
"355 -29 OFFCURVE",
"460 -5 CURVE SMOOTH",
"609 29 OFFCURVE",
"700 134 OFFCURVE",
"734 305 CURVE SMOOTH",
"813 700 LINE",
"581 700 LINE"
);
}
);
width = 774;
},
{
anchors = (
{
name = bottom;
position = "{285, -226}";
},
{
name = top;
position = "{471, 700}";
},
{
name = topright;
position = "{734, 700}";
}
);
layerId = "C4221BDF-4AE8-4E40-821A-B2476087DE1A";
paths = (
{
closed = 1;
nodes = (
"580 306 LINE SMOOTH",
"550 158 OFFCURVE",
"479 93 OFFCURVE",
"362 93 CURVE SMOOTH",
"236 93 OFFCURVE",
"177 163 OFFCURVE",
"205 305 CURVE SMOOTH",
"284 700 LINE",
"170 700 LINE",
"91 304 LINE SMOOTH",
"53 112 OFFCURVE",
"155 -9 OFFCURVE",
"351 -9 CURVE SMOOTH",
"365 -9 OFFCURVE",
"378 -8 OFFCURVE",
"392 -7 CURVE",
"328 17 LINE",
"247 -22 OFFCURVE",
"203 -73 OFFCURVE",
"203 -134 CURVE SMOOTH",
"203 -193 OFFCURVE",
"250 -226 OFFCURVE",
"315 -226 CURVE SMOOTH",
"353 -226 OFFCURVE",
"384 -217 OFFCURVE",
"411 -203 CURVE",
"398 -147 LINE",
"379 -157 OFFCURVE",
"355 -163 OFFCURVE",
"332 -163 CURVE SMOOTH",
"302 -163 OFFCURVE",
"282 -148 OFFCURVE",
"282 -120 CURVE SMOOTH",
"282 -77 OFFCURVE",
"333 -25 OFFCURVE",
"447 2 CURVE SMOOTH",
"576 33 OFFCURVE",
"658 132 OFFCURVE",
"691 298 CURVE SMOOTH",
"771 700 LINE",
"659 700 LINE"
);
}
);
width = 768;
}
);
leftKerningGroup = U;
leftMetricsKey = U;
rightKerningGroup = U;
rightMetricsKey = U;
unicode = 0172;
},
{
glyphname = "Upsilon-latin";
layers = (
{
anchors = (
{
name = bottom;
position = "{403, 0}";
},
{
name = top;
position = "{543, 700}";
}
);
layerId = UUID0;
paths = (
{
closed = 1;
nodes = (
"666 700 LINE",
"662 681 LINE",
"772 607 OFFCURVE",
"820 528 OFFCURVE",
"820 390 CURVE SMOOTH",
"820 163 OFFCURVE",
"659 16 OFFCURVE",
"433 16 CURVE SMOOTH",
"245 16 OFFCURVE",
"129 109 OFFCURVE",
"129 280 CURVE SMOOTH",
"129 497 OFFCURVE",
"269 624 OFFCURVE",
"418 681 CURVE",
"422 700 LINE",
"99 700 LINE",
"95 680 LINE",
"377 680 LINE",
"251 627 OFFCURVE",
"109 500 OFFCURVE",
"109 280 CURVE SMOOTH",
"109 100 OFFCURVE",
"233 -3 OFFCURVE",
"433 -3 CURVE SMOOTH",
"670 -3 OFFCURVE",
"840 153 OFFCURVE",
"840 390 CURVE SMOOTH",
"840 521 OFFCURVE",
"799 605 OFFCURVE",
"694 680 CURVE",
"985 680 LINE",
"989 700 LINE"
);
}
);
width = 910;
},
{
anchors = (
{
name = bottom;
position = "{395, 0}";
},
{
name = top;
position = "{535, 700}";
}
);
layerId = "C4221BDF-4AE8-4E40-821A-B2476087DE1A";
paths = (
{
closed = 1;
nodes = (
"621 700 LINE",
"603 608 LINE",
"688 555 OFFCURVE",
"727 485 OFFCURVE",
"727 383 CURVE SMOOTH",
"727 212 OFFCURVE",
"615 93 OFFCURVE",
"428 93 CURVE SMOOTH",
"290 93 OFFCURVE",
"198 162 OFFCURVE",
"198 290 CURVE SMOOTH",
"198 448 OFFCURVE",
"303 558 OFFCURVE",
"429 608 CURVE",
"447 700 LINE",
"96 700 LINE",
"78 601 LINE",
"255 601 LINE",
"165 543 OFFCURVE",
"82 431 OFFCURVE",
"82 281 CURVE SMOOTH",
"82 97 OFFCURVE",
"228 -9 OFFCURVE",
"420 -9 CURVE SMOOTH",
"664 -9 OFFCURVE",
"839 145 OFFCURVE",
"839 376 CURVE SMOOTH",
"839 469 OFFCURVE",
"816 539 OFFCURVE",
"756 601 CURVE",
"954 601 LINE",
"972 700 LINE"
);
}
);
width = 896;
},
{
anchors = (
{
name = bottom;
position = "{399, 0}";
},
{
name = top;
position = "{539, 700}";
}
);
layerId = "5DA6E103-6A94-47F2-987D-4952DB8EA68E";
paths = (
{
closed = 1;
nodes = (
"580 700 LINE",
"546 530 LINE",
"598 499 OFFCURVE",
"627 440 OFFCURVE",
"627 375 CURVE SMOOTH",
"627 264 OFFCURVE",
"556 175 OFFCURVE",
"441 175 CURVE SMOOTH",
"367 175 OFFCURVE",
"306 219 OFFCURVE",
"306 301 CURVE SMOOTH",
"306 396 OFFCURVE",
"367 488 OFFCURVE",
"464 530 CURVE",
"498 700 LINE",
"108 700 LINE",
"71 517 LINE",
"188 517 LINE",
"114 454 OFFCURVE",
"66 357 OFFCURVE",
"66 261 CURVE SMOOTH",
"66 94 OFFCURVE",
"213 -16 OFFCURVE",
"411 -16 CURVE SMOOTH",
"654 -16 OFFCURVE",
"857 136 OFFCURVE",
"857 362 CURVE SMOOTH",
"857 423 OFFCURVE",
"839 477 OFFCURVE",
"808 517 CURVE",
"933 517 LINE",
"970 700 LINE"
);
}
);
width = 908;
}
);
leftKerningGroup = "Upsilon-latin";
rightKerningGroup = "Upsilon-latin";
unicode = 01B1;
},
